<mxfile host="app.diagrams.net" modified="2020-12-11T06:01:43.647Z" agent="5.0 (Macintosh; Intel Mac OS X 11_0_1) AppleWebKit/537.36 (KHTML, like Gecko) Chrome/87.0.4280.88 Safari/537.36" etag="Lg_9ahhlhGfa4-p1fCyh" version="13.9.6" type="github">
  <diagram id="a_-aCG9UjQ89pPit4eYx" name="Page-1">
    <mxGraphModel dx="983" dy="530" grid="1" gridSize="10" guides="1" tooltips="1" connect="1" arrows="1" fold="1" page="1" pageScale="1" pageWidth="827" pageHeight="1169" math="0" shadow="0">
      <root>
        <mxCell id="0" />
        <mxCell id="1" parent="0" />
        <mxCell id="wJXbaJ3XNHEv-SyZ_-ga-2" value="" style="shape=image;verticalLabelPosition=bottom;labelBackgroundColor=#ffffff;verticalAlign=top;aspect=fixed;imageAspect=0;image=data:image/png,iVBORw0KGgoAAAANSUhEUgAAAMcAAACuCAYAAACC/hlUAAAgAElEQVR4AexdZ1gUVxdWOkuAiBDFFgtBoqigxI4FUZAOotijicYSjYlGjRpbNBpbNPbesMQSS+zd2KKx94advoCiQPLv/Z73DIMr0osKnz/mmd3Z2Sn3nveefk6J//77D+/ClpKSgqSkJERFRWH37t1o0qQJTEyMYGpqBKtSGlSuZIV+X7XGrOmfY+3qQVgf+i3m/fYFhg3xQ5dOTVHXuRLKlDFHqVIamJubQKMxhqmpMUxMjGFubo66devC19cXffv2xfz583H06FE8fvwYMTExSEhIwPPnz5GcnIx///33nRiPd2FO/t+focS7MAAkyBcvXiAuLg4HDhyAvb0djIwMYWZmjCpVLDFhbAgu/jMNEY+WIiFmNZIS1iEpfh0StaGIfrIMD+8txrVLv+HAnjGYO+tL9PuqDRwdKwpQeA1jYwMYGurDwEBPrmtlZQV7e3s0bNgQEyZMwMmTJxEdHY2nT5+mgYRgfQ+Ud2PhfFs0+tbBQQLkik3iJDBsbGxgbGwEKysNundthutXZiPx6Tokxq3Bi/i1AorkhHXgRoDw2PP4tUjUrpFzCJhn8WsRG7kS509Pw8J5feDW0h6VK30IG5sPYG5mIhzJ0NBAgGJkZASNRoOWLVti7dq1uHPnjnAvchNysvcA+f8FyFsFh8oxCIxdu3bB0dFRCNfSUiOi0oWzM5D0VAGCCojc7gkccptrF2dh+ZIB+LKHGxo3skPVKqVF/DIxMYSRkQIUY2NjVK1aFT/88IMA9datW9BqtUhMTHwvcr0j4veb5CJvFRzkGCQ+6hjNmjWDnp6eEKynR22cOj4ZL1I5RG4BoXs+uUtS/FqF0zxbj6faUFy/9BvWrP4Wgwd5w8fLGba2ljA2NpT78xm4WVpaonPnzli2bBmuXbuWBpA3OTnv7/V2udZbAYcqShEYlPfd3NxA8cbE2BBOtSvhwJ6xeB63VnQLXUIvqM8EHa8f82QZzp6ehmWLv8Y3X7eFY81ysLAwhamJUZrIVa5cOXTq1AmbN28WcSs+Pl70I+ok74n37RJvYY//WwEHOcazZ89w//59+Pv7Q19fT5RmayszbNs0TFZ6rvgFBYbMrpNCke3ZetFZntxfjFPHJmH6L91Rr15V4WAUt/hsBgb6Im6Rk1Av0hW13ivuxRcgbxwc5BpUdmlG5YpM5dvQUA/WVhpMHNcB2uiVaWJQZkRd0Mdp/aJiT2VeG7Maj+4vxsb1w+HV1jlNiaf1zMTEBGXKlEFISIhwvMjISJCTUHF/lzgJx5jPo7vxWGGvtMXt+m8UHOQYVG4fPHiAQYMGiShlaEA9wwCfd22IsFvT8DxuGZLjVyA5YTWSE0KRnLAGyQnUGRS9oaCBkdH1VCtYdPhybNk4DN5tnUWB12heiltmZhr069dPQPLw4UMByZv2lagg4LjSFM6xpTmaJnEaOegz4sbP5HYEMhcmnkPOzeclsPn/9+B5nQO+MXBw8Dl5JKRff/0VpUpZisiiMdVDS1crHNzREklR3ZAc0w9J2jFIipuK5Ph5SI5flgqUNw2QtcJNqJ/Q2rVn52h07+IKp9oVxTFJU7C+vj7MzMzEsbht2zbcvXtXiI7EVtirKMdTXWxI+GFhYTh9+jT+/PNPLF++HNOnTxcfzuTJkzFjxgwsWrQIoaGh2LBhA/bu3Yu///4btMYRPATKe4C8JXCQvXMCHj16hKVLl8LBwUEsQqameqhRXYPQRZ8h/lEQkqOCkRLdHsmR7ZAc1QnJMV8hKXYIkrTjkBw3DSkJi5AcvzKVo+hylcLVTyhyESSRD5dgy6ZhGPi1J2o42IqTkl58ioZ2dnb4+uuvsWXLFnnPwlDcVU7BRYbcgWDcsWMHJk2aiG+/HYB2Qd6oVasabMuaoYyNBjbWprC2MkUpSxPRocw0JrC0NIeTU234+npjwID+mDBhPP74YzNu374l1+S1OV/vOcl/KHTOwUEm66Z8zpWrWrVqAgwDg5IoW8YI0yY4IvZ+gABDQEFgqFtUMJIjg5AU2QEpseQqvZAU+y2S4yalchWKXuQoquhVuCBJfrpO/C4RD5dg367RGDrYD6UsNeInUU3AfL+OHTti+/btIspQdCkoYuN1KD7du3cPixcvRkhIB9SqVQMmxvowN9NH3drm6N6pAoYOqooJoz7BqO+rYVC/Kgj2L4sK5YxhpmGEgB5MTPTh2uQTVKms+Hpq1qyOLl06YdOmjQgPDxdxi/cqbO73rl+/UMFBYJBjkHX/8ccfqFSpogDDxFgPVqUM8W3/Koi8548XKhiy2kcFIymSWwekxHRBcnRXJEf3QrL2R6QkzFX0lHiCRdVVCkdHUZX3Z9pQhD9aipNHf0avnm6wtjaTeC5auMhJqlSpgm7duuH48eNpoSl5BQn/R7GH4hPFoU6dQlCtWgXYltXg44qmGPrNJ9i5qSmunvXE/Ws+eHLTF5F3fBF+2xePb/gi7Io3Lp5qg7VLPkOXDmXxcUUTDOjXHIf2/4hd20dg9Mj2aNy4Bpyda2DIkO9w8+YNxMbGvnOGhjcNpkIBB0GhysMRERHC+mnpoVmUK5eNlSG+6PYxEsLJFXQ4RR4+EzAijsX0QJJ2BJLjCZSVSH4FKCpnKXjAMKxFG70KG9cNQdPG1WFpaQp63Wn+pYWLoSkTJ04QszWVYa78uVmVeS65D4Gxa9dOEYssLYxQrqwRJoyqgSc3fPEssh1eRAalcVxlEWmP5KiXmxyLaidjfuF4K/w8+lOcOjIIL+JXIPHpGly6MBMhHRrBxobBmxb466+jEpT5/yxmFTg4VGBQJr5+/Tp++eUXiYpVfBl6qFLJGN99XRWPbvjiefjLCU0TpXIJEIUQyFHap+or1F26Izl2MJLjJov4lZKwBMkJqwpF/KL3XeK74tbiYdgizJ/TG+5utVC2jLmAw8CAoSlGaN68uSwS1LtUUSu7lZBjyXMpRs2ZMwelLM1gW8YYPbpUwN8H3fA0PAiJ4UF4EdHu1UUmqjOSo3siKboHkmN6CJclx+VY8dznEUF4ER2M5xEdkKSdLAB5HrcGVy/OQp9e7rCxNkfZMtaYOXOmxJqpAMnueYvb75mCgxNDXYFmPyqXJHbVBMjVT904eRw8ik9cGcmO6dxjrFSfPn1gY2MtfgyNRg8O9qb4aVR13L7o9epk5hIQ2QGJRJASrYhhJI4ULZX6sUiKm4Hk+MVIjidQqNAXrFIvvpK4tbhxeS4mTeyKVm41hZMwNIWK+0c2Npg4caKIRgyV57hlZiXicY4pF5hx48agnG1pVKqgwehhn+Da2TZIjMic68r7x/ZGMq1+2knKPmYgkqO6iVjKhYTnKAtKVyTFzUZyfChexK/BlYuz8EWPlrC2/gDlypXF6NGjJXyGc89nKm4AyOp9MgQHgUF2TlBcvXoVK1euxKxZs8QMeOnSJWG3ZPPcaEMnGHj84MGDkitBWbtmzZooWbIk9PVLguZaF2cLrFzgInJwUlT+RKnswPHK76LUB4pinxzVFUnRfZCk/QFJcdORHE+OQpGr4BX5Z9o1OHN8Eib91BE1a9hKSAqVdopZDJdhTgnN2lxcMiI6AodjP3DgQFSoYI1P7c2wdG5dxORQR+PikBzdCUnkoPG08q1AUtw0JMX0F1AQHDJOHJ+YPlC46xqxyt26NlcAQr9O2bI2GDx4sFjG+ExZEVNx++01cBAYHARVifb29hblkp5h5kAwCalt27bw8vKSvaenp0w2jzs7O4OxSBQlKEYRGJYWhugaYotT+92gve9fqBzjFVBkxY2iOiKFOkr0l0jWDkdS3K+KPyWenIQKvaqj5B00FLcYRs8clJN//Ywxo9rDtqw5LMxNodGYiHHCw8NDTL+qp53cmGAhB2awY8+en6NSxdJwqfshdm92RdyDADFe5EpPi+4ovqPk+AWputhCvIgZjiSayqM6pAIkBClxw2QMkuJDJZzm6qXf0K2LKxghXaaMjXAQ6o+51ZmKMmBeAYcqSpHlr1u3Tmz3iomyJPT0SkI/dePnjLcSKFlS2fg7vd8TRjvj/g1fJDwKxLMnQaJn5Mg6lRVxF+RvUbR+hSA5+nMk0fL1dImIGApACkbsosc9ntHAF2fhq17ukoTF4EZategMVcNROO7kxOTCDeq7wNzMGC51LbFns2uWYlR2i4JwiaiuqQvAKgEJHa3PI0KQGN5O9JDkqI5I0o5HcgL9SEooDVMG3FvVEiucubkZZs2amWaeJq0UZcLPybO/Ag6yd4pKhw8fFrGIHmASubGxnnCAMjZGsLFm2qohLMwNxG5OR56piR5onqUlyshQ4RgqeOo4mos4cPqoO25dbIvI234CFAIkVytgQQIi3bVeyt9cSYMUf4p2LJTVlh76/CvzSuzWGmijVuLA7tHo3LGxOBKZfEVOUrZsGQwZMgT0aDOt18zMCE61zLFpVSM8fRyY77GifpFMBT1+oVjyXsSH4srZb3D3oi/iH1J/oXjVU+GiCauRFL9GOMieXaPRpLE9KGIxZGbTpk0CYNJKcQdIGjioY1Ccohzcq1evNEcdCZ9e7FHDHDDlp1qYNNYRo4c7YPhge/T/qjJ6dimPbiG26BRsiwBvG7RuWQoNXCxgV9UUVpaGsLQwkD1Njx2DbTFrsiMO/Nkcdy96QfsgAE8fB4n15F0BCldhEop46rnaaoekWr1oImbcl+pHyZvopfhJ1iH68TLs2DoCXTo2Qe1aFSVDkXnvNP+SW5tp9PFdfzs8uOaN+IeBBTJG8k4xXys6SEIorpyfhs872+PqWS8kPCJXD0RSTB/FaCHi5To8067G8sV9Ua1aaZiZmcDezg779+8X0S8jXSknK3JROScNHLRMkWusWbMGhoaGokyTKzjW+ABrlrjgOW3p0em2qHbC7hMeBiImzB/3L3vj8il3HNnTEhtWN8KcaXUwZrg9vvq8PFo0sYS1Fe3+Cti+7FYRi+fVw9XTrfH0SVDOHIHpVvzsxIn8/i6rqXjog5ES21NRbrUTU73z5CbUSfLuO2GWY2z4cmz74wf079NaghuVpKuSku/uVOsDzPylNq7/4yFjRBNs/t+pA5JihyMlYQWiniyFi0sVDOr3CcIueeHpIxou2iE5lvqHIl7xHeOiVmHKpC4SocyYsg4dOuDixYuymBZn7pEGDlqmbty4IamqBlKIQE/COxb9Vhfxj3LG1rn6P48gYNrhWXgQCBqKUbfPe+LkQTdsWt0Qk8fWhFcbG/HSOtYwQ0i7Mpg7ow5unPNM4yTvlE6iAjLVQ58c3SU1jIV+lClIjl+u43DMPTchJ6G3/e6N+dj0+xB07ewqPhIWhjAxNkDFcsYI8LLB9t8bIjLMT8aUvo28cloBPDli3BQ8jVuBH4YFwr6aBcaPcEDUHT/RQZKpxFP/EC6p5O4/ebAYQ77zlRgtW9syGDNmTJq1rbgCpARfjButU6zEQYcV9QbqFKO+t5cBy+tEyCpEU2HqRqKPexiAsKve2Le1Gb7pUxk21oaoVMEYnu7W2LCiIaLv++NZeKAo7vm6r0rUhbIncbZHSkxnJNHhqB2DlATK8qoCr4Ikd1yFjrgnD5bgxJGfERzUIC3hivku5W2N8E3fj0UcjXsUKM6/PI8P5yO2LxJj5+H08Z9RztYctWuaY9cfruC1RR+kgi5+Ib6TkpX5+MES+PrUExGQFVwYZElpIzce/6IiUvE5S1BupPmQbNLRsaaUsDE310fn9ra4fNoDBemT4GTSQ5v4JAjPngQiPjwID656YcHMOmjjZgUHOw18PD/CX3taIuKun8ja75Linl6k4SqsONQUp5qE2wtBMR+Fm0JYOfWj0KpFgDAkJSZyJUJXDIaLS1VJ3VUCBvVQz+kD/LmxESLu+Im+xvFM/1zZfVfFxecxY/AsfiW6d2kKc3MjfNXzY1w74yHXlfeK/iJNPxELVtwaXDg9TWqIUT9q3ryZ+GJIP8URICVot6YJkVzD3FwjlqfaNc2w7fdGeK4Tr5PdgOf19xcRQXgWESQBchtWNEDH4LIClNHDHHBiv5uIZaK050OUyOuz5fZ/4nhLtXalxE9IjfNami4YMmfcRPWT/H18shLYaGUmOfbkItXtNJjxcy1cP6uIonkRsxRgd8EL7XwcOzQGzk4VYVXKBPOmOyH6rr8sYOIH0Sr+D5q2+UxPY0OxZOEAieillY0WNkodBEhR4go5edYSdDidOXMGbdq0ESXwI2sjjBhij/gCMB/mlLiEo0QGidJPR+GR3c3x85iaGPx1Nfz6syOO73NDXAFZbHL6THk9TyE6JdReIodjv0WS9mdF7Mo1J2Hc1jqE31+MX37uLFyECruqE3YPKY9Du1rI2BAguX3mJBobYgZCG7UYq5YPhGNNW7g2KoV//nIXh6OIw9FdJPRGV0EPu7UA3w3yEQchzbtMoKJ4Vdx0jxJEPUNDypaxEa5Rz8kcN856Fqg4lZtJE7ErIkisX+ePu2P14s8wd1odTPmpJm6e8xAuI4FzhaJL5F5EyfLd0vStziLjJ2tHIiVhjk54fc7ELqm9Fb0KO/4cKZGz5uY0+TLqVw/NGn+I5fNdEHHTV5R1cuIsn0ln3AjklOgOeBH7M8IfLMK4MR1gV/VDMSFTrOU4i17D4MX42an+HqXA3vGjP6NpY3tYmGvQuHFjXLlypdh5z0tcvnwZwcHBYhmhT2LBr7Xx/E3GPulMVvpJpb7DALt7V71xfE9LyRjcuq4JonMYX5T+em/3O6OF2yMl9nMkxQxIje2iuTTn5mDqI9cvz8aA/h7iPZcQHb2SoHN2xGDFHMsohFxZ+2iFYwRv/ELcujITIcH1Ua6sKf7c0EgsjmI+Zui7+D+oRyliIet/LVnYL1X/MBXrFYNT6RLIichSFM4pwTTLUqVKwdzMAJ9W1yD2XYl/SgUNVy6Gtj97HIT4J0G48U8bUDe5etpDchhkZUsHMFW0eUVZTnfO2wKK8mwMH6fHuieStNRN1PyTrDmJ6CFxa/A4bBF+HBGMcuUsYWpqqAR3avTwVY/yuHbOI/dzSMtUzFA8j1uJfbtHo6ZDGbg4f4hwhv08pBk/GCkxHZQ0gNRkMnr842JWI9C/gYSXNG/uiiNHjkjkdnERr0qMGzdWQkTooJs5uTYS3xEiyoh403STiCA8uOKNSydav3Rc6Ty3QnjdkRLdGSmxXSQfXclnUJJ/FNCkhrTr/C+jexbmMQUogUr+iXZMamiHauVSzcGvBz8SJAkxqzBn1pewq/aRpOmqiWQ9u1TAZToNGXmQCz2EgYhJ2l/wVLsCw4cGoLqdJZbPrye+J3UBoo6SksDCF6tSa4utxfVLs+QZLC3NJHqXQZTFJbSkRP36LjDQ10Ptmh/g3DF3kTMLkyDye21OlExWqjwf/yDVq5ueyKMYjdpXWe1iv0dyzDdKdGpML0joOlduyZRLDd1O//839J0AUf1ASvDjsFT/AmO6KMJkbN2iiPUsbg3WhX6H+i5VJV+E8Wz0UYW0s5W0WIad5Hy8GVPWB8+1vyHs5hw0bFAZXq2t8ei6T1qWIReVlJjuqfFXCpfjMyya30cSpOrVq4tDhw4J9ygOpt0StFcbG+mhT8+KCL/jlzt59Q0RUM4n+KVCrRAdAdARybF9kKz9QfH6sjiDdhySGCKh/QYpsQRLl1Qxp4OEcb81zkLAc0yjuyNJTKgLs/SVCAfRhkpFlBbNaghA9PWUQNBe3Svl3oEb1QEvYr5DYtwyTJvcSbFcHWn1SkSwcOXYAUpQZkKo+GUe318stb1o2mVKMLMdi0PcVQmGTrMqxeLfnCSkPC+E+M7/J81q1B1JMf2QHDceKQnMCGR4+gJlJYz7STIGRQ8ggUa1e1km6C0sAgoRDkw1AVPEel284jE6Dqkcb94wVDiI2oeEUQcXjrtnqpdlNmdJkSEyHpfOTkYDFyvs2dJc6OIVJT8qRBYbxmeRs1H/WLNyIMqW+QCOjjWkfhb9HkVd9yjB+B16xDeubphxeZy3QBiZTVx+jysyPvM3mGPdFckUt+JV0+qKVBMrATMfKfETkRwzEEmpXCUlhslBHV9JM83v82T1f+VZaSXql7ZKZyZikYPERqzAwvl9UKnih2LmZZLZ78sbisUpN150AWVMX0Q9WYABfVti8bwGElKiG/TIZ5MxjGdsmWJxu3NzvgRPWlpoMHz4cPF70MFcFKxSmT1jCWNjfZS3Ncb2jU2LPTjSE6MiPrVTqiymhX2o+eWpCjGD75hFp/0RyUwxZaqtgCQEL9JysRXlXtWHMtunv3/OvlMX6IvkeHraKednzkEiHixBu4D6kntBUXnMcAeFsHOjmEtITCDiIqZgw9pB+Hl0HfE5pVfuJfxdxCuFezAtePXKAShXzhxMjKLfgw7mzAivKBwvQUcScy92b22GZOYdFyNOkd27KKuzSthM9umVWoqUBQd0wz4UomQC0Iu4ZUiMnYln0T/iWcTXeBreA4kRn+NZeCc8C2+PxAhuwambEqHMSGWKJSyfowInu2d79fcgpMR9m5rznrmSTuV4xdIBqFDOUiyQHQLKSume3HrPOS7PIr7EqaPjMG5EQ9y96C2R1rrPxHOE+0oeviJaXTo/E56ta0tS1BdffAGm1VIxL6rilYCjciVT7Njs+n/HOXQnWz6rCjFr9kqSE30Qc5QgQlbniFuNqIeLcfX8DJz4awJOHZ+IE4d/wIlDA3DyUA+cPBSCv4+E4PzxYNnOHgvAuWNtcfGUN67944lb59og7KKXECzzX+hTYpQyUwKYS6GmEacHkBAigRX7LVISCNqMdRBasB7dW4QmjatLDn+bllY4f8w9T7oky/Y8uDEKS+YH4dRhVjt5aezgWCngaK/Ej6U+D3NTund1TU2rNcexY8eKdGE4AUcpS0P8sbbRe3Ckck2ZeMnf6IDkmC+QHPsdkrUT8CJuIaIfLRbb/qljP2PPjh/FjDlhXEf06eUG77Z14Nm6Fny9asCnrQPatq6KNq3KwcvDFn5tbRDka42QoLLo0ak8vupZCRNH18Sy+S7Y/YcrWGgtginErEOVymHSg1f0AS31JNXM+6qIRcWYTXmm/NxN+p2wPOiWdU0kUSr9tbL7Tr/Qs4i+WLnkc2z5vSWehb8ODonNYhWXVHDw3n2+chexjhmNI0eOFLNuUbVclWCMDq1V65bWLzZm3OwmPje/EyhKCVLqGj3wInoQXmh/QaJ2CWIjluDJvfm4c2suLl2YAQJm/67RWLqwH+bP6YURw4PQMYS54mVQsYK5FHi2sdaglCXbPxuhbBljVK1sCiZ91a9nDj8vG4z5oTpOH2wlHCUttukV0LIQAh2GLzP1VD1EbZ1w9/o8aU9dsYIGMybVksBEcqPcvjfFpgM7vsDuLX5IePxqgpUyLnQK/pJWrSUxFRxsj02nJFtbU+8osuBglCfTYedOrVMgify5mYAieS5FL+pm4j9JtXalFYdTHGMsjiZ5GQlrpeoI20HfvDwb2zYPx8TxnYTDVBDFlZ1tDWFkqJ9aykgpVEFO/s/hVlLRUNdKxPFSuFpXJGmnZOoDYaWTwd/4SIV1FpJmNmZuwSFzExWMsCtf4ODOdopSrhPU+Co4QsVjTrHq867NpEYXy6GyhFMRBwcbsujhmz5VEH7bTynTkstVpkgSeT7eUSEMeosZIxUkTjul7tM0xbIVvxxJ8SulgqCARBua1gb6adwaAcyTe4uxd+dojB0dgpbNayiVSMxNxAzLkkbMqfn7gJtUanmNsCUQsFeqvM+CD6+KV0y7PXZ4gnCrju3K4MY5D8kczPU8RQXjedSXOHEgGOG3AyQFWr1GRuB4eHchOgQ3gKkpOaM5Vq1aVbR1DlNTFnguiaaNPpTSOelNdupgvN9nIZakOhkVoHyOf+O+lzYJipPsVcJNy/bThiI+ehWiI1fgzo15WLv6O3zerQUqVbSCXsmSkj7AMBDm1lNRfw0g5CJSSYSm1FfjsFhM7smjpfD3rQfXxlY4ebCVxFrlZQ5fRAbj8ukOiLmn1NlVr5EeHFwEzp6aIkDXaEylrzvTIWipKrLWqtq1a0ulEYY9H9nVIm8rTD5WYXWwi8NeIRglRyIlhkXUpr22qlNppkf75pXZ2Pj795g+vQemT+uBJQv7Y+WyQWjj7iyleRgnxWr0s6fVRuSd18Ui3kvGTDtSp66WAkQ6BWnWnTW9BypXMhOlPO5+QIYAy27cCcrou0xrTo1pS53rNHDEKzoHudWWTUNhV81GTLlbt24t+n6OESNGyGTQozplvCOe6siV2Q3c+98z5iZiVaIHnlXeGeIhFQTX4GnsajwIW4SVywaiU0gTaStdtqw5ypQxR5UqpVHLsTzYUZc1hlk50oAcvaElju11y5B7kEDFU81yQemyDFnVZO9upr+Ww+wpToi45ZsncHCOCZD0nEsFh7SnS1gDbcQK/Dqtu2QH1q5dC0+ePCnyqbMl2F+blQ01Gn00cLFEfDqrxHsAZAyAjMZFIRhat1hetBtSEn5TwMGVPH4tdmwbgRbN7VG1amklxVRjLP0F2fCGkdG6pVcJED29ElJtcvQwO0SHsWxOBll+1D+iP0fKUwYp6ohwT9fjxrU56P1lS3z3tT3CLnu/RuAZvUNOj70Ex0wR6+5en4v+fdrAwkIjdXWLQ1X2Eixxz5bHNL+xHE9+67LmdHCLy3kkEiX0PSS14xTrWvVLDesmsa4VS86hveOwa/tI/H1sEi6fm4Fzf8/Awb3jsHhBfwzo74WWLWrCsWY5EUvITdTibhSvKlYwwaW/2yCj8Hz1/ina75CSsDzN50CgMN7q16nd4N7cBpeYHJbOkZefOZD70hgRP1/e8eSxSeJ8ZFV2VtsvFoGHTIxfsGABWKiLpT/92pYRq1V6NpqfgSyO/1VWTq7a3ZAc+4WU9me0r3TATfNgK7kYVMJVHwT36gpP/ePF03WiH8RErABX39PHJ4v+0aKZg5h56a3QrYMAACAASURBVC/gvEz80T7rDL+ozqmFEBgbptyXJX527xiFBp9Vwl973F7mhBeAjsj3T4lmbasFSNSuRujygTA3N0XHjiG4efNmkfVt6MZ8lWB9XLbc7dSxo5R+YaHopXPrSSWQ9wDJWKRSVutueB71FVLiRiMlntlx7IHBCub0dehaj14FiC44FNAocUkCFPFwr0Fi/Fqc+3sqOnZoJD4DmtpZjufWhbaZes9lAaI3X8JdFPMuFXMCLqR9fSyfX1/yMnJTgCGrRU0Zg854rl2EqMdL8UUPNzHh/vbbLCk0XSySnei9JEBoXbCrVlWqe7dxK40rZzxkMLMaoP/r36K6SKJUirafJFPRrJoUMwhJsUyqmiApp1KxQ3JG1J4f6YHzkouo3ETdP41ZjfN/TxW/ASuus4o9m9ewxld6x2DaPLDfRuxApURpahZhQuxqjBwehEH9qksRPZqF087PBwcRcET3xNPoRbh0bgaq29uiWrWq2L17d7GpoSu1cmmHZu7v+PHjYGJiLC0Gxv5QXboISQpnPgaxICbinb2GmkQlxe9IdPRHKNmHSqlQ9lLvqWQcJrA/IRvIqFxF4SgqGDLa03dw7MhEtGzuIK3jaLliwGJmBC4EyzxvFpQT5XyttBFgNffWblUQdcdfCiYUxHjKe8b0QULsIkyb3BVWVuYICgqSCohccIuqb+MVsUr9orZEbtCggZR9cbA3w+Y1jZVkmffgyNVqSyJ9ubFUKJV1Jkq1w/PIHkiJG5uaiUiOouaPvA4W1SfCPHGGm1SrosGB7U2Q8Djz3HDlvu2UYg0JqyVL79HdRfDyrIF9W5srxdoKYj6j20uJIW3UQlStaoFSpcwxdOjQYiNSERdpVdYpIxIgFy5cwKcO1WFiYoBAnzKSqJ+Zh7YgVqD/u2ukedNTRSDpeMvehAwkVLnKS3GLegN9CCHtP0OFchoMHlAVsdk49BgoKT3a45dLCAtDVvr39UDvHpURcde/YBRzhpZED8PhvT9KFG7Nmg4IDQ2VKFx1wS3q+zRwkA2SHbIw1++//44qVSrDwtwI/XtVxkOdChT/d8RcEKtsumuoXIXZdGL0iOmN5Dh2kpqbyknIRV5ykkRtKC6em4GGDaqgVXMrqZHLBKrMDCbq9Rm9q8Z4bVw3GGVsTLFuaQNE3/UTiSA/c/kiIgAJESMxoK+7xIO1auWGc+fOFXnHny6g08DBgwQIK9axuxNbAleuXB7m5gaSbql0MS0YZS4/k1Ic/6sQM3NHvlLScdmaLC3SV7FmMRx8+aL+cK79If5Y01RyNDIDR9oYsWhc3K9gE8yL/0yTMHYXZ0ssnessJXfYpzF9WHzaf9MBOv1x/u/+9eHSlYoRuO3bt5fMv2JV8VAXKepnJsazffK33w6CmZmpNIb/9efar5RoST9Y779nbPbN3bhQoQ+R8py0eCmdbV+KWA/vLcbA/q3x06haEob+SkWQDIiZSjMLRTPlNzp8GVzqVZFckk+qmmL0cHvcPN9WWkFkav3K4Jrq+zyPbI/N6zqhciULMHiVzWyKg1dcxQD3r3AO9QeKV/Rw0v/Rvn2whDrYV9Ng6XwXSdjPdsXKYlDVwX2/zxhMqkikxEwNUhR3KcGpVDk8cmgi+vV2xrljHq+EkGc0nsq12iNJ+xOeapdhzMhAEatWL/oM3TqWh3tLK5zYpzgHM/p/Zsc4/08jOmBAv89QytIU1tZW4goobm2YMwSHChIq6A8ePAAr2dHWXtfJHBtDG0oSTnarVmYD+/54xqDIdFxSRSM6GJlEFRe5ArN/7YrfV7lK6mp2CxUBwgqPz2J+w5F9o7Dt9+YSXMrGQcxhP3vEXYq/ZXr/DBY63pO58B6trEQZr1ixgrSxKC4mXJX+swQHX5YAuXfvHny82wpA3JpZYcfmppLGmd3E5GbA35/7OmhI2FICJ5qZf+OkrhYBcvPaLOze2h4xYQE5TG0Owovor/Hw9q9YvqApnoa3E18Jc3eYr57bhY7GgL8PuqGRi4WAw87OTvTU4uDbUIHBfZbg4Ak08VKWvHr1iohYVqU0YjHZu725wkEKMJjtPUBeBwjHRHQH6iLa4UhOWIrncasRdn0U4h6ydlbOyilRr4iPGIWNqwMkNyM/QYgEx9HdLeDibC6VRtj4KDo6ukjXqNIFhfo5W3CoACEHYd/ATp1CYGKsj5auVti7rRkSM6mU8Z7QMyb0/IyLeKW1rF/F5pxLxJchPo0MRJ/09yEXeh7VCf8cbYfIW/655ha61yM4Du5ogbq1P5BWeZMnT5YKhypRFZd9jsDBl6WIRQ5y/vx5eHl5ilnws3oW2L6hqfTNeC9iFTwYdAmSnxUFuwOSWDGeNX614zP1dbz+X8UvEnMvAI+v++TK45/+WgQHE7A+q2sOth7Ytm1bkc/6ywjQOQaH+mcChFYsJ6fa0GgM4VLXAjv/cJVuULmVXdMP+vvvOQeYYqJdjGSGqudQtOL4chHL70JGPeXySXe0aGIJaytznDt3tlh5xlVazzU4FCX9qYhYDRq4SP2l5k1KSTlR7YO85Sm/B0XOQaEQuKJnpMQNT+MeuQFIfseb4Hp0zRs+HqVRylKDnTt3SEfi/ytrlYqg9Hsq6axHdOLECTRkoKK5ETzdS+PgzmbvAxVzIP/nlzh1AcImnOJZZ7rsG7o370Pveu8elWBjbQIukrt370RsbKxEWBQXq1WuOYcKFK4SjMPauHEj6tVzktpX3h6lcfFk6/d5IG+ISBUdhG0K+itF5t7QfQkO1s5dPLueVGx0b2ENFxdnLFu2THqSFxcOkmdwqHFY4eHhmDp1qpSdtzA3FA4SftNX7OdvciV7l+9FMYT6WF7jmLJ6NxGnopTeIVmdV9C/8V3+OdJKzLm7tzVDrZqWcHD4BBs2/C4chABRF9Kius8zOPjCBAgH4c6dOwgJCZG2W6y7++vk2ngmCUC5k6ULegLf9vVU5ZfF3p5ztU1tQ1AYz/UmdQ4+P9NtWSGeUcIPbvqg75cfi4nfwcFevOUMJSnq4lW+wKECJD4+Hnv27IGjY01J52zSwBKXTrb5v6naThBwJWXeC2Vx7X1/qRMVdsUbl8944PCO5lg4szZGfv+JhF0Uh+xKeefIdtiwoiG0DwKxYFZ9ieBmFZvevXsXj85OBcHyuEoQIH369JGCABXLmUh1b66WHMTCWCnfxjX5Lqp4xBpSz8KDpMxm7D1/3LvsjQsnWuPAjhZYs+Qz/Dy6Brp0sEXVyqxNpSdlj7jKMp7pbTx7YdyT48HUWy4KOza6orajueieGo1GkuZo9i8I+npb18g35+CD03rFOH46CO3t7WCmMUKn9mXx6JpXvjyxhTGh+bkm7fsERNyjQOmDfvKgG1YsrIexw6ujd/eKYLOYShVNhHuyYoihYUmpQ8zaU+y7+OPQ6uIwzc8zvHP/ZUZgOPUPD3TvxJbPejA2NpKFkiElRVm0KhBwECAchJiYGEydOkXibeo5mSvhJUWwvKiIDKliEjsuUbaOeeCPq6c9sDm0AUYPry5cwb25FSpXNFbAYKiXBgSW8ixR4tWNBfO2r886//udI/wccn2KlDfO+eKXnxqgYjlTsHFNhQoVcO3aNdFJiypACgwcBAjjr5gkVb16dVhbGWHm5NpFTowgMJKigqQEDp2al060xoKZTnB3s0KtGmYoV1Ypk0NuQBCoW3owpP9eupQhbrFienjmxRHeFDjkHQvIW85nJjjuXPDDH2tbo1kTGxgb6cPExASLFy+WMj1F1XJVoODgILCC4qxZs1CqlCm+7FoJt863fWcVcxIJo1OfPg6SqhxRYf6SPnruL3fM/7UWWre0gqWFATQaPZGlDQ1Yv1YBRXriz+w7wcOat7ZljKB9rPT9e1Mg4H2oI1EniH0YgMd3/HDvohdunvXE1dOeuHm2rTTDZLkfikYcj7w8Gy1Xdy/64a+9vujXywGlLI1gYKCHVq1aid+DiXNcPIvaVqDgIPtkgbiTJ0/Czq4inGqZ4+getzwPel4mKrv/KIAIEkcliYYFmq/844mdm5pi5JBPUKsmw7AVMOQWCBkBhODQ1yuJdn5lpd9fhsWg80iU2b0rf+eqfuWUB74faAcXZwvhfOwV2KKpFXp0rY6Jo+tJfeQnN+ibyhs4OKaPrgfg+H4/rFnmBsca5iJiVqpUSRyDdBYXRdGqQMHBlYGKOZOjhg79DuZmBlj0m5OIEnldlXJCADk9R1bR8CApVnfpVBtsCG2E8SM+hXsLK1ntNKZ6YlmiUmkgXOJVvSEj4s/uGAFGxXzooE/wLJVYc/q8+T2PY07r2Igh9qhUwQSN61uif297rFniirN/eePRdT8l6SkfIhbvEf8wEDfO+ePYPn8c3OmD7p2rCqelYs5Cb9Q9SBdFDSAFDg6KVlwp1q9fi7JlSqFnlwqIDPOTFSy/k53b/3PiKC48exwklf4oNjFnevI4R+nqyv7rdFpyMzfTR51aH6BriC1+HGqPapVNRYTKjviz+53goOVqxsRaSIxSxLjcvkdez2do+YXjHvDx/AidOlTB0nlNcOaQp6zyTx/lPgMwo+fgGD+67ovzx/1xaJc31q9ohcnjPoOZRl9K9tjY2GD58uUibhc13aPAwcHVgX6PM2dOw82tJRzsP8DlU2++7q4AIyJIRBnK1Ed3tUDvHh+nJujoC2dg9fKyZYzwVc+KCF1UD2eOtMKdi23x6KYv+n1ZGdQxKBZlB4Csfic4jI30sODX2nieh5TUjAgyp8cSHgVh/fJGGD7YEdt+b4M7F3yhvR8gehbHJ6fXyeo8XodAi70fhHuX/HBivyeWzW8GH0+laj97jgQGBkoUN+miKOkdhQIO+j0iIiLw7aBBsC2rwcQfawiRZjXI+flNgECH3KMgaXgf+yAA4Xf9cGJfC0z88VPUr/chytsai5in0RiIJ5dt3vhcF463RsQdP/FqUzGnHhL/KBCLf3MWEy2V6ayIP7vfCA4WgV61wEm4Z0ERZU7GKyYsCAd2eODADk9E3ExNjy0gUOjen+9EkTUxXDFuRN0JwIEdrWFVSmm5bGamEe5BiaIocY8CB4e6MjCknZUT6zrXANsaPLruI6VkOJA52XQHX/ez7n85IVQ4nz4OBEWm25e9Jbd5wo810aj+hxJKz05D5WzLSoFsU1ND2FWzwvDBzrh93gfPmP/O8pzpCIZK88GdzVHe1ijfopUKjk2rGmbdPiDdM6R/prx8j7wThHPHAxB5m5XZC4ZT5OQ5noezj6A/hgysqVj5DPXRuHFjhIWFicFGpZF3fV9o4FD7fgQG+sHMzEAcZ5Fh/tLs/emTIKnYl35P73NihLJxMumR1gUDgcBz2DCeJS2v/dMGh3e3wIoFLhj+7Sdo2qg0ythoYFvWEi4uTggODsTw4UMxbtwYuLo6o2/vVjh2aBS0T76Rsja8Hq+ffsJ5/PpZD3QLsRWrS3bcIavfVXD8vrx+2vukv19hfKeJOvymPx7fCCxQMSonz8ox5fzt2twC1e3MUpVzY/z2228SsVtUFPNCAwfZJ2NrJk+ehFKW5qhSWYOfx9TE8oX1Ebq0AdYse33bGNoIf25qgv3bm+HkATdcOtkady60xcOr3rh70Us81Mf3tsTvqxrjl/G10bv7x3BtbAMrKw1KlTJD3bpO+PzzzzFu3DjJM6FJedmyJfi8mx9Wr/oOj8MW4Ll2BpKieki7gMwmmhwp6o4vpk2oIRObH71DdA5jPSybW+eN6hw0RHD1zmwByOzdC/L4/cs+0o+QpnFDQwM4ODjg8uXLIlpR9P6/5RxcHQiQK1euwMGhulSpMDc3RtkyJihna4xytkavbBRhqlQygYO9Bk6OZmhc3wLuzT+Er2dpBPp8BL+21vBwK40mDT9EdTvmLpvBysoCLVq4YujQIVi5ciWOHftLzMiUbanzzJ07F05ONfDr1M8RF82iaCuQpB2t9NDIgGOohMGVj/rHnxubwL5a/qxWAg4jPcyb7qiA4w2JN3yHN+1TUcdP3Sc8DMTOjc1Qz8kSRob0HRlh1KhRsmgWBd2j0DgHVwUChLoHS/qsXr0aw4cPR7t2QQIWGxtr2NhYwdq6FKysuFmiVCn2ebAQore2tkAZG0uULWsFW9vSKF/OGg4OdujcKQQ//TQemzZtxNmzZ8GGn48fP5aoYFpDOOi859GjR1GzZk2UsjTD+DEhiNeyJdkSJMf0yVFBAq64t8+3RYeAsjKxWYlOWf1GcNCUO/UnRyWf4w2BQyXQjPYi9tDETfH2UaDOppi9CSp6vXleRv/P6TGO4cOrPhjYpxosLRSvubOzs9ADQ43+bzmH+uIEiBq1Sz2EhMuVnWEmrObOWCxyF4pAe/fuxY4dO7B27VoRi3bu3CmdSRnte/v2bQEARTUVBOllV5Vb8Zo9e/aEgYGBdMntENwQ2tjlSImfhZTokBxPOKNvRw93kHDzrACQ1W8CDkM9jBlePdUJmD+CyylhZnaeWJWYqPQ4EJEMtb/kJTkmdy8q4iv1wthHtGwF5hscBBc74O7b5o5GDaykO5WlpSUmTJgg86/SyLu6L1TOob60ChCu6vSUciOBM+aGG0HDjasJiV/d+J0bf+N5/B+vQbClBwbvxd/4X+Yym5pSHCIrN4BD9XKIiViMpNjvs9Q10hMUDQaHdrJ4mXme/R00BdPb3ueLSnia6pRMf5/C/k4iJZeIuOWLf/5yx6qF9dD3i4oSTlLK0hCW5gay0dzt0coav4yrjZP7WhSIIk8wXvvHD0MG1pBe9yYmRggODhZun9EcqjTzLuzfCDje1IsSSFevXkWNGjUEGGx0b2ioD+o6d67NQFJ09xyJVCqxUrwIv+WHTu1tcx1wqHKTtNgqf9s3HltFUJA42Qnq0K4WmDymJlhGKbPYMXI5F+cPsWpRc9y5oOTi5Fe0oqn8zsUAuaaVpZGkUnt4eEg75swWOV16IYB0N93fCvtzsQEHB5D5JF999RWMjY1BYJBADfT1oDE1wPZNXfAiKrWTUg5lacrdNB0vn19XeoGTeFSiz82eAKnpoEHcE0XOV8FX2HuGzdDJOXmcEzq1ryQlXC0sDMHe5uSq6d+Hz0mDyfqVbrh8ygdJUTnP5MwKRGGXArFjkwc+sjaSTNEWLVqI3kFOnx33IIB4nrpld35BAqZYgIMDSLGLOoutLX0T+mlELDK/kR4mj6uFxMjgXEWeysor4dht8ZG1Yb4UcxtrQ6UT7OM31x0r8QkVYm8c2dkS65a3wNL5rqhS2QLlypUDG6OWLVtWLEgEigp2Y2M9zJzSCKcO+eYKHLTuhd/wQ9RtP3lPdgKLueuPiJt+OH/cBzs2e4JRCcwxb9asmWSNZgQOEj+PU5SmXnrjxg388ccf2LJli1ggeZy/FyQIMrtWsQAHdREq+V26dEkTp9TJFrFGvyTatrYRsYYWlNyu2AxHmfFzLeEe6nVzu2ey042zniL75/b++TmfAE980g7/HPXD7q1e8PRoguPHj+PJkydi9m7evLlwWvV9aFkbPrg2/jnqk+aAzcn96fS7dsYHE350QZcQO7QPqoxe3asL19qx2QPbN6ZyjizAoQKDeuOxY8fwxRdfSEahhYUFqMhTHIuKihI9NDOCLsjjxQIcHMw///wTTk5OaeKUOtkEB5XiiuWMpYRlXmz/DE+hDM4sQHIiXlO9fk73TJPdu6VZlm2Sc0KEuT1HuF9kO5w/7of9f3qhZw9v3L8fBq02Fqw5Nnr0aMnaU8ZJMTt/93Ut7P+zDaLu0sybs+hd3ifqThCWzfeAu5sTKlWyhoWFsSjhgb4VsWJhc0kLMDUxkiQoWihVUYnGGS5urMG8fv16tGzZEqWtrMQ3ZqYxhsbUEMbGhtBoTBEUFChhKFwQKTEUJBjSX6vIg4MDFBkZiW+//faVFVCXaDnxFGt2b26ap2qMBFRCeBCGDKgmopVeHsBBJXjkEPts2yTnlvhzcj51h+tnfXBwpzcmjPHHqZPHcOTIIfy+fg2CgwNgbm4qIT5Mba5SyQxeHpUwfLATNq5qjmv/eOPp4+x1j+cRwbh//UucPb0BJ44fwahRI8EqJBx75sl0DqkiQCGRs58HwaGa82nGZ0qtl1dbKQ7IPBBjY3241DUX52+Atw0+rmgiIfC8JgFNDkKApCfogvxepMFBNsxV58yZM7La6OoauuDgZ1b/GPm9vTTcyQlB6Z4jokkEI1ybo2IFk9cU2fT3yug7E54+rmiMA382l7gyWpF071GYnwkOcr49W70wqH8DDPy6I77p3wL9etXG99/UwaihjpgyvhYWzKyH0CWNsXGlK7asa46921rg8mkvMPSdY5DVM2rvByLsOv0XD5CQEIe7d++gVKlSwmHJbdWNYSQuLi4YMWKEbL169UL9+vUFSCYmxjA1MQTrnk0Y9akEkYZd8pLQoak/OUvjVkMDPbFGbtq0SXxmhamgF2lwkGuwXhadhubm5qJvZESYPMbsPo9WpcU0m91EZ0QEJOawy174undl4R65Fa0o2jGvI8DHBkf3tET848A3Et7Bd+WzUyle8FtTzJ7WRJKe9m9j7JoXwi774fENf+kLSCU67n4AEh4q9bjoG6Eukd148fdrZ7ywY8tQPHhwFVptFLZt2wJLS4s08ZPjZaDP8H0DiYVT4uE0sLQwkehpjUYfVSsZY1Dfytj/ZzNE3PIDC1yE3/LH9bN++OeIJ5o2KiVjz+61AwYMECdyYYpWRRoclFnpZR86dOgrFqqMAMLEpdo1zaTpCovNZQSArI6RAOIeBGDz2sYSgs+VMKP7ZHWMBMIEq8YNLLFjY1NoHyle6OyIL6vnyu43XpuF147v88bh3Qzg9EHcw0CJHWNwIoHDczLbsru++jtTZe9fCcafm9qhXUB91KxRGRpTozT9TF+/JJo1KoVB/arimz6VMahvFQwb9AlGDK6OIQOqYv6vzjhztBWe3PKV52N24alDXlg+3xV/7WmN+1d8MHiAnSxyLP3D8rM3b94UvaWwuEeRBgdlToaWMF5H1xyZEYGSmOkNnjKhFhKe5N5iRSKg7nH9bBt0Ci4j8VIZ3Se7Y3wOchA+y7gfPgXFBq7YNIUyzLyggcLr0Ql39UxAapi+kqqbn/twHPjMjJi+fsZDxJ77133w6JYfwsMC8eRGIPZuaYFuHStJTgy5NrfNqxuKeHf2r1a4c9Ub96774sENXzy86YsH133lt9OHPbF3mwcWz3WVOrx/rGkk83Xvsg/mTG8Ijam+FI3r2rWr1Ggm53gPjnSlXTgg9G2w5RZrJGUHDhItzZSfdyovk5kX4uB/uELOm+EklqvsgJDZ7+QgImYZ66GmgxlmT3HE+ePuEmLOfBau5uqKrq7Med0zsDDylp8AOy/vnP6+vEbEbT/M/KWORFCzP33VyiZSxogi57zpdaSayd2rXhK7tXVtY6n3xZpfD657I/y2H1YurIcR3zti8dzGCF3iirXLXLF4bhNMHlcPfb+0k8qRwf5lcHxvc6kuybG4ed4f82Y2EaWevhKKVbS2FRYwqNgXWc5BkYpBjMzdYCi06hHPjCB5nDFOnKQtaxsJ8aWf+Jx8pxx+5e/WaOteWgg8t7qH+nwKQEqKDM3iDo3qW2L0MHswp+X88VaKwzC1FXJ+iFo3YSwn75fVOeRsDMZcs7Q+gnzLYFC/Klg63wUzp9TBkG+qwd/LWoBiVcoQY4bb4cY5T8mJIZdk4CW5DcePYt2+bc0xZrgDunesgPYBZSUtoU/PjzFtYi0c2tFMqqYkpOplBMeV0wGYPqmhgMPc3EwsVrR2FaR1Kv21iiw4aKXi4LRt6ynlJ3MCDoo0lPlHDLaTelWc7KyIIaPf6ERkjvlvU2rB3Oz1EAyV+HOzJ1AokzPXvLqdBgHe1hg2qBrWLv0M1860kTTgjJ7lTR+jOHX6cCt8268qNqxqKMWzSfAPb/jgp1E14NGKtYKNpRAeO82ycIVbsw9Ro7oGOzc3lQr0KtAZlkOl+/zx1vhrb0sc29sS1896pgFI11lL3ejiST8MHVRH5u/jShWxcOFC8Y2kJ+iC/F5kwcEwgpjoaDg72aOtp1OOxCqVCOs5meOfo+5Ssie3BMbJpQWHId7V7UxhZJh7xTwj4CichOJWybTKKNWqGGPGREexJKlEldvnLajzeX8mL7H+1j+HW4kliQQeHx6EudOdwDJH5Bxrlrhg+7rGUlDim75VUKmiKXp0LoerZ9q8Eh3A65EjEAQvU6Nf5pGo78s9q9if/csXAT4VRDR2camH/fv3SwR2QYIh/bWKLDjoFT9//px4Y1cs7gMrK7McA8TMTA+TxihsXp2E3BAR/6N9GIDl850kwpWEnRHB5+cY/SJcffduc5Xgx7w8Z27eKatzee+kmGAsn++CO+fbCicjFyE4WEuYVkD6Se5d8RZxiCZYFpM7uLsFKpQzFj2EcVbkAFndJ7PfWI3x2N62cKzxgeSEMIyE3nQukOkJuiC/F1lw0L+xdctmhHRogiuXZqFHt+aSu5ETgqRiblvWCBdPtM6z4suQEsZcOTpo8hxSktWz0qPev9fHonu8TWCQYHl/KvU0Cas6DFd9hvN7tbbGrKm1EfuAv700CZMbzJlaR8SqE/tbCtfIy3vwP4+uB2LLOnfYVdUIODp27CgiNUXrggRD+msVWXDExWkxbdpkTP8lBDGRK7AudDCqV7dNs6tnRXgUXQiQvl98jKh7ShGCzFatzI5THODKyZYEUp8pD36PzJ6RnIig+2tPS/Gm54WoMnvuvB7nM+huTyWU3wWrFtUXfw1jsNTnJFd5cM0bbdxKY0CfKlKWKa9pt4wsvnXeH7/+0gjlbU1hbqbB5MmTRaQq7OjcIgsOBs4NGtQfm9Z/jQRtKB6GLcbX/dsK9yDxZ0Z4PC7yfckSsLI0xNK59cSOrk5sboiH/yERfNG1koCtIMQreTa9kujZtbyIJiS03DzTmziXBuxS/QAAIABJREFUHIJdrNYuqY/Iu0qpV93xexoRhEW/OaNRfQusX15frFN5fS4mal044YPePe1RytIYtrZlRN94H3iYzrehy/ZiY6Ph0aYVdm8fjMS4NUjUrsE/J39B5UofSvn7rMCh/kZnnIuzOU7sdxOlUHeCczqZLK+58w9XaTmcHSjV+2a1Z0V2PhedX6rPI6fP8qbOY82wo7tbIuyy92viEsfw8XUfMU2PG1Edj274vKKI5+oZo4IRcTsQh3a2ReuWNtBojFCtWlWJyi1M559KZ0WWc8TERKOmozNOHxuHF/Fr8CJ+LbRRK7Fu9bcyiHQKZreSk5glYrSDrdjkcxJHlH5yubI/vOYtNn8SdXb3zAoY/I2KOP0ej655p8nw6e/5tr/TM37ldGsRK3XN4QQGO+bOnuaMr7+qLCZe+jUoUuXlmXm9+1f8EbqEefyW0jGsf//+EpGrEnBh7os0OKpXr4xzJycgKX4tkhPWIVEbirjY1Rg62A/GRoY5cgwKQDR6+H5gNTGZUmTI7URS99i+oSnqOH6Qb3AQYAHeZRD9jjbWJLFnViyOxMy03B+HOog1j9753I6lej6vxXud+6stJo37TPQN5nPs2rWr0P0bKuCKNDgcqlfGzctzBBgEB7nHs9jVuHt9HoKDGkhxheycg1zp6TlnCuesybWlQgcnhps6UdntqZw/uemL77+pJk6q/IhXjEH6tn9V6cSU3X3f1u8ZjQ8XFabIblnTGA+v+0iSVF5Nt3wv3iMmLBAHdnjh885VodEYokqVKpK7w0IaKgEX5r5og8OhMm5eeQkOAoRcJC5qJY4eHI/GjarlWP8wNNSTBi+zp9SR6FsSfE4BwvPIPai70BtMsGUnPmX2Oz347A/CNmVvi/jzcl/2X794og3uUw95nPOxy+xeBNuNc35YvbgZmjQsLaIyo68ZFVHYSU4q4IodOAiQ53FrEBuxGH+s6yIKN4P8stMFuNozrJ3JTGN/+FRCG1SbfmYTqHuck8lQivEjq4tjMDPiz+44Q0hYwDrmQdEBBxcH+kFYSZ86WF5EU92xFK5xLwCnD/th0th6YiqnCffAgQOSP16YORwqMLgv2uCgWJWOcxAcyQlrkahdhoh732LlQrb/Nc7xak7/B1sm9O9VWSabHEFX6dSdxPSfKWMzIaqOo9ITLztAZgQU3r9iOSNE3vHLMedK/xxv+jvHhwsDgZFTbpvVM/Ia18/6Y9/2tugYXFESpPz9fcQrXtiOv2IDDirkVy7MTdM5FGAo4EiKX44X0YOlfzhjf+hxzgmx8hxyEbZC69KhDG5eyHlXKhIJza9//t4ktfFN7sUrZsvRgnZkZ4s0b3RWhFTcfiMw2PzmxAFfrF3eUrgGU2sXLJgvVqrCdvwVI3DY4eRfk5EUT0DobmuRHL8cSbFDpEhyzAN/TJtYU+J8GP2aHUj4O/UGAsTHozT2bm2Wo5WRE0uAsAZtp3ZKQlR290rPPUS8M9STfiOM38qNUsv7U1eKCfPDjfNtceeytyjHtC5RJ+Cz8Zx3GVBcXC79HSBtmwf2/VRSaO3t7XH48GHxir8pkarIi1VOzi44emAiXlARfwUc65DMdgOxQ4UYqDswTGTODCdUq5LzAgkkVJbOZ0zPvOlOuHWhbY6chUyIOrSzuUSq8hrpAZDVd4KJm2MNMxze2eI1J1tWhE0/DZ1uc6bVQYBPWQwd5ICFv9XHnj9a4PJJjzQTbFbXeJu/UVd5dN0fp4/4YVOoO8rbmogi3qdPH6mxRa5RmMlNulyjSIMjNjYGPj5tsW3zSLx4SiuVLud4FRxcLRn78/imL+bNdJaEJxJtdqs6fxeAGCndZtkZl1yESThZKZ2MB6Jpl33NWUEwu/tkBBZ2Y/28cwVxTnI1zY5o+Y6MhJ089lMwO69/7+pYubApTu73EKvPg6s+4schZ8nuWm/rdzbdvHDSD0f2+IC1rjh2dnZVsWrVKimk8SaBUaTBwdiqfv16Y/mSQUiMX5vmCEwTr+JXIFn7A5Kj2gsxkHjoVKINPnRJPdSobire6JwQrgoSEmwDFwssmOUs6Z5imckgYUq91/G9LdC6xYdSdSMn99EFCcU/1tqa8GN1eebsTMsE66kDbnBvboVZU+rh4om2uH/FT/pjMMRFDAu59N+8KZDIeIUrAYYnDvhh4eymsLFS+nm0bx8shRQKOzw9Pdco4uDQSq+/H4Z3kMBDOgDTgCEi1iokSxenDmkrJSeBBE3LClsvs5sUY5lySriqmMW6ud/0rYzHN3zlehkREeV7ruSL59aT8Pi8iFcEiLWVIWYzJPxR1vpHYkQ7bA5tjB0bmiLyrpKOyoSsqeNr4sD25q9k4WX0vG/zmOhptwNw6pAf9m33RoumjKMykNI+7CPIdOg3qYirQCmyplyGrC9cuACfOlTC1EldEfVoqYSPvARIKJK1Y5EU+XqzGnIQJuRcO+OB1i1LSywTQaK7cmf2mT4T+kMY/1S7pjkO/tkc0TRjPnnVjClAfBIkoky/L6tI0/qcglC9N89nrBVLic6Z6ogndzMvlEDOwkw9Kt6sZML7nzrcSmp1de5QGSf3uUt6L/WStwmE9Pfmc7Ki4pmj/ji6xwfjRn6GcmVNpVVBwwYNxHz7JiJwVUDo7ossOJjstHv3bikfaVvWHCOGB+Hmldk6yjnBMRHJUZ0zJQYmLDF7beigqmltlXNKwDyPgGLS1JSfHCX/maILJ1uXAAjEsIve8GpTOldcSgUI9+QgpqZ6GDbITrhCdnoDn4HPsmR2XQExy9l81dMeJ/e1Rsy9/Hds0n2//H6mseTGOV+cOOCPNcvc0ML1I4lKZkUZ9nSMjY19I6EiuqBQPxdZcDBN9tKlizAzYytfNqgxQe8v3XD9ylwkxlEHCUVy3C9Iju7+CrHqTibNpFxp7131wtK5znBt/KHERuUEIDyHG512zAthKZk/1jZC1F1/sWip9yEhs0PUiQMt0dL1wzzlfbA2LwHCQtbMP6E1LD0I1ftxT0AS9J6trMTaRrM0fSd9vvgEx/Z6IfymUm0xq2voXq+wPvP+D68F4ORBilNe6NfLXnoHshsX2xSwfd2biqNSAaG7L7LgoILGMvoEB4MLKdMTIB1DmuLksclIjAtFknYGUmJ7gt2FMptgTpDoIWH+OLyrBb7+qoo48EhQFKF0V/DMPvPetKww53v4d5/g5jlPPIsIEh8Fr8+NYtye7c3QyMVSUj1zq4Pw3rxHGzcrXDzZJtMynbwXS43+9ksdqQ+sAp3gIgfp8+UnOLrHG2GXfHNlJs5s/PJ6nM8ZeScQ//zlj6N7aUVskpYGy3KfrEfGBfBt6BoqQIosOBhGwE5OXGGU3I2S0sWJBb+auzpg3+4f8TxuPpJivsq2DyAnilyEsnrYVW9sXNlQ+uVR3leJKzNg8DjPIbGruRjMgFs6z1kUcjVHhAAkQHZvbSaV/Og/ySn41HvLAmCmj8lja0J7X8nZ1iVOeY8oxWqlVCV/2ZRGfUbqLz272mHvNk9cPZ0zv43uPQrkc1SwVJu/dMoftE7t2uIpDTVNTPSlX/nAgQOlZyB1jTdtvlWBwX2RBQdXFPZ0YPtmdo0l91AIQE8cR/VdKuPPzQMQ9+jLHIdhkLjoD6GV6epZD/T/sqKsvhSdSJjZAUUlQIads5BZoI81Th92k0JoBB4BwrTPiydbo1tIBVG0GS6SU5Dw+jyfPdnZ+DK9/4Pf2RSzjiNFzYxrain6i774QfZs9ZS+HWqLAb5/gRB/FtfhPSjKXj3jixP7/XB4tw+6dfxYuBrFqapVq+LEiRPi13iT3nBdUKifiyw4OHCUR9nXIX3FQwKFxFGnVlmsXuQqq2xuJp7nqoS8e7Mr/Lyswd4VuRGFSMh8Bgd7DRgGf+2cZ5p3nURMAG5Y2RBVq5iIPqFyh+z2BBL1B9az4jXU9+I+4o4fvh9oJ0XVsroO34NJVd06VcO2DR7S4uzJDaWWrnq9QgFJVLBwZ5b2PHnQH4d2sRhcPViYG8rYWliYY9q0aW88hkoFQ/p9kQUH2S1r5R46dCjD9gNCAMb6+LiiKSaNqYmwS96gLyCnk0+nGvMS4h4G4MFVbyxf4IKQdrZS7pK5H9kBpWQJHe+6uT5atbDCkjl1cfFUGxGvWDXxziUvNGloCfacoGhoaGgo7b1oqWHTT4Jed+PvDMIj6NjDgkUOqHzznei7WTKvHuyqmIgSnhU4CFy+A8v+B/pWwoqFrji+3xc3zvkjJuxl5fWCBAifkWVAmaNBYJBjTJ3IiGlT0aXI/Tt16iSNNLnovU1xSgVJkQUHX4Ay6cWLF9G4ceNMC7qRCOiT6Pflxzh5UCmkQPNhbiZefAhPaHL0xMqFn6Fn5/KwLWMk/g6KKVzNSXCZEaRwEUNF1AoJKisguXvRCxtXNlDaHvMZzc3x5Zdfivly+vTpmDJlCsaOHYshQ4aAedPffPONtFogAbEEPwl74cy6SqFlNtb5k0lBlgKc7J6FY9K4gRVq1TSHqak+XBtbYerE+mIxOn/cF/evBqT5SnK6mGQ1nrwGa15dOU2TLcNDfDF7WmM411ae18BAH3Z2du+EEq4Cg/siDQ7qHTT3seVZZl2dSLgkYEbYurewwvplDV4RR7KaVPU3Ti4BwlWaoszti17Yu8UVo4fZwbm2uYgo5CRZEaX6HBRn6Jnns7CtF61iJHY2rr9+/brI2rTS0CtMGz8ribMHyaNHj0RJZcIP+6ybGOvDqdYHYDVAyvC//VJbavdm58w0MNBDk0alsXxBM8z7tYn06SPQWLazU4dKWLWoGY7t85XatFG3XxZqU8ciN3t13J7cDMSF4y+BwSY67HduaqIPfT09UJyaPXu2dIvlnL4LXKPIg4N6BwmIRYUpcmSVLy6KqImetB5jMQWGcz99EihEn5vVkeeK5em+vwQXXj/vid+XN4CHm5VwKKa5UuxRFO2SSN8/kAAikGitoqddryStXIZg+y/2udM1XZJI+I7qRk5JoPTt21c8yDTNTp9QC9rHgVg0y1nuT4sZry9bai92laPx3pUqakSc2bvNCzv/8MTXX9VQntdAEbPK2xpj2He1JXf7xH4fXDrli5iwADEdqyHvHAN1U8GifueeIin3jOm68re3ZPQd2+eHw3sUk23FCqYKMPQ5VkbSO56LwNv0aehyDPVzkeYcJB4OKCtSVK5cOVPRSpc4CBImPrHk//5tzaXKh4hZWfhCVALQ3atEQKA8C1dKg1484Y4FM53h6W6NKpWMYWVpIPI0CVV9BnWvy2XI9fj87HOXFYHwfWnCnj9/vsQdkQvQAcnEqMN7WogXvlnjD/FZvQ8lSYggVe+jgtLPu5zEL7Ht8uTxn4kybGJimKa3CXCN9KTgxKSxn4Ftkv/a64vzx/3FN8KWaPS+871p/iZHlU2O0TPPmLJAXDnlKbFS9Hwf26u0eR77Q11YWBgKJ+d9uChQJCZXfFshIioQMtoXeXBwUC9fvoyAgAAx6arEl9meREJRhis8g/oGfPUx9m1r9jIlNgszpC441M8CEnrBHweJ55qmWiY7XTnVBhtWfIYxP3yKriHl0dbdSiJ6Hew0YubVBQyVca6gFK2oQ2UlWvA3nhMYGCjKOc3GFK+YfThlfA0R2ToEfYxh3zmhR5fqEsTXqL6VFCnwdC+L9SvcsHa5m3ijK1XQiNk7ODgIixYtgqurq4COJlVjiTowkP+PHu6ElQtdsXurpyju54754MrfXrh93g93Lyrb7Qt+uHLaT5x69HiTU9AatWVdG0z7uSF82lYUIBKwfF9rayu0a9dO3oWhQOSO74o4pQKlSIODL8FBpTgybNgw6UiaGSgyOk75nAUNWDFk+Ld2kqvBan7Po14XG1Qw5GSvcBWltD691bzm9TPuOLijOdYua4AuIeXTwuVVUZAEwzbCo0aNytIzzPelTkLuYW1tDX19WrlKolljS/z6syO+H1gV3h62CGn3CebNdMXW9R5Yv9IdG0PdsW5FK0we95n8TvOpiYmRAOLs2bNS1YP+BbYxdnR0FLBSH6DyTv2mnpOFOA9HD6+D+bOaYONqd+zY7IkDO7zTNopqW9e3QehSN8ye3gRDv3VEgG8lVKygEbDxWWmVYomdn376Sdotk1PynVSCfJf2RR4cXG1ILL///jscHBxeE18yAoV6TBU1uJpR1GL4R88u5bFtfRNp7UV/BAk9J4BIf47CURTPOxV5BjmK+fZiWwzqV1m4FwFhYWEhKylBoopXW7dulXfKaCXlMXKPe/fuoVu3btK4XhWFaMal7tO/dzXhHD+PbYB5vzbFxNF10SWkMpo2tkbFchrp8U0jQN26dcUUTmcqr8mQHPZ0p9I/fvx4+Z2F1Hgux4jGBEsLQzjYf4DGDUrDveVHAjRvT1twI2dq3sQGLvU+hF3VD2BuRg5ErqgvYCP4v//+exGDGfpDYPC+Gb3nuwCSIg8ODiIn9erVq/D09JSVlESnK7aoYMhqT2sSxS1atchJAnw+kn4UrAebQHlaJ1YqPRBy+p2K6tljreDtUTrVSmUE5ivQp0Fg8Ln5uWbNmuBqTv0io1WVxMR3vnHjBlq1aiX/UXwg+sIJWaCuamUN7Kt9IPFK9CWQUEngRoYKoTo5OWH79u0SZUDRVCVGFSRUkPkMy5cvh7+/P6ysrNJ6hZPjUE9hz3BT01c3HufvxsY8x1jAy3uxPd2RI0cE1FzMeM93FRTqWBQLcHCgufoNHfo9Avzqo0wZjaxWqsiSFSh0f1M5CZV2EhL9I9WqaKR33cXjrRFH61ZkENj0PqeA0D2PiuuuP1zFMUnwMmhyz5492LBhg45CrDgDGzZsiLt37wpA1MnS3RM0BA9FSjaPJPGamiqrPMUXXv/VTU8WDq7ebdu2xcmTJ8VsnNHKrXInjitXdxZSo8mcwYAjR45Eo0aNYGVVSrge/TPs0ads5mKW5W9t2rhj4sSJAojHjx/L/BDQvB+f/V0HBse6WICDg01v+d69u9GoYXVcODsTo0e1Ry3H8qJwkkhyCxT+h5yEOom5ub5Yb9r5lcH8X+vg+D438XXQ50HLjRpcqAuE9J8pZlG8Cl3kIiIcr0/C2rJlCx48eCArNGV9Ejg5CIFDIwNbSXOlzYigVA4SHR0tiu26desk1ozE36JFCyHiBg0ayJ7f2Z547dq1UqWcfpScrN68L88jYfM/BAoByWemYeD48eM4duyYbKdOnRJfDcHAc2hmp7KtgqIoAEJ3ASoW4OCgcxIjI8MREOCFjetHICp8OfbvGYtvBrSFXbWPZNUkQMgddLlFTj/zf/RLMK6JBQzYBXX21DrYsdkVV854SDkcse/rKPO6+go/MxRlyrgaqebdEgIOxoaRgAgAmqTZfJ6WKyquFLGCgoKwY8cO+T2jVV6dTP5GTsLrxMfH4cmTx7hx47oQ8PXr18SByPs8f56oA7R/08Sp//7j5+y2/1LP/1dWfo4576u7vQRxdtfK6Hf1+un3GZ2b0TH+L6PjeTtWLMBBAiFASBShq1cipIMrwh8skZq5D+8uxPYtIzB8WDvY232U51wKgoirvSpy0RRMsUtpFGmDAV9VxpzpTji4wxUPr3qL15qxXAQMuQjL8DP+aeg3VUVko3OQIs53330nIgcJjIRNs/TMmTNF9CH3IHdxcXGR0BGu1JmtwuoCweskJSXixfMEPE+MQ2KiVvYvnscjKSkBKcmMW0rEf/8+x3//sW1YMv77Nwn//fsi9RiPZ7ZRN6Flif95gX//fS7X+jclEWmbem1eX66Zeu1Mr8nzUs+Va5OQdYk8OYvn0X1Ovgufjc+oezzvn4sNODiglI8fPnwAP183/LllpKTMsrFNQsxq3L+1AHt2DsEPgz8VgqZOQUKXuKgSeeMmKmDo7WYaK5tDNnAxl66qvbpXxNJ5Lvj7gJvUkaW+8ui2n5QZVfNEyBlq164togqJmxtXf4ou586dw5o1a8QbzrijMmXKwNvbG5MmTcLt27dFjCQQXq7U6mr7L/5NjkZS3By8iJ+HxLg5r23P4+aA2wvtbPybdBfJCTuRpP1NjmV2/ov4OUiKW4j//n2GlMTjSIqbi+dxzLrM+Pov4udKuaSUp1vwIvV+vGem52uXISXpbiqBEyAp+C8lWuqP8d5Z/jd+DpLj1+G/pMtITliIrM7P6P7pj8n4aOcUD51DV7Tg6hsaugLdu7ZAbPgKKdnDyiSJ2tWIj1yIyLAvcOFEG4wexjZaBkoIRw4z/jISwUSJTw0JIdgoehF45CzM6SBgyF06BpfD5HGO8PawEVCKmGZoCBsbG7G0qUROgJDoVRGJsjuVYeom9OW4ubnB2dkZvXv3Fl8HZX7qAvyfuuImv7iPyNsd8OvkBpg01vm1bfI4Z0ybUBeXTvohOfEfxEdOxb6trTBtgstr5/L/U8Y7Y/WipkgI/wL/pWjxIm4t9m1rg1/G18vw/Kk/1cPm0GZ4FjMKz7XzsXW9G34Z7wzeN6PnmTX5M1w90xnP4w8rXEw4QAr+S76L2xc7Y/HsRpjyU90M/8vjf25ojkTtRPz3Yh/O/tUO82Y0kGfO6F45Ofa/9q48vqZrbd/v16IoSoUY26KUxnBRpKiZikjEPLaU9rZcVao3SATRiqFzqkUNFUOoaKvGq0pVEUMlgoYkwsl85vmc/Pd8v2ftrOTkdGdSvvrIH+u39jlnn3P2Xvt91ju/7/rP/ZFxffSDBQ4SGJXH1NQbmDghCAd/DBMt0ZSKJMwr/waW3HDob4UILzY7FK1Z7ge/djXQ0KeKsMnTMXineoknePgbQgSrQvOs4kepWZNm1CIzMxVvilZ06NGgwOuXQOcs74cckfoCMx8JluzsbKFDEBQEkQSWBIfdmorUy8PxTPOaIqGK2X+eg74KRhUf3PMSHOazyL29HJGL2qGRb7Vi58nvMJdl4thm0GW8gnyXVvRAWbWsExr5PqZ6Pk3JC+a2gSE7FC7zDnwQ0QHNm1YTm4X8Tc+5xdPVEbu5D0x5uwtEuwLxyHFehK+0bVNT5NN4fkce87/iYvxhyP4K+fYj2B0zAF071y7xfPm90uZBfZ/ElYtDHyxwSIIiEcXGbkP4wvHQpK2HyxxbUNNqOxyGT+DMe03oAYwPMmaORErCUGz+sgsmjm0semrTSnU3AOIJFrVjGggIEIpLJHhyDE9wlHQsRTD1z92wW1Jx/VKgaDCp9r8UJcnZ9m7vCZvpDLJuRiJsfmsRvq52PrkhLXVZN6fA7dLCnLcVy8Pao3r1R1WNG9wA5sxsAW3mIjit+0XlRZZh5Wah9vvcNCLD2kGfswH51FnIOdx2uKzHELOhD9g3ns9E7bvceOKPDYYhdx/y7Uexc0t/tG2jtGRWO7+s9/jcmed/4dSgBw8cJBwqrX/8cQULQ2fi0P7FouOTUi50u1JDV78IrrxxwvtNgLDeE82yTGo6uq8PPohoh0ljGwmrlNRN7hVYCBB69unh53UXiUdSh6jofO/AkV1hcITBZf8FJw6PQfeudUpsJERz+SsTGiPv9ifIdxmEwk9l36L9BtGr/YXpWw1YfCY+9avhZlIwzMZE5Dt+xs5vBhSAQx1M5QXHxQcRHJJ70HK1fds3iFw6DdmajbCJioisikiArIVLN72wVCitSSLcgznkmaxSHozLZwZj3+6eWB3pJ3ZN7rQECncwWq04+HDuBmgoWo0dO1Y45ujMpKjkqWxXDDD3CBzBDVFxcITDZU/A9YTZeHmgYilUI04aKAb3fwIZN5bB7bwt9A5av3SaFYgI7SB8TWp5KnwGgwfUR+7NKbBZNMh3HMfObwZWgkNdpFB2WRITCSwrMwOhoe/g29j5HtUQ2Z4gBg79+3DkFC/ZIwDCHhsFlUiMt0JExUKms7KgwcYvOmLyuKYi8pUxQxIoag+8Iu8xdIRmWyYx9ezZE2vXrhVhFtQ1qEN5A4X3x1Fc15Ac5n4CR4Qgdl3GcowObio2F7V14Tr6d62Fy+fmwGm7AjdFKqcZmakz8drkVsX0NM/v83sMGM1LfxcOexbyHScqwVEaMORnJCgSV1JSIgIC+iJXs0m0Q1M6z24TAHHqZsOlHfMnkEjvtgIWJRzdkD4C2ptByEoNEq0I9u/ugYjQ1ujtXxesnVun9qMiLosyMHdCJjtRFJBcRpiMCziNN7eRugfjo8hFGG3bsmVL4dGOiYkRHIU+jqSkJBFScv36dXHM9/6sp9xn4HAZYNF9gUXvdRD1b7kOngTOY65TR78aOH3sVTis8cJn4nQakXZ1AgKGNClIHCv+PeboV63yP6Kqoz57A5zO3EpwSOIvz8zd1WQyInbnNsyZHYiMW18L/YNt0cQwbipUziUgSpoJFEX0UpJ7mOBkzBgp6uReiR+CH7/thY9WtMfrU58SlQ27daklWh1QEWWlQiYl0WlI8Yxh4N4AIZFIkDRt2hS+vr5o3LgxmjVrJkK82cCFAXyMa2KAJXPL6QshZym+FvcZONxG2I1bRS/xOrWVwt3e4OAGwnXat3sYbMYjwlHpsKYi8exwPN28pmqOPteP3Pvgnl4w60/C7dJXgqM4IUhRouTZbreBRaejoiIRuWQCUpK/FOZd0ezGuBVOOrfyZpTIPdTA4i1+MYebBduo1LPCOfO6WaT61yP9cGBPL2zf+ALWRXfBp6s7IWpZe4SFtsGcWS3Q4hnGURW3jDF0hMUVmPrL0BLOTETasmWL8HWww1FycrJwFErdpPia3F/gyHeb4LAcwS+Hx6Chj3pvRq5BvbpVsGGtP6yG7+BymmAznceZn15GQ5/qJWwk/wAL1/320yBYTWnIdxvKBAf/hxydumNpg5VdEs4OfvCsVcUJRQkroeiRlZWBpUsW4K1/vYxvd81HjmYj7Calpq7D8DGcrIxYwVRZNeDwPYXLKByGoe5mWsQyRwpOY9AoKbXsNLX2o05/kqcZeDhnzhzhz6BDk4PiIQc9OPmrAAARaElEQVR9IVIHIVf0vlfl9f0HDpf9EtKS3gQzD0mU3pyDXIBRBksX+cGk3Q6nQw+rfi9+2NkfT9at9qfzFS77D4wc7ovE+AmwWbUgCEvTOfgfTEVYtvA5fLC4LVZEtFMdURHtsOHzzsK8/0CFj6gTiwIQi8WM5ORreHv2W+jQ/ikEBvwTO2LeQWb6etiMW+EwfAqn9nW4tEX9PEoi/vK8XyiGMb6qWJ71SNGugGm1t64FYnSwbzGCIedgqIjM5yCw5aACrq6Ee3LO+w8ctEDpMxege9d6wvLkDQ5J7HNntYI243M47Jmw6KIRvaaLKCytdj65wH/mtEba1UVw2PUirKU0cPD8EcMaIOXySORpNkGXtRW6rG2qw5CzHWbtjgefc0jAkMC4C1+8eAHjx49Dndo10LxZPXTt8hQ++3gq0lOiYTFsgDVnJqxZrCRY3JJVHkBU9BxG6V4+PViExPPhcXejU5AAmTVrluAWvG55D+Wb7zdwmJHvNsKii8Lbb7YRfUrUiJ3vTZvYFClJYbBbU2DOm495s1qLJC2187le0as7I/fWBjgdRsV5WIq1iuePGeGLjNRX4LBr4Hblwe0ylDoeCs4hiUoChLtyQEAAWM2bxQRq1awmcj8WhYbg3KlIaG7MhylrIpx5YxVR6y6JW97gYcMbilmrI9uKUHjFoqV4zRmJm5iYqKJwe3IJteP7ERwWWLQbse3r3iVyAgIgZFgDXDr9BmzmJBhzpmNI/yfFuqiBg0aNmA3dYNQegtNpUSKMywGOzLSpcDpyBGCFN15EERd45WVMV8H8UIGDcjoBwjil+Ph4kf7JXZoAYXpn7VqPoaFPDQQFtsdnHwbjyA9DkXRuqPB1lDepyRsApb2m6EWfCkuEjhresLDoAomBolVUVJTgdiXrF3cODnqlv9v+Isy6LdDcmIOF854VljRVQmT4yB05ASOQ7ybnsMJqPI6zx4KFR1vtP/he3151ceJwECzGU9CmTxCF5nid3udzE2EN4v/uGwiL8SJcThK3o1Sdg5yDITDpV8dBl70NxtzdMOXFwar/Dk7zMeFbUULei9b0oQKHJwdhqAY5yLRp04oVhKNYw12JPenatKqFiWOaICK0DbZu6IazP/eH5uowpZssk5ryRouUWalfqM3e4FA7h1auuG090Lol20Ar9nyGswcGBgrLFAEtdY2ygVIOzlFgBl22qB0O7O2H3TG9MGlMIxEg6U2IfC1iq/4SOOxwWG8g68ZkNPKt8Sdil//5bIsaiNvZGybtFqQmjBTVGNUUeHrL2afk4m9TYbdehdvFXI6ywdHBryYiQtsiaokfVi/riNWRnXB8/0BY8pbA7TIpeSoil0QByEMJDslBGNXKEpysiMGkIgJD8TUovT74YOiXoH+iedPH0Nv/CYwa3gCvTmiCJQtaY9eWHjh56CWk/D4UeWnBohCDmWVDyRFYQpQj12sUfMZzeC6LN7Dx5qkj/RAS6CO4B4mFXnNyD/ozWA2Ejj/qTAQ1LVYEiwR78blscFC3IYGxLGlHv1poVxD1qha/dFfAkU8vvx6mnOkYOqjxn8zXEhwMQFz3RVfoMubj+P7+QhejQ1V+Lmd6xvkMUq4shsN+E24ma5UBDt4zzbh00tasSVGakkJVLA/3gy5zCZxOxnQV9xk9lOCQxMQdmSbStLQ0rFy5UuRWkCgJEPkgOCuKMiv0FYSfV1cKwjFPg70w2H6594t1MHTQk5j1RnNEhrUVDsEtX72AHRu7Y89Wf+zc1B3bv+6G9Z93xscrOoC79oypTwuHYS//OujSqZZwFEoC5TUwVZYAYf5Gv379RPQu8ziYTsvqILx+eS9Fc9ngKLonxTtNkYOD9+l53/L4r3EO6gNO4dgzZ8/DgnntBSfi/8nflzM3o+Xh7aC5PhLrPusq9A25HvIczjxv7sxnkHv7a7jpGXdzHUrnHJ7fl8e8hrD5zyI7PVyYjyvB4cE2yUG4A9N/wDB3lqFh1p3kIHIROZNwFJAUpMsWFGAQyU1VFKcSPbbkNKyBxRI/5DgszlBs1HxEfMZzWK2QD5pDxml5Eiivo2WLpzBv7tui8gezHJU8cJsAhrqIVT5wyHuT9yVfq813Axxulw1240Zs/vJFsXurET25Gau9vP1mS5GPwf+VYqbndTG/5OOoDtDn7ld0GqFAV4JDZacsUqCKds+KvUciI0BYLYMeaNaC8iy25vlgSjv2Bg8JgERfOArirUgEym6tvlPL/+A5z7WuhX1xEcjNOg2jIR1WqxFOJ4skMI+bohWdgcWH3ZJSmM8hiZ9Epvyn/O+imdfDa5VDXi+Jk4OApxk0J72i+RxUyBXOwWBCp/kXnDwSKDYP/oe8TznLxqDcNCj+8Ho9Nwt5Hp153+3sB6P+WFH+RyXnqBjRVxQsBAnleopZCxcuBOOZuHvLh/J/PZM4WIpz5ow2uHZxOhzGr+G2HYXbfh5uRwryXVlK/gMJUAwWSXDBZk7G9YRANG5UXfgVfOpXxTPNHwMz7lg5hclAHZ6vKVogMAasV486Qrwb2OcJUdN3xDAfjB/lK8bkcY3w2uRmwpqVd1vJBCx/slMROERRBqcGSedDxLXQI36n6/litzo4/fMkmI3nC4pEyMzBikXlcn0rxSoPUaoswEg9hJW/4+LiRGkchpNTB/DWRe704ap9T+E6StNN7tRBQ31E7BCJqEaNKhgV1Byh8/wQu2UgTh6ZjOsJ85GbvgSm7FUwZX8IU/ZHMGV/BlNONPQZy6H5Iwib13fDhrVdhKVt11Z/7NrcA1vXvYBNa7tgY3RnESYRvdoPn0b54cP3/bAioi3C33sWkYvaIm5rN/x6qJ9or8CWDQvmtsJfAwez+8xIvToFIwIalOgpV1sb7/eGDqyPtCvvwmpOLrAwkXNWilX3RKzyBgw5CC1CrALCsHD2qWMoORVkNX3E++F5vmZotRRtFABQvCmutxAA1FdYq3fhvBY4sKen6EJFgqQ+QnGHM3UY2veZxjm4fwMED2uMUUFNMDq4WcFojtHBzTEyqDFChjfE8AAfBAx5UpQfHTakvmhRMLhfPQx4qR76934CfXo+IbjGi91qw79rbUyd0ARbv3oBh+N64/NVHTB2RCNhbGD+N1OIc29NETnkd8Y5CA4rMlLC8N7bLUVnKs91Ku8xd/tXJzaHLiMKdmumR7WSssHh/Sy4rtwMcioV8oqJZAQIuQhNp6woyHpSzNaj/6G8opbkBnygfBCU30nkUnEnsU8c2wTRqzvgzNG+og1CXloQlNyRYJw9MRCD+tUrtO4ov1GkxFerxtq43uNR8R5ldv5XSYNyfc0aj4iiB6HvtMTJg33x/Y4emDapKZo1roY6tR4Vuga/z3Opc1Q8E9BTrFLywrUZG0UDUdbuLS8g5HlcT15L1NJOMOkYNqIv0Lf4bMsGh+dzoOWR98acnNxbiyutVd4cojyvCRKGhtNKxK5KrCXF0pqsTevjUwudOjRDl85N0LVzHXTtUqtw0Lw7eEA9jBvVBNOnNMG8f7fCyqXPY9PazvhxV3dcODEAN5OGITMlSOSEsK84c9npMaejkI1hDLdGCBMwe3rwwUoiqehMRZffp8+gQf2q4O+NCvLBtvXdkJo4A9cTJ2NJaGv41KsiLGn0SktLEQmSx3fuIVcUcsVo4ILVcBT7YnujXt1qqsp2affGe2DllLhtQ2DV74HTSced3PRKBwfvg89oxRI/fLziBXwS1R1rlnfD4b1DYMj+AC6nsdIJWLSYclHLN0tOQoWdFd1Xr16JDyJn49vYUCRcWIa8WzORlz4eeTcVYtemB0PHHI/bI6DXMDEqRFQ6Yfi6qNieza6tChCk19zbm87C0+ztETq3pZDR+YBLIx61z/gdEhRzFOjAXLKgDdZ9+k+sWtoWv58cALvpJDLTIkT1EbZR4/ne/3N3wMF1dsNuvYFTR4egU/s6JVqj1O6D7xEcLCl09udXYTefhstF4MnnVzo4+F12A07/YxT02Z/DlPMlTLnrYNFtgN14AG7xW8Udqw+1E7BoYeUClz57AoT6CFNwN29ej21bo7B317u4cnE+dJrZMGomwawJgSVzlOj4xALSDDIkVyDBS1B4g8H7NUHDgg+/nxog2qipmT89CYlETSLgeazp29u/Dv41rRkW/6eNqBQ/c8bTohojnZfsarV/dy/YTb8h6+bSQnB4/p48vnvgyBce7SsXJgt9idfpDUT5n2ozxUq2k0u78o6ojsgKJUXPsGxwjBnREJqUV2CzZsLp0ApRip5xt4vxX3QkFs+RqQRH4c5TOjCKHoJyHp2HVNpNRgOS/7iCkycOYteONYjZOB23kiNg14bDoX0T9pwxIrKXIfByeIOgtNcECLkQW6dRRvYkGgGGAkCQcKjYd2xfC7NmPIWNX3TG2jUd8eZrzRA4pD7aP/+4EJn4GyR2gqdCdavuOLZKilXKujkdmchMCcdbM1qK+1Fz8nneo+cxwTQq2BdZ6eGi8mJxj3Z5wOGLzLRpcDp0Hv4Rcgv1UQmOOwQHuQgBQqXdYbfBYjEhLy8TqSmXEbtjLRaGhuDEkQXQatbAqouALXe6kkiVO0oUdShv1iHBodOMEF5jzwhVAoPOOxK7b8OqmPPWM/h+hz8unw9B6tUwJJ0bhLatawgLlwBEleIFH2gu/jvA4XbqYdFtQkRoe6Hwk9N5AqC0Y97HB4vbI/fWqgLPuGf4THnBMQUOK2tcXUO+M6XUUQmOOwRHSZzEamUPcT1ysm/j8KG9WL7s34j+5HXEn1qFjNRo5KZHQqd5D8aMN2HJnARbzkRYskbDmsXwdQYrjoM9Z5zo+2HJHA29ZgxOHOyHNq1qiN2eBPJE7apo2rg6pk1qhdjNLyEtcRyyb74Lfc5uWEw3YDZcwvWEABEeTgB5iy7crf8ucNBZ6bYewhcf+cOnXlVhxSsNEJ6f0QL3/c6XxH0WVkYsfH5lgyPw5fpIOB2AlEsjkJY4GmmJY1WH5tp4GG5PeXgyAb2J+V68Jjcp4igO2GwWmM0GJCcnYcf2LZg+/VW8Hzkdm9a/g9hts3H04CKc/CkM8b8uRMK5UFy+sAAJ8e/g99Nv4+zJuTh6YCbWrAjBiz0aCQsTlerJ455D7JaRSL40G9rbK2HUHoDdmi6iXkV7AZcNNvONwvART+KSx38rOPIdcDvi8cPuAHT0e1zoR/K6ypqrV38EV8+PglF3qiCC1lOBLh0c3CBEKkJ19jVkNZgSRt2qGDKgAa79PqwSHPcCJPxNqbw7HHbYrASJEXq9Fqkpf+C/R35EdPQahIfNw6y3xmPenCCEvtsfi97rjfDQl7A4tC/endMHofMGYklYCKI/mY69uxch4fzHyL69F3rdBZhNGbDbdGB9J6XfBsOtFdnZM7ZKjeD+XnA44XZcwZnj0zCwbz2hJ6ldo/d7JG4GJWanToLF5NmqQOqKpYODvyeMFeWoPtKnZ10kxA+pBMe9Aofa70rA0LEo/SaJCecQf+Ywfj2xCyePx+DULzGI/207Ll2IQ9r1o8jLiYfJcA02SzacDrYaYOMZytqeu6YkEM5lR+X+veBwiSqIN6+GCx8QxURvIKi9JmFPHNMMebffgN2W62GlkvdeNjjUftf7PYKQEQgPbK1cNcK8X96TAKGlizW1rFaW3WH5HRMsFqMYVgv76Jlgs5lht7MdsRUupx3uwkhcAqO42bHo/u5/cLBYtD7rU8x45RnhzfcmUO/XJFhaqlZE+EGX8b5ibSrUNSrBobJTyEWpnIuAwbW438FBULtEM6HVy5XSO/TgewPC8zXBQQ4Tu7E7DLm74HIybMT7uVdyDpVF8V6kh/31/Q6OAgCbfkTc9iFo2vgxYZL2BIP3McHB5LHzJwbCajyrOO0qwfGwE/qd3P//B3Dkw2E9g4unpuG5Vo8X5s17g0K+po70QpfauHJhmKJviAY33mtz9znH/wIdKsXaeQaP9wAAAABJRU5ErkJggg==;" parent="1" vertex="1">
          <mxGeometry x="110" y="450" width="82.88" height="72.46" as="geometry" />
        </mxCell>
        <mxCell id="wJXbaJ3XNHEv-SyZ_-ga-3" value="" style="shape=image;verticalLabelPosition=bottom;labelBackgroundColor=#ffffff;verticalAlign=top;aspect=fixed;imageAspect=0;image=data:image/png,iVBORw0KGgoAAAANSUhEUgAAANsAAACtCAYAAAA5+AqcAAAgAElEQVR4AeydZ3hU5drvSTAJBAMoAoqKikgTEamCgoh00isiVUCUjtT0Hgi9Fws2EEUsdAhppIcQElpCS6/Taybjp9+5nmfA7d5nyz7nvFv263vmw32tmUmyZuVZ9//53321sFqt2MW+BnYd+PN1oIV9kf/8RbavsX2NhQ7YwWZndrtl85B0wA62h7TQdnazs5sdbHaw2ZntIemAHWwPaaHtzGZnNjvY7GCzM9tD0gE72B7SQtuZzc5sdrDZwWZntoekA3awPaSFtjObndnsYLODzc5sD0kH7GB7SAttZzY7s9nBZgebndkekg7YwfaQFtrObHZms4PNDjY7sz0kHbCD7SEttJ3Z7MxmB5sdbHZme0g6YAfbQ1poO7PZmc0ONjvY7Mz2kHTADraHtNB2ZrMzmx1sdrDZme0h6YAdbA9poe3MZmc2O9jsYLMz20PSATvYHtJC25nNzmx2sNnBZme2h6QDdrA9pIW2M5ud2exgs4PNzmwPSQfsYHtIC21nNjuz2cFmB5ud2R6SDtjB9pAW2s5sdmazg80ONjuzPSQdsIPtIS20ndnszGYHmx1sdmZ7SDpgB9tDWmg7s9mZzQ42O9jszPaQdMAOtoe00HZmszObHWx2sNmZ7SHpgB1sD2mh7cxmZzY72OxgszPbQ9IBO9ge0kLbmc3ObHaw2cFmZ7aHpAN2sD2khbYzm53Z7GCzg83ObA9JB+xge0gLbWc2O7PZwWYHm53ZHpIO/ClgMxqNNDU1/eFNNJusNJmtWCxWrM3/uzQ3N8u/N5vNWCyWPzyPnS3sbPFX0oE/BWz/bAEEgIQI8EiQ/cFu8qCf/bPz2j+zA+6vogN/CtgEq/2jCJYymUwI1ru/OM3NVkymJgwGkxSj0YzZLMBoZ7P7a2Q//s/ZTP4UsP0rsNxnOAHAf24qCrDZpLnZgtGoR6tVo9NpMBh0v4HVroj/cxTx/4d7+aeA7V8tnGA9Abj7vydeC9bT6XSo1Wqam400W81YrcLv+2diV7L7a2c//nV04U8BmwCPAJQwGfV6/d+Zjjbl+Btz3Wewvz82YW7SozeoMZp0vwFPfqZXSaCK7/gjsSvgX0cB/3+6V38K2P7ZAgrwGQwGtFotKpUSvV6HMBF/DzJhIqrVKpSqOqpryqiouC1fWyXLCaazyR+B7P7n/+z77Z/ZAfif1oE/BWwCVPf9NgGAhoYGioqKOHnyJAcPHqSi4g5KVf1v7FVSepXvj3xLSMhq3nsviOFvDGHEiNfx8fUgPHwtJ0/9IsEnmK252fCHjGYHmx1Q/2lAPej7/61gu6/sOq2KJrMt6ihC+Q0NarZu201oRCTpmZlYm1QYtUqSz57lvYBAHmvTkvZuj/DO6MdZtuxV9m99k/3bRpEYMxyfyU/Q5SknRo/qynff7UCrrUBn0mGxWqmrV93z6dRoNXexWrWY1TosFhFEMdBsNUpT1Ob3mWlu1tNsNfzGkH/zBwXD2hXVvgZ/rg7828B2H2jiaLVq0GptzCVuoEqlYceundwpu43JrOfYTz/iMWkiT3V0I9DnDX74LoTioljKK9diMIWhqp2HVrmAxrrFqBRhFBevISz0Ddwnd2Phh5OorLtJfUMDdXUamRS3NAkA6SWImgw2f08ASTChiGIK89RiEb8jgi1/M0ftYPtzlcsO3r9f338L2H4PNBvYVGj1VRIAIrKYlZVBTk62DHasT4zD0cGZ6VODuJDyLcqGE6iV21EqF6PRTUWl9eVXy7tYLUFotP6oVIGYmhaiVoZz8EsfJo9/nIApw7hztxiT0YpO3YxKYZZ5OnFzTUZbZFOYsmazqGQxodGopC8o/EabAtwH3P1Ip53Z7MD4e2D8GevxXwbb74Fmqw4RiquloaFKhvBFAMRk1GNtbiJ4zTK6dunAV1/torQ0BWvzJayWb6ivXUpDfQAqlScKhTtqpQe11ZNQqz3RGrypbfTAoJ+JWrGIzLQAps/uhbdvP86dPobVYsWot5V+KVVazMIcbL5XCnYvVydAZzIJZrMiSsWEeWkTs4x02gI1f/5i/xk30H7Ov859+y+B7Z8BTQCu+Z7C63Vm1Co1Rp2a7w99Soe2j3BgfwIGfQpa3XGM+gOYjQmYDQsx6adg1vtiNfugqnPnV4sfZqM3BoM3TRYfKqsmcvvWJH61zCMlfQbLl/Vl6KD27Nwec880bJJ+nEprkGATVSnCjBS+m7lJey99IExaLRbL/UCL0ZbTk1HRv85NswPsr3mv/p/A9nuQidf3GU2YaULU6ibq6tRoNDrSkk+z8KMA3nrzWWbNGMBPP6zlypU1NNRHYTJGYtIvxKCeTpM+CJPaB1WtO6oaD5qNAejVXlRWTKSxwR2LxQ+j0ZfaOneqq6dxpWg6CdGDGNCvDWvX+FBSkopGWy+BrtOK8i8dJrMGrb4WjbbmXmDEgkYtwKeXgBN+nEygN1v+LsluV+a/pjL/d79v/2Ww/SPQBNiMZmGqWVm0eDbPv9CaDz4YRnzCOL79Poj0jPncKplFVdksTPoP+NUyn18t01DWe6CsF4wWgEbpRV2VYLEgfrW8h0btRUODO00WP8l0KoUXtZW+3CmZzk9H3Jk48XEmTHyG2zdzfvPdRCDkblkxP/78Gd8c2smFzNPU1Qs/0orJrLsHOJGiEPL3FS3/3W+a/fr+mpvBfwls94EmjvdZTRxvld8mLGIVvV/pyO49C1GqD6PV76ZOEczt8g9RVs9GWTMNVYMAlg9qtZf00zRKD4RodV4YDD4oGj0QwDIbA9CovVEqPfjV4o9a4YFe5YOq/l2aTcFcLlyMp0cnFi/y5UpRkUyU1zdUsnN3HP0GPM1TT7cmIGgsR388JAMlAmx/Dzg72OwA/vMB3OJvYXERobP5NxZrE43qBixWgxSlph6L1YzGoMJiFSaXVeavhC8kghH11WqKCm5wMTubn458waRR79DzxVacPbeIqqr1VFfuJC76TYICOrEu8WXST4/gxtWxmM3eksW0Sl9qqyZhUPtgUk0n/+xo8s+PxKjyQ6/zprHRA5POG2XtZKwmH4z1NtBZzX40KvzQ69eQmraSDh2d2LBpJTUKDSdOf0H/AY+yddM0igu3ExM3gpf6unL1+hXJbiJKKXw3s0XUYor8m9kWPLFYaTYbsDaZsDZbMFtsvqBgarFWItAjAioPlj8uJftHE/w/8f73wBKF4OK92CTFUWycGqsVnfhMpkmE36uXJrnOrEPTZMBsbcYo1sjahKVJj8koSuosMjhltFr/ZdHBf+J//v13/v7//2evf/+7/87XLe6XS4mKeqFAIkxeU1dNs8hTCZ/G2oTBpKNBcc8f0otInjATmyi9Wcy69bHMn7cA94lePPPUk7R1a0m3Z9z4ZM8cDMa9qFTrSUwcLIEWEdaDX469TWWpJ/U1k6VJKFjKpPNDo/RErfDk9rUJfLnnVeorPCWbafUiQOJHY6M7ZoO3DJxYTX6o692pr3NHrXmXsrIFpKSuZfXqQEaMeJWI6FUMHtqOdQljST6zjNTzH5Ka9hHPdXNh/749sq1Hdhw06TGa1BiMGtlZINIGYvMw6dQ0GUQE1YrBZMRoNsn/WQK0yfQvgGbz//6dN+nffa77CiZqV++DTXx2v/2pXqmSNa0Wk/7exmOUm4xYD/F7IuIrdaBZFC4IsDZhajLKz012sP3hZiPNSIVC9Xdd02KXsogd3GqluqZOHg1G23uVWs/3R39h/OSxODg7MuqdgUx5149P9u9jz55tDH29D5/tmUez+RAKRRgFhVPZuKkvWza/QlqaO6W3ArHop6DXeGE0eKNWemIx+dFk8pVgK7r4DmW3J9LcNIWqWg9UGj+aLTNQqYQp6Utl5UTqpT8XiM7gx+WiCXy4sCvtH3uEJzo60b3HU7w96kmO/jiTfXtf56fvR2MxRHL3zlICA55h2MD+RIRFkhAXT3R0JFFREcTGRRMVG0dcwkYSN+5kTUgEa0MjCAmPIj5hPQUFBb/t+rW11X95sAnwCgZTqVS/ge369etERkayceNGvtn/Gd98eoAv9n7GlsStJMZtYMeW3ezetpc92/exeftudu7Zy48//kCzRQCuSaZW9CYzaqOo1PnrMPv9jef3xz/r+luoVGq5g0tzsF4jxxXYqi4MKJUq+bPamkZ5LCwsYsGCBTi3fgTfoPF8/9N2bldk0Gyt525ZEYFBY1ixcipm/SeYjeupqJrDga8G8PMvw0lOGc2VK+5o9dMx6nwkk5n0vvK1QeeN2eiDeF95ZyIarS91DSK5vYLyu0s49PVYzp6cRG31VEymKWjVXjKQUlntzp2yAI7+6M6sWX14/PFHmDnTl6uFUeTnTeX0iTdQ1AShU87gZulUvjkQSKsWLXB1ceVRVzdaODjh0NIZF7fHcGzthoPzPXFxw9G1PQ4tW+Pq6saR777HarG1BEmW+4ubkQJooqVJFIWLozAht27diqurK25ubrRu0QLnFk64tnkcx9btcXBuj6NrRxxc2uHq1gkHZ1ccWrow+p2xVFdWUFcrAk8WTKLx9y/AbH8WmP7VeSWzie7o+6Az6M1UVlbIGyHQXlvTIH20r77+HAcnB9o95sz59ENojCIQUYJKU0CDopCVK4LwC+zL5aJPqa1aQFXV+6hUs/j64EAKL4+htHQipTcnoFLbTMaa8skoa70x6/1kcMRk8MFq8Uer8kap9aG8IoDczA9YMGso7Vs58taQtpw8Ng5z0ywZJGlo9KC61hOVeg4lN5aSkhLKksXvEBI8BbMuGmXDdOprPairmITV/C6N9VP5ZPfbvPR0G5yEMjm7SDD1GzqaReGJhG7/iohPjxK67wdC935L9N5veP2dyfR/bRAlV66jV2nQ6Qxo9CJd8Nf32YTJKEAnWqDEfV66dCkt5Lo409rZhadf6Inf/JUs3vIFaz75mZBPf2bF5gMkfPoDU2cv4NHHOrN+4xa5Ces1agk2YSE1KoQP/N+b2f5T19fi2rUrZGSmolI3kpefxbLlC5kxfarcsQTbqVVKdu/eTGtXR4KmjODW3bNYm7PRGs9y5+4RrNarhK6dQoBvbwyGn7A2H6S2+l3UymlcuTqB3Ny30en90ep80WpF5NGbZrM/Ny6P41rBBPRKG9gEs5mN4rUnZksgNbXvsXzRCwx5uS1PtmnJU+0eYfP6vpSUTKahzh2jwVeWc126OJ4d2/oza/pTrF09mIULX+HmNX9+tUyXoFQ1uKNVeqFSBJGTMYuBfd1o49qKNm5uks3eCfqI7T/nsiOplE2pt4lPusmnGSXsOZFF94EjmTjBC6NKT7PB9Dd/5X8A2O77aqKsrb6+nokTJ0qwCXYTbP9Mv0Es3vENiak32VqgYG+Rii3J1zh0qQLPKXNwdG3H8ZPnpPvR3GSWwSShL2LMxX9Kmf9Pv1dsMg+S/9Pz/N/+Xoudu7Zy5+5VLl5KY+iwPtIPW7liCdeuXMZo0HLixBFc2zgSt/4DDJZsTM2pGC0HsDYfQ636kb27FuA+rjvnTkXya/OXNKrXUl8vgPWuBFpF2SSZjC6vmIhW6yXZS+TPspNGk/zz26hq/SWzmY3CpBQ+nAeld8ZLM/KzT1/js72jObDXg+iQ3qSeH019gwj5i2hkELdKx5OTOZqzJ0azY9tATh73JzqqDxbT+9y9M4Fmkwio+KNTivMGciEtCI+Jz0qGdnBuiYOLG5M+iGB/TgOJWQpisrVE5xvYfuE2YQdO4Ni6EyuWh2DRmGk22KJ2KoPwSf76zCYURTCaOKamptKlSxcJNsFuwkwcMj6QuGMXiblQx+rkGmKzVYQdu8K2lJu89OobdO87iLKqenkOGTgRa2JuwqATVTn/vZntQUATP/uzrr/FlSsFnDx9hHfGDiJx02qWr3yXQQNe5vKlbDLTk+jV82n27AlHqUpHZzqDtukoGn0CtXWJZF4Ix2vC86Sc2Iqy9hAmw3rqFHNQa/zQagMpvzNJKr1UeJ0tIFJfOxmjxo8zR0fw85cjUFQGyLyZzX/zRpiTGr03ZksAd6vcSc8cTVraGGprBVO9LytIdA0CbFPQKry5fW0yRw8PJT87kIbaFezbN4DqKhuoRZJcRjs1vigU/mRnvcvECZ1wdnHE2a01jm6d8F+9g8+LzURe0LAyQ0/wJTOxp4tZvPsHHFt15Mj3J7CojZhVIuxvRW36V0D7827Wv0sJ7kcdxfkE4A4dOiR9tZYtW9K2bVscHdowLnAhn+Y2kpBr5OMkBesumYk4cYfEU6U4tuqAZ+AslJom25pI395Ck0FELf/7h/7/Y2Crqi5m1qxx7Nm7mhMnNtO9R2vpIyUdP4r3pPF4THoTkz4PtfITzPowWfVRW/4+5beWs2bZq6xcMBKj5hx6zU4JNE3TFBRKT5RKT1RKL9QqbzQab7Q6b3R6bwxGX9RKX44fH0lE2BAqqmfLYIeichIWvRd6pQ96pSe6e6JXeSFF44Ve5yXPoap3x2oWpmIgilpPqsrcqa/2406pJ9mZozFaRFGzN8pGT8mUVosvOmMQhYVzmRrUWwZJHJxb4fLcq0QdKyAqo57YAiOrUxRE5er5PKeOt99bjdsTvblSWCoVSKXVYDCaEfWeJpl/vNcpYLHSZLDSpLfIomihvCJPJQIFohvdaNGjszahszbLz5o0Im8nAgl/LP8KVEZrIxajHoPKJDsf6nUq+R1aYc79bhanuAYhJrOVJrFJNFlk/tBoMaLWqzE1m9DodcyaOw+HlrZgkYOTCy0cXPkoZhcbMiqIuWpm1UUza9JUbMlWs2z3ORycndm2Zw8mqwWDSYy9sPl9Amii0NvGdA84WjUypyuuTeTlRLpAiHivUpkoVxrkewlcUzMWtZbme0C2jToUa//HIs4l0hP3UxTinshrEmsj8qjSSrGgsxowWs2y7UvkT80WEw06pS2tcT+98f9wtF1bE4q6anmfxHuNRkOL2robDBr0DGfO7OWLA8F4effk850bWblwDm8M6sORwxvRa0/RbNmFSvEhWvU01IqF3Lz2MZNGP0b6mQRM2sNodeHcLvPFZHlXAk2CTeUlq0M02ntgM/hgMPpIsKWljWf50j7cKpuO2eSPps4ds0gHqH0xKD0lwATgfgObzluCTav3kmzVbPTDahLVJN7U13jSUOdD+V0Pii6Pxdjkj1JpA6lR5yWT58L8zLwwlSC/521ga+nCs0MmkHj+JnGZSqLzTIRmqInJM7Dr/DWGec/nue6D+PnocUpuXOPajWIuXS6ktOQ2BYV5FBUVcq34OjeulHCjuISSKze4ee0at0uvUnzlMrdLrnLnahGX8i+QX5xH/rVCbpWVU3LlJiXXrv6d3LhSjJDrxTYpvlrMgySvOI96pRqNupkmixVdcxO16lrKKsq5evkmGSlJZKSmkJGRRXZ2Prl5heTk5MnPUpLOcLngIhdzc8jOuMDZk6fw9vDCrU1bXFu1wcnBGQendqzYdZgtFxtZk6tlzUUzkdlatqTVErB6Ny7OTqxfF8/dWyVcLy6iIDdbXvu14iuyI//Gtes8SKorSim9cYWrV69y5UYpl4qucrHgMnfulGExN6EVoBWblVZHY2UVFaU3uXXlOsXFNyi+dosb168+UC5fLUJKcRHFxUXymoqLirhaXCzlbkkZpbfvUHD9CheLCym8lMfV4iIuC7ldSlFR8b8Q2znF9IF/JiV37lB65668h0qVaHC2otZqaGG1qhk//jX27Q8hKnIq788ZzuolH/Bke2fWfhyEtTmPmuqNqNUfU1cXIIMSGt0KPt8/ltCVo2io/Ba1Mg61Zg519T6YDEGoRIJa5SlbZDQar7+xmgCbwQet2o8rxYHMmt6Vy8UBGHS+GBo9JdjMOj8MKgGye0BTe8mCZFFJIphNgE0A0KjxxqT3kakDvdpblnXV17hTUT5JBk9UDR5YtD5YDd5oVZ5UVnhx+qQX7hM708ZJ7OKujJq2jD259SRka4nM0hOVrScuz8SSPT/yeO8ROLbqxCv9hjHg9WEMfGM4XXv2YtDQN+nVdwC9XxlAn36DeXXAMAYMGs6AgYN55ZW+9O7zEkMG9WVIv96MHNiPPt2fo3f/PnTv/yp9Bg2nZ58h9Os36Dd55ZVB3Je+fQcipEf/wQ+UZ/u+ymivqcxZFMbXh0+QciGddeujZUPuc0+9IKOtLVs6IFjKwam1LVQvwvXitVNrWjgI9nLBxcWNtm07SSYTbObq+jjOzm15rNdwoo5ks6lQz7I0BeGFZuJyVGw7f5vhAcvkZvVqz168PewNXnvlNXr3eoV+rw2kT78BvPTyK/9S+vUbQPceL/Nir370GTCU3q8Opme/1xg5+m2mT5/Gz6eOceLMCT7Zs4tFc+cxfvQ7vNZ/KN37DKJ7v+F07/3qA6VH/wH0fNUmvV4dgJR+A+h9T/oNeJOXBw3l5UGDefnV/gx4tT/9+/an36Ch9Bsxkh79BjxQfjvn/XP/w/G5VwbyfN/+PNurL6MmTCJu/UYKLxfRwmRScPTIPmbMGMOsWSMZMvQJFs+bzrCBz1KQsxez/gAN9csxGeeg1fmhUnrQqFpIyJo+fPXpAgyqH1AqP+ZO+WQZtFDXe/8GNLXGE43WBhCdwdYuI1pm9LoAystmExTwJOfOj8Oo90Pf4CnNSJPOF6PGC4OQ+0BTe6HTeKETYBN1k+Ko8pS/YzX70mzylbk3EVwROTiZx1N4YDX4SAALs7O+JpCj309m+FA3HnVujUPLNsyN3Mtnl3XEZaoJTlERlWUkJsvAkq9T6Oe3lN6jptJzmBcvvD6ObiMn0Ln/m/R404MXB0/mhcGTeH7QZF4c6s5LwyfzwqBRdO7Vj/Zdu+Hs2grHe7mqTk8+y5ue/oye8SFvTV3CSP+lvBX40W8yMvBD7suIgPlIeXchIx4gb09bzECPObTvPpzHn3uV517swVMdH8e5pRMuziLK2oYnXuzDgHG+jJr6EW9OWcBQ3w943W8ubwZ9xNjpS5k4eyXjZizjnfeW8KafuJ7FjApaxjCfD/Fcs5PY87eJKzCwMlNFVKGZhKx6tp4s5qXhfjg5tKGF46O0cGxPu6f60LXfSF4YNIYXhozlxdfH0m3ouAfLwPH0GOpJ92HuPDtoPM8NGku3waPp3Ls/Lh2foku3LvQb0Jfnn+8qc6EtHFrj6NqBDt2H8HT/MXQbMumB0nXIWP5RnhsylvvS9dUxdOw9mEefegEHJ1ccHVrj5vYEPQa9wctjJ/Hs4LEPlH889z++f2HYeLq/OZ5nB7xJy/ZdcHTryNsTJtFCra7nZmkugYFvER/3EZ/sC2HpgumsWemLVnWIuprVNJnmo1H5IliqyexDbeNsjnw/idlTu1N9dy+/WiKorPLApA+gomSiVPj74BBsJABm0NsCJEbBRvpAqqrmMDWoC99+NxyzMRBNrQdWow9GjZA/AJvGS4LXpLdFLQXghD8met8EOPVqTxmBFCAVJqhF64WmwZ2Gag8aq+ewd9dYundrhbNYYNfOhH92in2XtESmKVl5roGITD0RGRoi0upY8m0hUT9eJ+6nYmJPXCP6ZDFRx4uIPHKJ9cdKiPulhJhjN4g9UUL8qRLijhUQ8k0SH+87yusegTi6dcHhkY6MnbKIzT9lsz+vio0pFWxKriXxQoWU9enl3Jd1aWXcl41pNTxIEn4qYNPpUhbvOS7ZuVXbzrL7XbDT48++jOfHCczf+i3rjl9mV3Yd27Pr2Zhazaa0Gvk6LvkWQjZkVkvZmqtgc46CDZn1bMlREHHqOlEXaoksMLA2T09YtoZN2fXEHEzFqXM/WjzyNF1emYjPgg0Ef5ZC/M/FRP9cRNQvBcSfKiLuePEDJfrIFRJP3WXdyduEHSki9lgxm05fYeWnx/FYkYDrY49Jv9BB5EKd3eg+8C2mLksg/PMzxBzJJe74tQdKzPEiHiQhB5JZsuM7vD4Mpl2X3rRwdKPPgFGs2naAdSfSiD5e/EB50LnFzzaeKiT2aAabjueyaPMBXh7liaNLG1pYRX1bs5qffvyC6VMn4zH5dfr07siWzTMwGfbxq2UVqgY/GmrdZUW+UG6Ndhplt+cz1b8TCRFvoFPG8KtlGXlZbyPKrQxqbwwab8lARgGyeyJAYtL5oNf5U1nxPrNndOPzA4MxaPzR1nrSrPdGrxK/I9jJBrj7PptWZWMz0b0tIpaSxVSeNBt9ZMOpUe0pzU8BWGFWSmZUeaKsdaemzJsrhXNYuOA1WdYlTMjOvYew8VgBW3KUhGWoWZGiICRTJ/22NZlaIjP1JGaZ2JRrIrHATFSOlrhcPeFJdcSkKIlOUxOdpSc230RCgZn1eQbWZTQQl1xB+MEzvDxhDo5ufQhatYvt6ZXsKDISntxIRLKGmAL9bxKVr+M3ydMSlaclJsf4QNmUpmBjjoYtFxXEHM2k75sekmkc2z3PpPlhrEurkdcSn6kmWvwvGToZbRWvY7O0ROSoWJVSQ3yhmZgCI3GXzARfULMiqYGwTD1RWfWEZiqIuGRiTa5ehv535DbwftwXOLbuytPDpjAl/CviT5WxPkNDQraBdXkm4nN1xGYpiEp9sIQnK4lM0RKRapO4bD2bC4xszFEQl3yH+WtiadXheRxcOjBg/FSWbPiGhF8K2JReS3x6/b88f1ymCiGxWTaJyVIR/TvZnKth7yU1m05cxn3WahxaPcMw9zlsOHmR3Vfr5ZqJtfojEed7oCSXE3riOltz6tmbU0X0wbN0GzSSFrJq2yAqAAzkZaeQknSC3r3bcz4pBo0qHmXDDGorhInoL30lVZ0HOn0ADTUz+OnwJNxHP8bPh9+jrHQJ3349kBtXbdX7Amwib/b3QBOf+UiWLL/7PvPn9uTAF0Opq/akSXU/MOKN6TdmE+ATLGXrDhB9bmrhr+mF32cDn/gOGVhRemIS4NMIM1UA2sZ+IoBy64Y/B7/y4rUBovTIEQfnNgz2mM7OtFx6yBsAACAASURBVFvEZzYQnm0gONtIaK6RiDw9kZfMNh8uVUdEqo41KSrC8oxEZBuIzTay9nwNwRcUBOfoCbloJDjXQGi2UFId67L17Mi4g9eqbTh1GcaCbT+yPvkO6/IUrEmpkcAWwYb7EpGl4b6EZ6oQIgI1D5L1OSaWna1mVVo1W3OreHfFBhzdXmTi3HB2pFWw9lwNa5LqWJsqzmcgKtdEVI6JsDQla5NqJLhWJtWwvkgEPvTy5wJkwWkaQjN0hGTUEJqrJDhfz5psFaFpDWy+UMfImaF06DGSpftPsiWtgnVZSpaerGJVqoYosWZ5YhPREZVjeKDEFZqJvGgiQlzXRZME+OqkWiLTFGwpNJLw+Wmcnx7MI08OZEHit+xJr2RdWi0xOVp5H6Jy9DxIpHWSoSE8U0vYPQnN0iIlW8vHKSq5ce69qCZ0/2navfAW4+ZGE3m6mBVppXINxDr8kdw/5x8dI7L0xF8ysz7fSNTZu2w7X8Iw71k2sImwp2wdMZm4nH+R9k84cenSVkyGeGoq/BB+VLPeh6pb4zEofVEqRIX+FMpLFrHsgx58NKMHMSH9+ebzweg1szGofCSz/SPYBNCEmahSeiPA9tEHvTn07QjulE7AagxEVTdZsqJZe9+M9EanvA82ATgBIBvYZMDknrloUHrJCKZRBFkaPTGY/KS5qVK4Y9D5c60ogKiI4bIKRtQ7CtNk4tzV7MutkmH/yAIzEYVmwgWDXTITXaglNKWO6FQVESkqViU3EnPZzKrkOhLyTYSlVxGWoyDsoobV+VpWZCr5OFVBWIaSuGwd2zNuMm/rYTr0m0Ts4Ww2ptxkXU41kZm1xOVrSczRsj5b85usy1ZxXxKyVERkKh8oYal6eb1RV8xsyK/ng/gvaPXkQMIOpLA1TyWVMjpXLyOskTlGqXCRmUoZ5NhwUcPmS0bWnipjs8idna8jJk1JYo6JxFwTMWlqQnPqiSzUsTJLwZosFXF5OhKSyugxfh5vBS5na9o19l5uIDKtkqVnKwm/aGJtto5lSeVE5yuIytI+UEKzlQRnK4koMBJbZJagW32+jrCUOjbka9n83UWeGTKV/t4f82lmPV9cMbPmXBWrLqhZI+6RYM8HSEy2HiHRYiMRwMzVy41AbAaR+XrCis0EZ+tZn9FI3Hd5dOrnTVDoZ2y6pCC4sFFuQGIT+iMR53uQhOaZCMkxyfzk2lNVHLndhNeCCBGNNMs2E6OxkeZmNUVFGbz0iislt7ejVcegV07HKkqjGt1RVE+mWe8vmUf4ZHUNIne1lEH92xDg/SQN9fPQmXwkC5rU3ihq3Gmsdpc1irW17jSKUL7ZF61lLkXXZuHn/QQ/fTeG8juekq0Ee6qq3THrvWjS27oAqmsnkXdpNMeOD+f6LT+aLLOoU3tRr/aiTuWB3uKDRueFxeyDsm6yzL81qTxpUvtQfsePa9cWsmGTB88862wLWji44tjuaeYkfMqGrGqpiGsy9Sw7VSFNwK3JN0k4cZWtKXeIO17EluTb7Mupk0fxWeLpEraeucLGlFvsvW6WO9jCEzWsvaCRzBGTrmT/yTqmLN/JK2OD2Ho8lYgfzhP2Uw7hR3PYdv4acadziDt1ibiTV6TPF3vi5r3jNeJOFhOddIV1ydcI/jaDkIOZ7MyqZ7dQyiwlqzJUBGeZCL9oZvnZm2zNrmLMvHX0nbSchHMVROYoWJ1vlOZfXIGZNSfK2ZytIDH5NpHH8og6ls3GE0WEHylg/blKYn+5RtzRAmJ/zGPtD5eJzVAQm9JIfJGZhek61uYZiLtQS9jhC7j1GcPcHUeIyyonMr+OVblKwi6ZWXteQUJKLZ/m17Mj9SqbM24Rfeoy8UlX2JVXSczpyyScF//TdbbnlLHu+BX25Gskk4XnmoguFP+bidgLehJSlcQdKsDlhdFMizrEhtQGgs9rSLxuZm2qMIsVJOQa2F9iJvyXG2w+c4vPsqvYnXabT/Nr2JJWysaUEjafucrelLtsSalg40U1y1NqWJ1jYkWmibVZJlam1ZCQV07wwVTavDCZ0P2FbMwzsCK3BgGWsEwTUSl6Es4rifmllM3JFezIqCbqRBHbk26zM72azanCB79J4tkiNmdXEZ9vYlmaiQ2CsXNNhOWZpLWz/swdJs5eLcAmatmMmIyiEdTI3VvX6PysM5eLN1JVtQRVvb9MMjdpvLCIyg6dL1a9PzUVk2hQBnD1+mzem9qZE8dmUFE2TVZ+VJVNkFX9oppfdFeLPJsYb/CrZTYG/QzUurUkJ81g8fxunPhpEiXXJ9FQN1mCRV0jWNNWjlVRPpFmSyDpWW9x69Z8Dh0cx+HvRlNd9yGmpmXojHMxGKZjbpomBwb9aplJQ7U3mjp/VHXTuXH1fXbuGE+/fq64tHLErc3jODm64fZcX1bt+4mE9CpWpjSy6oKO2Fwd27IamLn+IP3dZ9DfYyYvj58qX3d/y4/eY4Pk++fe8KTvhGmMfD+M4KNFbLpsluZGRJZRBlciUxXyJo98b5nsHOjafxDtu7/K04PH07H3CNp1fY3OfQfQ+eXBdOoznE69R9Kpz6h7MoJOfYbRvttAHntxCF1eHkX3Yf6Mmh3OioNZJBZqCc5WsCJVb1PQjCriz5bSZ9Iixn6wkQ2pdYRk1BJaYGbhiTIik+vZkalk/rbj9J44l/Z9RvJE3xE81X8ET/QbTcf+E2nf6y0ee+l1OvcfzRMD3QmIP0hMch0ROSZCi8yE5BmISa5g0e5jtOn1NmsOphKRVk5soY7VuRoJ/vgsLbuzFASG7uK5UT70Gesnpd/EIAZ5z6D/5Hd5eVwAr06awgtvTmJI4FLmbP2ByKQyovMM8n8JF/5vppqopBqWbD1JxwEBBH+VRWK6gsgsE6FZJsIu6IjLaiDhzA081+6kn/d8Bnu9LyO4fcf602OUN70m+NPPcwY9RwXxypgZDPFfzrQtPxKeWkPsJTPh2SZWphuIyFOy6VIN09d9jVt3T7b8UkViroHlWVWEZxuJzzEQfbqcsYu28uKo6XR/K4ieYwPp5zmNF4ZNZqjfB7zx7hJeGuNLr7G+jPkogpU/XGb7dTORySpptgtTOSZLTcLx67zuMRvZqS3Ld+49AfTGlRt07NiO1PQY6uo/lBFGUdFhVAqw+chwvK5emHa+NFvmkH8xiHfebk/hxaXU1sxEIQqNLf4YBYOZfNA3+aHVB1B+N4j8jEDOHQ9ialBnAryeYPXiHqSf86Cm2ksO9BHNo02qwHuzR2ZTXj5ZzpGsrX+PrPSFdHvGmcfdWhLo25WE2DEc/jaI/JwPycuZzu3S+dwpmUtZ6Vwu5c7h6wMT+Wh+b57v6kxLJwcZgXR5pCOtnLrQ7U1PYo9mEZNSJYMiazN0bLxkZlt6JS97zpd5qS4v9qLzcz2kiNfPdH8Zx1ZtaNW2o0z6tny8J74h+4lLa5BKIHyjmDyTDEDEn8yix+iJOLq44OraRuaxnJ07yDKo1i3dcG7pIMP0zg6tcXZwxdmhzT0R71vxhLMbro6tcXFwk+F1x3YvMWnlVtblVrPsXCmrMvRE5QuFaCD8x0LaverF+4k/si61johMBeuumYnN0bIxrY7lu0/i8tRAHNt05fEuL/FElxd5+rnneeLZbraWopZtaOXqRpvHO+Po9hRLdnxLQpqC1ckK4q6bJfMnnC/n3fBPadffg3Unr8lgQ0SujjXZOps5daoMjyVbaNmhJ85dXqSFg7OUlk6tZItSG7e28r1LK1ecnEUYvzOD/D4i6ngxUVkNRBeaCM/RklCgI/jUTbyW7KHnhEXsTKkkLqWRhEtmlp2zmejRSbeZ+L7YyDrart/J1u4jiqdFZYtja1d5n0RktoVjOxycn+I1vyWsS6mUYIpK1bM6w0RsgZZNeRUMnxNO1+Fz+TTTRHSagpW5DYSk15KY3UDsT/m0e+kNWZ7m2q4zIjrq2KoVrm6utu9yFS1ZImLqglOn5/FevYP1qQpWnqwmPFNPtAicZWuI+i6fLn1G0EK0WGg0RluZj8VK2c0aXn3lTb45tAiN9iO0am9MIkKo8pYMJ5s+Za7Lm5rKQC5mzcN/UieOHxVlVxE0Kn1Qan1pVHmj1geiUk/n8iVfdm8bzIczuuI/oTO7tw5h/87hpJ3xofiyO7dvjae6ehKX8kdz/MhQcrJFA+m7aPXzqKjzQ6X7iLzsCJ7v1IZWDi5SWV/u2QGPyS8zaNCjeHs+y5yZPXGf0EGas8OHt6d791bMmTsBP//xuLi0xsVZVEh0lso7atZKNifdICqllnXFZsKy9MSk1hF9JJf2vUexbNFCFHW1WIwGRPuIxWRkz66dMlks23McXHB4pD2TPooj4vgtQpIVhGRoEGZblPCNjl3gqYEjcHZtjwCUk4PISbWTEUPn1kLxXB8oLg6uODmI5POjODh1wLFtD95Zuom4zFpWp9ZIHykkXUFCeg0ff5GKa48xrDmYR2RSFfGXjCxPrSbiQo3sYpj8QQRObs/w+ecHZZuQUaXAajFw5sQJ2rV9HOcWLXBp0ULmsxzdOrPjeDYbsw2sSlIQIYIXqQq2pFTyztxYek5eyIaUu0RlGViTpmbNBRVbLpuJ+/kKHfu8w4v9hvP5ocNU3xYVH8WUl1yX8vnunbQXnRZODrjKZHsbXhnrS8yxfMJTy4m6qCNUpB4Kdaw5eY1XPFcx8v0EdmXWE5ZUI+/RqhQ1iTkaPv4mje79BjPB05+U1HRqKitQN9RSW3abq0WX2LRxHa2cHXFzcaa1AL2jG93e8mdDahkx6QrCzqskCESJXkLyDZ4bM5O3521iX56J1eeqCS/US3N9XWY1qz49QcsO3fELmkZWWhoFuZncLrlCbuZphr/+Gh2eaIerixNOTg64tOvC1NDd7MnVsuJcLSEZKmILDGy9qGHlnhM4unUVZqTt+dYGXRN6TRNqhYk+vYexZs1oDMZlVIqKDKUXVlMATVpvOZqgucmW2zLrp1NespCQZX3xndCBpJO+qBQLUCsXYdIHc/vGQvbtHM68GV1Y8sGzfPXJ21zOmc+NIl+KLk7mStEEbt4aLytNmiwBaJXvknHuHdnZvXjhc/z8yyT0lpXUKBfzy/H5tHZywM3ZVRYSBwaNZc3quYx++xW2bFlLZNhCNm8IJjpiGd//uJ8bJXlyUOzy5Utp1/aJe8rdmtZtHmda9H52ZtcQkVJPgozIGYlPrmLBpm95pGNvtm/d9lt9n0qhRKVUEREWLn2+9m3b0c5Z7G5dmBm2h3UpNTblE75GvoHItFrmxh/E0a07Do90wrVtd8YELGPB+m9Y+clPhH51lFX7T7Nq/0mbfHKCVb+X/SeJ/PpHIr/6mehDp1j5yTHm7zlJyLGbbBARv2wTEcIcSlNIH21qzDe06+9Fwvk7RJyvkX5DWKGWkPRy4s8U8vJYHx5/ths3b5bYJlQbFDSb9Bw+eAhHBxdcnV3p3O4xXFzbyiTz/rQy1mfrZCRvTYYG4YOK4uOXxn3A5FV7ZC4u7IIJEVFcm6YgJrmS4E/P4tzuJVasCpEuiejyV2lUci6J6Pr/8qsvcGntjENLB1q7irV7jJF+s1h/6jKR6dWE5WhYkVzFhktq1h4vokP/QAJCvyQxtYbg87VEFJgJuaBjU3Yj7yd+LQsSVq+NkmMJZc1jk5FmMUul2cr2zdtxdnKQz49wa+MqOzte8ZrO5txKIjMbCU5Ty2uPTK4i4sdc2vV3Z86mX9iWZ2JNsoLISwZiL5vZkKdmZsI3koVDQqKxiqfhNos2K7N8VkXXrk9JfWjlbGPxtl16s3DHL2zI0iNM4jXpCuLyNOzOVzAjeJfcnFv8vohU0aDk3MlzUpl9/brya3M0BvUURLTPavCjWc4A8ZXlUyJA0tzkj1Ytxs2tZu/WQcwKepJ57z3Np7snE7lqEHPe7criOS+we+vrZKVNovSGOzdKx1NTZks0V1dNxGQWTaO+NCq9UNa/S2GuNwcOeND3ZVfGjenAxm3DqdckcOjwbOl3PdXZmWFvvsCa4Fm4ew7n8y+2ywdpiMdQicU2Gqxo9Eo5kKi2poqZM2bK1pFH27bl0cfa4dTGjeWfnmNHnlLu2muFSZall/6a75IEXDu+xMmzSWiNZlkYK2r08guLmOThZSt/cm4l2eDJF19hzScnWZ+plCHz5efq2FhoZmO+Gt+FO3Bs05dug7wJWrGdxHN3ZQVGVGYFGwpriM82EZ9jy0vF56r4m+hkrio07SYx2RXSbFyXU09CrsgT6QjLMBKWZZLmm/AvRFJ46LRwurkvYFNeI3E5WsIv6FiaWkZUdgXxpy/Sqd8Qho4ajUqjkGDTGhpl1/n6xM2IygzX1qK/r600yYYELCXhdBlRKY0ykikYPzFbxZovM3jiNW8WfZLMhjwtAmwbrtxj8XO3mB2+G4eW7di2ZTuqxmpZXKxpbqbRYKBCoWDKrFn3ktTOOLq2kb6s38IwtqTeIS5Pz9osPUtOlpGYXc/Sr1Jo3d2dpftSiU+pJlREei+I9ItCpht8lsXJaz30/QmMFlvxsk5vlE2rBn0TgQHvyfSOs7Mjzs7OtHz8aSYui2JbkZJI4WNesKU61l2ok0UBAmwrD+awIc9IdJ6RkCwNC49XEna6jAmLE+nYfSCfHzgkdUv0AOrMRrKy02TPn1i/tsKtaNmGvqN9SThdSmKhiGabWZ3eSHyugi2p5Yz0W4Lb491ooVI13pscbCbp3ElmTg9i6BvP8O7UFym9tpRfLYsxKn1soXW1p2Q2kUMTVRtCxKTiZsu7VN6dypGDb/PtAQ9WLOpGyMqX2LfzdXLSxaiD96ip8qG+3gNRtqVXesuooTBJTU0+6Ize1NV7UF8bSH3NLA58+R59e7Vj/DuvM3jIYxz4ejbHT0axcdMCYmPm8fXBRGLjFzP49ZfIyT0vc4RiB9Ub9FRW1sjGQAG87AuZDB04CCdhz0ubvjUv9R9I1C9FbMhskDmvj88ricrUsymlnAETptN30CguF1+hQaXC2GRr88/IzqFHn5dxbeOGi2iudHKi15vjSDhRREymkhXJKpadqWPTJSNb8xR0f3M27XuOZ27CV+zKrWfXLTPLUhpZfLacsKw6QjNE0bMtvxSWqSIsS2kTmRPSEyuT6CaisnVEZ2tsaYAsjcwHhmQaWZOjYVO+gajDl3l25GzGrd5JfE4tCQUGQpLVLD15i09umAj98hTCNJw17yMUigbb8CYxJU2jwts/AIeWrWjlLMxVAYIOBAbvYl1qozSFw3NsPse6bAVzNh2l4yA/ok+Vyt16VZJS5tFicxVsTS9nwvur6dilB8nnkiSg71fci2OtQkG/gQNxvrduYu2Ez7Zww0E2ZjYSk2+LDgYnK0lMqyMw4gs6DZ5O3PESopOrpfKvzDIQkqZgW+othnjOxLVNR86nZNGg0qAx6uW0L9ExIJ6WNOqtcTi2dsTJyUlaMx1fHMgHm79l00W1tApWppiIyNazKbMBn5U76DlxHuHHrsh1jhEMmqlje5GZdefu8OrE2QwZMYHU8+cxalWotSq5kfz000+0e6wjrVwfk/WlouRrmM9MYs9eITxHRWShmVUXxCbZSNSRPJ55ZSzDh4+zhf4NRhV5eaks/3gegwb25FRKIqHhb7Fr6xto6z7ApPLFJCo3dF6yiqSmehJKkcO6N+3q1q1x6HRiPsgCKsrfp7Q0kMrKKdTVBVJd40V9g6hnDMBsCMKo9seitrXHqBvFhKzJMidmsQRRenMS+RfHEhI1QpoCMWFbOHL4KwYMfIKx43qxYcNyPv8iFk/PN/H2focTJw5jaRbtGnpUajH1WI/FqsWotfmgPx46Qrenn8fJwcW2MO0603f4WOJP3yLiXKUszwrONBGbo5eh8E5938I36H30BttoNrG4SlUjZ5POSBNImEHOrYQT3prBPu+xO7dW+mkyz5SqJiFLQcjPl+nY34Nx8yP4vKCcxLxKPjx5k8WpCmILzQQn1RCdZbKJyAflqIjJVdiOOVqZG4q7YCLktJboVAOxWXqCU2qJztOSUGy7ieGFBjZkq1i5L51OgwL5YP8pgpNuEZWtIfKCnpBT5ezOacR7UbwM5nx54FsMGjGmsBmNySIfMvnCC11p1aqV9H9FHWeHF/qwYt9xtufpWFdoYtWFRqILDAhzKyj6K54fM5sNmcIXUcg6UhFFjM2uI/j7TLoMGEv/QaNkd4S4FzpR6S5mier1lFwplpaA8A2FPObmxiOdehN9OJv1mVpCM02E5pjYUGhme4aCt96Poa/3analNxCeVMaKC0rCCkUFj14WITz72ij69nmN6upaaaaqtUo5BU60seTl5PPkE0/h4iq6F1x5xLEdL/Qdw5pPzhKXXEtEuonQVJNk7Q2ptQwJXMHoeVHEJd2VVTJhOUai803syNWwbO9JnDr3xtPTn4byO1ibdNJi0lnNrFr5sdygBLO1crYFmKatCif+/GXWZlTKtIsA2/q8RlZ8chqXJ3rz3tT5tBAzIi/mlTB39iwmTXyaX44HYFCtIO3sFGYGPUVm6kLqG99FrRNDdnxpVvkhin8F8IT5V1M1CZ1GjDvwoeT2eLQmX5pUAVj1ASgqJyMAJf7OYvSWIX1ZQCzKqXS2/rSKOxMwmnyxWHwpvjqWnHR3/AO6sPLjsbzW/1muXLlMfkEOH6/4iHfeeZ2gAA9279nG5aL8e4+AEo8T1svBNcL/tIlB9p6Fhsfj2spN3mTXViKZ3YbJ85aRmKOXir8iR8PS1Bo25SuJ+iYJx7ZPsWLNGsQcFtt5xIwOHaGhwTKA4NTyXmDDsRPT1u4kIauaNblKmQwXJmRieiPzdp2hYz8PVnySzKY8BSFZCoIvGlh6voYVZ6rZmG9mS65OloltyW1kc04tG7Mr2ZAlRNRN1hGXcYutBQ18KnrJTtyS3ePLRTlZqomIJBMxuSY2p9axcP33PNHfnYhjxawvNLPkbK1MQ4Rn1rAzq5IhE6bxzNM9OHvyuJz/qTXpZJ/YuQvp0t9wdXCgQ+tW0pzs9vpEQn/IJTazlpU5esIylezI0bLrbDnPj5yD79ov2C4ia8mNrMw2yWqbyPOV7Dh1FWe37kwNnIdKoUXXbJHfodY3YWm28s3XX+Ls3BJXV7H+IprnypOvjSXi22wSsw0IppHVJ2lKaSb2mPge4+cn8FmBhvDUWsLy9YRmKeX6rNp7FMe2XfH09aOytg6zeIDKvT44waLfH/1RmqsuLR1wc3VCRBCHBS4l8vgNW8ldhm39IlJq2ZpZS9eR7zE19HOif75F+HmFTK6vSG9ge04ti7cfloOO1sVvQK1swCimaFutKJUmxo4dJXVKDEZ6vG1HHF27sGDLD6zPViEi2yGXzKxKqmV7RiUfRG7HwakN6xI2CrBZSUvNwcXZkd27A9Do46mvfJ+ykrkE+nZk/+7RqJRiTLhgIz/0dZ7SBNQ2CrPPNg/EbApArfaVTZsi0HHn5jhZS2kQ1SINnnKoj6itrKmcKPNvokhYnKux3l1W/IveM7XWi8yMURz/YRxz5z7Pvn2zGTLoGb7+er8coKrW1lFWdo3SG0Xo9aJHyDavUOQIxcxLMSFKNF2KNIYYuqpQqpg9dyEuzq4yKtWqlSuObdozM3SDrJwIzlCyPFNBcK6SLfkKlsnFdWPXvn2IZwWIQbRit2xsqCcw0P+36nNnJzecWndj8abDxGdVszZHKZOgojZwfWod/tHf8NLYeaw7cYOwc2UsPVsmS56Ew7xRJJl/usHM8M+YEbaXGeG7mR62nWlhW3gvZCtTg7cxNXg7U1evZ8barUwN2UVA7JfEZlWxNrMOYdqtOa+w1W0mVTP+g3h6jp9L3Pnb0gxdfUEty7PWnL9L5M+X6PWGD2PGelJ+57Z8ao9oGFWqlGzbuUtGVt2cnXC7V+z7RsB84s/cIDqzjrUXRchfyYb0BtYdLeaJAf5MTzjK5mwV0RlKwi6a5WaVcKGOjzYepoVjJ6JDEmVEW+iT6V4DaZPezPq4WPldIgXi3Fr4a26MmL6CPVnVbMg3y3xeeJ5JMn7EL5foNHgysxOPsD27UeY+w/KNBGcoZMG2WB/Hds8RGxsrN0PRcX1/g1Wr1URHR0v/vL1bS1q52PryJsyPkYEVUQYnTNaYLJO0QFZ9m8Nj/T1Y/WkK8adriErTs/aCmoiLeulLjpsbLiPXn+/9XAaUxBNvxZOQCi5e5sVuz0mwPersgrNzGxzbdWPtFyky5/qxqDoSFkxKHVvTbuP7UbAE29Gjv9DC3Gzhxo1rdH+xDYePzOTm3cVoGmZSXz2DE8cnMHfW0xQXvU+jMkDObFQ3eKCr90SvFCalAE0QJuNUCi6NobbenxqF7flqVXUeNDfNQq2cSX72GHIzRqHT+Eu/TVSHCGYzm3wkK4rC5JKSCVwp9CdubV8SNwyg+PJ6PCb3ZOGiaWj1DdJUFPWbsqzMapTjw7U61b0ni/5t0cXiiyeP3rpzmzfeeEfmrWRLjXNr3Lr2IvSzX6TSr0ypk6wUdVHN5uxqglYmSsc9KSVZgk0MrhETkEUUr0ePF+U0LltA4THaPTOYuO+ziM6skmATpT8iarcxpYYR8xMYOiOGTwqNhCSJusEGokVZVLqoqlcx5P0NODh3kiF9B2eRB3KTbR7Cybblhh6VYX8xmkCkF3qNm0Ls+WKi8itJuG4kMl8rAzui6qTriHcZv2g9G7Pr+Ph8tYzaReSI2s0KVh3Kosur43ljlAfHjp8gKeUs2TlZpCQn8+60mXJs3aOuor1EsE0H/JYnsiGtkvDkOkILRaJewbqUapbtO0eb3hNZvD9VFj+LUqwFJ+tYmVRPfFolHks34ODUifUxW7ladI3SO7e5VlxC6dWbZKVlMcU/6LeOBAenR3m04/NMjf2U/ZfVRKUrkUDLNBCeXMvSL5LpPMSdyOPXiDhfSXSBkbU5ehnYWJ9WwfCgZbLHMCoshoGESQAAIABJREFUnPI7dym6VEjF3TLKbt8hJzMLL3d3Cew2rq44t3LDsc3zzF33LTuKzCw5U05oroGVSQq25KoIjDtI234T2XLuNrFJddIyCM7QyE1kZ+od+oyZRrsnXuKXH46hUymoqb1LaelV9uzZJduZxNqJjVzMsXmq/2jiT10lscjMigwtovwv7HyN7GQY5jWdRx9/ipKSUsFsFhoba1i02AdPz86U3AzHpJ5LZUUgV6++J6tDvjrggVJ0aesEu/nLVIAYBy4qPcSIA0XjNI58P5y0dB9u3v6I/Mse1DUu4tLF9/nh4CQOfzWK5DOjaWzwx9wUgMXoQ2X5RMluYs6/SulH6XVvCrNn8J5fJ478MIo7t6OZEtSL+fN9UGmqEbP7xeRiwTZqjQKVquEew4mx2RbJbGIGom2uhoGs7Gy6dHlO+muPthJBDVeeHTSGLaeLZUuNaBuJLNTLesWN50sZ7DGDXq8NpuRWiXygonjklJiAnJaWgqsIV8s5k61p7dKW5wZ5sSvtNqGp5ZK1RI4t5nwDG07foa/PEsav/px9RWbCUhtlUCOh0ExshoroE2U8/dZ8nF064OTcHicXNx5xdpUiZzE6t0EopOiWdm0tZll24q1pS9meX07IhTLCcpWy4iU6Q0HIdxd5vN+E/9XeecdHXWX9XwIEEgwg0iLSkd576NJbCglJIJQQCF0QEIL0TkRAUAF1FdSVFXtFUUIICZBCC72m9+k1k+xf79/r3GEQ9tn12cfdze/hYf64rymZzMz3zvncc+85n/M5zN3zBa8nF6kzltSdSQRx01kta768RFO/UDxqNOK51h1p2KoVzdp2wPf5FtR+rqWKoAm4pSq7Sv32zNn9BW+eM/OapBVkZU4o5PXEXCZtOkj93iEqqLTzvMVZFSAeItXCngs6pmx6X5GgO3YaQK8+gxg4cgxDh/rz4uDR9O83XGlPSu1bpaq18fBpil/ATF7+5JRKGsfE5auAhABXKibCt35M69FTFb1KyN6rk83EnDYi87f7TBF+k2Lw8HmBZi3bMXyUPz17D6DfwGH0HzScvv1fxFO0PyXJXfVpPGu2pNOLM1h35IKKEi9NKGDDRRvLTxayP1XDkIWv0fjFqbyZmMfaX/N5/T5Hc3OahbdPZNCwe6Dy2AMGjiIgKIjBo4YyKnAsTVvJ3DllEOVYUqNxR0bM28ju5CJVvbFafgNJaJ/IY8sXZ3muYx969xui0kdP2cosyjvEn/iatq2qMy+6J6lJwVjMSzmVFMaRT2cQ5F+Xn38ejdEYqkpbLHpRMQ7CYRc9kVAK8+fy0rwmdOvkzZD+tQgIasDMmZ0JC27FuGF16dHRmy3rXsCon4LFImJA4tWC0Gj9sdkncvv2WG5dncKOzZ14aXZjUlICSD4zi4nBTXh58UTVXNG1bVR5lXJRuHK17XWCTTQeRJbNua2w85cjn1K9mjAznLkk8SA9gqJ5OylPcfkku78hzcCmhCxe++EctZt3I2reQrQGpyCt1SrbVAeHDn2AVD07mSBeVKlUg17Bi3kntYgVxzMVUVdKdLbHF7Hxs/O0HB5J9IE45QXWxGtYcULDmtMmYiVUf7KE0SsO0qTPBJr2HU+TPmNo0ncETfoOd972GamkGhp0H0CboUE0GxhK+OaDvJ5WwrJfstl41qaYLnIWXLD/B3x7BbPucAKxpwuclKdzdlYlalVSdnNcNhEbPqbDyGk06z+O1kMDadJzGM26DqV5nwCaSfFr77G8MDicjkELWfbJWVW6IkW0EvBZcyKfN5JyeHHuBjoFL2DXySy1TRKGv+S8ViVoWBOXweJDx+k8JooGbQfi3agDddp2x6dRF3x8O1CneQ9qNu5Ku0Eh1O8yio5j57Fs/49sTSxiw6liFdCRiofVkriOz6HP9NUMnblapULWndawOsXM8kSdAtsbqUai3/iG3iFLqd28C5XrNKNq/VZ4+7bFp1F7ajXpqJ5/vvMAWg0IYWDYcpbvj+ONJCepe3lSCSvPFBMTn8t7Z4voGPIyfWetYUdiLqtOlCgPKxS1LckmFh08pfKKXs/1pmajLlRr0IzKdepRs1lrqvs25dnWPXm+22DaDg8lYOkO1n19jt0XjSyNy2fFWROr5byWoiPmne9UlHdG1BxMegNPifiLGJXDZmDf7i208q3J9Mm+HNg/lKNHF3L82Gu8OLAW33w5GJs5HNHZlzOXVE1LYCM3J4iMu4tYsrA7c2aM5dOPDvJa7BZ69mhH9aqVGDaoDp98MJq716ZQUhisqgGkJk3EekSnJCNzDNcvB/LJB4MJD67Hh38awNX0CSTGhTMnqh3hE/tRWCjN6Z0SciKZLfetNiMW4XOqPtlORSvX/l2AuH79erV98apanWqVvaha8zmClu3mDVn1k0yslUlJKlAH73UHj+Lh9SwH3nvf2TTxvv6hdCxdtmwJnp5VkTOfbCOlEjrk1X3sTStihSR0ZZuTaGD3yRIWvPENTfqHsPmnO+xK1qsyjpiTWiQ5LOySbWf0LP/mhqJRqeLQU9nsTMxkV+I9dbszMZudp7LZfuYuu1PyWPvDVVUCJCu75H5WxZnYdsrGm8mFBK14izZDp7Ljq/NsPZnHtkt2Vp8xszpew9pkk0pJxMYXsPnHa2w9do39aQW8dvQKH54p4I1j99iXkMOeuAz2nsplW1wm+6/bFS1q7RmLmp9N8QVs+/EyHQJmMmT2WlWEuiPNxisnjYo7uFG83JlC9l4ysDs+g02fp6gC2k0/XGLLl+eI/e4SsV+fZ+3hBPYcv83KT5NZ881lPrhiV3MhLP8taVZi0yxIzmvdFxdoOTyKhVs/VtUEQt2SbaRUU8jWWBarvck61n15iR0/XmLJe0fZ/FUqO3+6zBvHrrLpi2S2fpPG6sMJ6ry6+sh53km1skeI0klaVifr1O/9WoqW17+7RKOB4Uzc9CcV5FqXYmXJSSOvxGnV57z6Uwarv77Kls8vsu1ICps/T2LNp8fZ+PlJtn5xmhWHjisq17afrxF70kl0lgT20uP5xCRq2RhXwLupGsKWyZHBh61bt2MRDRI50IpRFRdmUWY1Evf997RvXYu6daoQGNSNbp19GTe6LhfSJuAwh6HPl2aF49QW0uEIo6Q4ghPHJzFhfDPefWsnJl0ZB/YfwsenMmtWj+PG9bXotYspzAuhIGccRm2AShmYDSLWE0bSqRf58athvBzdkvUxXTidGEpy0ghSk6ayc+s4Oneoy4ULZx6AyuW5BFDOzqJOzyYJR/FsMmSLGRoaqsBWw1OoT57UbtSOl/f/wI6zRpUYXn1az/rThew9k6OCEdV8GnAy4aRqmlhqd4qNZmbeY9SoEYqOU7WqJx5SCV3rOZYdOsHryYWsOlPirK9KMPBmfBH+C3fi232sYtjvTdPzmuS9BAAiJiRlF7KKnypBSmTWnjSqKoG18tg1ErSsTdCx9ZKN2AtWNsqqfMbA8kSNIvxuSbWx/bSNXcdv0ytkiZJt2PP9ZWJPOYs+ZRFZH69RROQNqTbWxWsUV1O8xLqzOpZ+n0lsooWNJ6Skx8L2syZVcyV1YhLKX5GgZfGvhayJ07LztIaX3/2Rhr3GMHzuWg4k56tz6UoJn6dYWZVmYVlSAavOFLHtrI6NJwoUkXhFXAEbk/QIMKWUaH1crgpIyBlGtoaSnF6VZGLlSS3rk3TsPm9RwZDwtYeo1Xok69/8jh1nC9l+VkPsRTtL44pZddqicmRC+t51wc7bN+zsvGhRyf5tyVpkrD+Zr243nS5m09liNpwoYNtpi0qxSEhfFqy9l2z86ZKNqE2HqN/Ln6WfHFfpC6lckAjr4p/lc03EnNYSe97Ka4l6tRuR9Ie8r0QbXz8r5VE6dqSZiT1vUd55TZIs4JJ7dJb07EkxsPHLi7QaGIzoax798SccFgtPSXhWsS/KjZQ7jDj0Om5cvsPHH33InDlzaN6koeIdXr/iDHwYs8dTbp6MJi+AnKzx3LgWxL63+tKlozc//yia+OWsWbsSbx8PLl7eSEHxQoq1YdhsE7GbpfwmhFLZOl4fw+2rwZw/48/SOY2ZP6UDJ48u5eL5qZw+OYz0czM59M5UvKt5KP1K8WDSOUe6pTi3lL9FI53tn34LkuTmZeDn56fA9vR9sPm26cWWr87zWrKVlYkmtfpvP6dnV8IdBocv5Lnm7bl58yY2u04FSGQbmZKSTIcObZ3ipZWqKjJzk8ZtiP3lJrFnC1l/zqiCEhtP6ngzvhC/0Bjqdx7Guq9S1Xnn1V+yWHK8iJUpNlak2NRZaKMqlbGpkhKhXslwFXdKgaeMNVLIGadjXYJJbQvlvLHpqjATzLzycwbbvr1E035htOoTyts/XGXXaS1LjuazPsnMlkQdS0/r2XbNTsxJA5vl/HXOzvIUG8sT5axlY0WcjVVJNmJOmVmeIGDWqSHBiJVnzaz+uYi3Uw1M3XwInxf68mJUDPuTcll9rEDlxWLOmFmeYmL1ZTuvStX5/RKZVWdtLD1t4+UTZlYkSRmLgZVJetalmJ3BGzHq0yYktynV4bLN3nvOzJ6TuXQYv4hK1VqzeL2cdw1sjMtge5qFJb8Uqjzcq/K+vxSz9JciFhzL57Wbdl5NtqqFTL7PsgQdK5JMbLokBIJcFeiQagEplRGWkCTFt8bns+KjZPqHL6dBr/FsO5bOhqQcYlLNbLpmZ8kvAtISVqqaRvl+Bram2BRDSAI5G2QOfzUiZUGLfyliyQmN2nKresizZpWvjfkplw8u25nx2udUfrY1U6MXkZuVTbnDxlPSdVOGGKxriJaeBE7u3rvG6JEdeGd/CJqSZWh0E7GKLIIliHvZY0hPH8vRH0Px61uLBfOmUqwpUPmcDz/8hBreHnx4aDZ68ytoRL5OGtHnjyXz+jiuXBtDSnIQJ39ZQMSETkpafHbUaA4fjuHdD6by1p+msGf/DCZO6kmrNrW5cSuNsnI9docWm73wQS8x8XImk+lBqyPXme2XY3E0adxM5ZIqeVZVLP7OI0I5lJDFwTNaVQAqxZo7TmWz9fskxVQPiooiT1esaE0Gmwabo5wPD32BZ1UvavhUxqdmFXUw9p+wgIMJ2byVUMhOWclO57HnQjax38bRuMMAqno0IHT5St4+do6/XLWrlXHd8QxikwvZnlqsilXXH7/C68k29oqRxosHyiI29Q5rjl1lV7KFDWey2H5e6F9aYtNK2JyYy8b4bDYnFCjl5iVvHqRRtx483aAuIQuX8X5KLofvlrLl51vs+fWSqhMTGYAtZw2KoS8V0OLlRIZgY6IFKSTdllZC7Pk8tiZns1aKPk9qnGepuNu8nlLEB+d1jIneQqVqLeg4IJzNfznFnnNFbLpYpPiKwln8R0Oq2X9vrDx+h+2JuRw8V8IbX6cwNHQ+larVxuPpmvQcOpT1X98jNl7DttNGla8SPc9t551ebVuiTaU3VEmTlDWdsaoFy7VwqcXrooW1qUYW/HhP/f/20xr2JZco/ZIuQQuUPYQv2cB7qcUK8FLftjRey+qkEnZdNilvKDV0Uii8RVW4G1S6RYRqRbJCeKGrTplUcj82xcbr8tyJIsX4f/+SnZhdn+Hh04I2nf04l3IOkWcvs5j+Ptik6V1puYODB9/Dx9uDX46ux2reyZ07ITgcUyjWBHIqaTDffzeII5+GqZ5sP373mfI81jIjhQWFLJg3jYED6nD1+kLu5gaSVzSeG1dHcuLoQJKTJ/LNlwEM7luTgT2bsmz+LMYM86Nr5/r49atHn4EN8BvUmMDgwcS+tv5BLsXJ47Q/aHMkYBOASRRS7rsa+kkbKK/qnlR5qjKentWp4l2LwQFRvPZREm98dYsN31xm/WepbPjkBHO37FP8uXXbX1e92CS14CjXU6LVsH3rm3hWepoqlarh5VUNL+9ajA2czhtfp7Hj63Q2fHmFlUfOse5IEnM2vUuNZzrj4dEI70adGR25jjXvnmHTkWts+CadTT9eUoJBa79NZ9Pnp9j05UVWfJTGqiMpbPkhhW0/nGXDkXO8evAiq75KVa/d/ONVVUKz6rNU1n95gS3fXyH2x+tErniL6nWaKaNp3LknvcNeYuE7PxP7bTobDh1n84+X2fD9BVZ/lcLqr86y/rs0NspZ6ugVtv50XUVF132Xrgpa13+TypYfr7Plh1usPpLKqiMn2fzFKdb86Ru6DglRuSbvZ1owJHweC/cdZtfpa+xNyPvdsTPuLr874m+rYtWZG/9E7xFTqd2wA1416lGjZl186tRl+Iz1LHn7exXxFZbOjvh7vH4iizfictn9UzaxcXcfDJGckLEjPuPB2Hkmg9iEO2w9fou9idnsPX6DqWv30WX0ZFWa41GjJpFrdvJmUi4bTutZm2Jj2QmNiuKu+uk6O45ns+2n28Qeu6v4jrHHbvF63F31XvJ9th+/p8Sbtv10i83fXuKtE7f5ICmb1Qd/ZtT8LarUqMuAsbz34REsZpPyakL+fkp06//Wu9klGFFejnDAnq3lxbRJvfnh2/ncubOUrKxosu7NUA3kU87M5f13p1OtaiUupqWoQItWl6fOV59+8j6+9aqydnVvLqZP44cfB3AxLZCzJ4LZsK6/CrrMmzWS5FPHKMkvJj+7kNu3r5OenkJ27mWuXT/H3Tt3nQq7jnKl/GuzOpVtXeASgLlaHrmAJqH/8IgQFUEUaTdFE/L04PmWLWjZZSDNuvnTqs8Y2vUfR9veI2jWrpcqhVm9aj3vHTjAwQMHeGv/RrZvX8XwIQNV6yQpeZF8VDVvHzp360Ptlp1p2nMovt0G0aL3cNr6jaB5hx4qTyb1aBIa9vCqR8OWfjTqMpT6nXvh26MXz/cZjG+PEbTzG0ungf407zWY9oNHKZ5lk64D6DogkBadR9CgS3ea9PajSY/e1GvfiWfbtMW3cxea9ehJ0+7deda3lZPPKLr8VYVs2xjfLkNp0n04LboOpJXfEJr2HECjbn3UaNLDj8Y9euPbpYd6vxcGjKZh1574dutB60EjeGFAII17+tPCL5C2g8fTqG0vmrbpik/NeiqZL59R1acmtZu+QPshY+g+curvjl5jQ/m90TdkFs16jaRGvdZUrlpHSeM5a/s8qfqU7ERq8XybrvQeOQG/wMn0DoxA8lW9R0fQeeBEuo4OU6P7mDBco8fYcFyj0/AJdBw+gS6jQuk+MoSOA0ZTrVYDPKpJWqAans8156U3/8z2k/fUWXVdso1X40t4I01P6LY/02P0JF4Mn0ffgGn0GB1G34AIeowJo6t8n6AI+vpPY0BQpKpcGBIcyaDAKXQbMopnW7TFo7oPPYaM5qPPv1XcWilnMuuFBF7qBNvDgBPgleg1mC02bJZSfv3pJ/x6tuGF5tUJHN+A+XNaEbu5Hwf2BXBgXwQR4b0ZPaI/d27cVgTX8nIjOl2BOletWbmI2jWr8OEHEaSeXUxCXDSffOBP2za1WLJ4Mhl3LqoK8dJSZ8dPvV5YIM5WsyIzXSbS3rZycrKFa+cEmjwvAHM1QHAxR1wALC4upmtPIR9X52nPqvTp1piI8E5MiejIyHHt6NmvvWqs0bVnD/r2H8CQF4cTEBhMQEAwNWrUUATWJo1rqOsKCmhO4PgWBI7vTp2aknSW/Io37fs0ITxqCCGTuhIW1p5xoxszfGh9Ro2uS1BIA8InPs/4Mb4EjG9GYHBLRgU8zzD/JvQe1Ajf5k8/4FlKIaIiSAu9qGYVRo5swfTp7VmwuBuvrPRjWUwf5i7sSPT8dixa0oVFSzozZ35bFizoxLKXBxIdNYwWzepT3duLKtU9aNDIkxGjWjJuXBvGjm3NuHFtCfDvQGBgB4ImtCMouDVBwS8QOLEpI8bWY/hYX0LCe1G7jrdiQgwYPIqhw0czdMBIRg0bw6iRoxg5ehijxo1k2KiRDBo6XOW0BgwZy++N/oNf5HfHWH/8wyLYvHUnvx6L58dvj7L0pSX07dmbtm1a0bZ5C9q0akXzli3wbd6MZm3a0rFHTzp27kmrlh3p2suPbn1+G9379sM1evj1p7ffEEaNDWJSxAz6DXwRz2oSSa6qjhVenpWp26Uv6788qdI+G1ItrDot2qFa3j+noVPgfPUbd+8zgM49+/JCx8506N6TFzp2omHTJjRv25YWzdvynG8TGj/fgjZtRZi3Iz169WTOgjl8+MmHXLt1C2eU347ZUILZ5Cw3Up7N1ZXF5eEkFaDOQ1JUWlZOTuZdfvj2z6xaMZXZs4bStWMtGtStqs5l9Z+pwl8+/ug+GKTPW44zgFHmQFdSSMzS2bRsVo2F8wcqA+nT04d+/XoiDT1sdgN6g7DRxZOWKW8q0VH5bDXuV4/Ld3Amq6XhnpMHKdFHec7l0VzntdTUVHxqNVJeRqq698SGcPvacq5dm8flKzEc/nQOrdrU50T8D1y7cZHrt26SmZfH9Fmz7itveRAZPoDzaVu4kB7N3cxlpKRuxH98D6pVcyoJ73xrPOcvxXAlfS5ZN+dyJz2KrLtzlXhtpnYGWRkzuH4lglvXI8m4E0VWxiwK85dz89pKjn43hz59myAlIEJiFYHQ1q3qsHHTUJLORmCwzCfn3jSK8qLQFMyiKH8mxQUz0WuiKS6IIuveZPILIijIX07yme2MHtaBuk9XJmRMc775bDIXz80iP2M+hZmLKchYQvaNhdxJn8OdK9Fk35pDQeY8lYbJuh1Fzr1XKM7Zz6TA9kSFj+fe1ctk3rxKSY6WvKxCbt3L4sqtW1y5e5vMnAKysgq4dfUeGRl3f3fcunWL3xt3C7Io1Jdgl/7s94ec9y9fTycpJZHE43GknD5Nakoyp0+fJjExkbNnUzifdpH0839P8vthufArpJ09z/XLN8m8k82+vfvw8al5n5TgrP5oPSaCXQm32HK2mFcl2nvfq70Tf5taLXsxYuRYfvk1nuTkcySdTiY17QLnL14g/mQ8p5ISOX/6HFcupnPj8nUupV3iXEqqklIvKMrHYjUpL2a16Cm1Sw8EZyDPbDcL6/+/dmXJzy1QIJNmDFI46UwkO1ReS9gmd29d51xKPFcvJ3Hr5nkcVhslBRpV0SyeTVoHWU1m9ViAun5NDBOChjJyRHdWr4rk3r17ONvlShLagsFYoprJy3fJyclRLZmcgBfwligwmi2SX3O+XgDm4sUJ6ASYAjZ5/tChQ3h6NcCzag1aNPYkMW4Wf3UsxmSNwmRdw6EP/OnYowlaYzal5VbMpaXkFpUwYOgQBTaPah68v28qfy3bTYl+KgbrHM6eXUi/3s5iQZHCSzol/ecWUFwoHXhC0eSHYTLMxFg6g3sa6QE+G4tFqGrhFOYGkJ8j3XRCMWujKc6aT+zOSdSr66kS5N7VPVm7biQZuYvQmCIolV4JhSGU5AdTUiCNIydhM0/DZp2O2TQNo2EqduskVWt47OQKXmjtRcAwX84cnUm5ZRl6XTg6jXR2DcFqisBimIJRG4GuWLr8TKCoIAiDZhIOczTltlVo8nYo0sGapbMoLzWr84Vs1612p96+NL6QISRcs6UUk1EWRmdk+B/f3u+5/Q+aUmisOmwSWS4vRWPRUmIqwVIuzTSczzkJBY++x4MF+B+8p+rxff9vanFWuyIHe3a/4dwKC7XKswaeNeszdN4m3kopVEpnMWe0iuq2/5KWTR8fU+K6Cxe9gtHyG8lZHIDifDrKsEkH2vtOQFJEOp0Rs7QRu/8a9dpSC3pdyYN0laTWxJk8aGDv8m5y63ozJxAtqoRBZ9A/KKiUrZ6Un0iEUMClXmeXbZ6ArIgyW7nKmJc9QHY5hQUlqlylWCtnOqk9KlbbQb1eh6NUAhyl97+g02M5J1dq1PQKbOJ15bs5icbOVkcukMmtPC8skpiYGOfZqXIlhg56ltu3ZqMzhVGkDyE7+yXmz+7AvMWRKmoqRYdCmv3yyx+oX7eekylS3YOTx6ZR5niZ3KJAdPqZHP5wEo3qOstR+g9pRu6tSKyG6ei1QUpfRZo/lmhewmBZismxiJyCRUq/xaCbSbldhI7CsJuDMWhDKTXP4osvF9KmpQ8+XjUY3L8x5y7Nptwxm9x8f7IzROxoCdqimWRnTKVQPFvRAvLy5pGfvwCt9hVybkdRpNnFhp0h1G/syQcH/CnTx2AomkhO3lj0hnCKisLIzQlHWzwTh1XqEl/BbpUq+pkYtQswaJaiLdrI8WOvUL9OFb766ohqbCigkuoAu3TdUTsK5y5DtvoWmxiNA1up/XeH3SEdYf7xkG5AYrRimPJ50k1HSNIWm9MrqOfLylXlhuvIIIurcFUNJj3SKVe+j2vI0cI1xDbNNquyT6NBw4L50WoXIfV00sq5XvN2zNpxhN2n89mcZuLVZAOvJhaxN62AqA178KhRhx0796rvZrGXqcoC6RVusdso0emQbkY6qaMzmp3zcx/g8vlCYJfhtF3nvDmPPZILLv8NbE5gOb2ctvh+n23lAs0YrFoVnZTqZYtUQ9vLKdIK2IwUl2Si0xY62xEp/UkDDrPzfCVAtNq1aHV69EYH5vurpWvL5xB2uJzBzKXOGjT1/0I2LletmYzG+62IXC1/5MeXs5trm6naMjlfIz+KADgiIkKdrURUZ8a01mi0C8kqGI/GGMa9uzFMGNuRPW++rlYig85Gmb2cHRt3qWYRT1eqxIBuL3AhLRS9IYKCokDslld4bX2Q+ru859RZ3THlz8Kij1A6K/dy/fnsi368tr0ba9d2ZO+e3uzcPZw33xzA4Y/8uHx+JBaDyPL5U1IoZUrRxG4bSr2aVVTv6smhTckrmoHBKp4siHLrcn49GsR7+/3YvL49mzd0YsP6LsTEdGDlq13YFjuALcv9iJ7tx4Bx7ek9uA7xx6djLY5CVxioBJZycxdyIm4C+9/qQ+zmbuzd2Z/3D4zgnbcHs/u1nrx/YCD79g7kwL4gZkzvo86wl65lUGiQNkrSg052E/I72LDrdE7JAYfUsicUAAAbxklEQVQYkUXVDKrz8/32S3/3vsgH/N6Q87i9HKtZiAg2Z79yWeSlEaHN4mynJS2c7JJTdWqa/pZbtWC3/TZK7VZkyILtGtZyM2XlJjQlWfj17qjIyVKLKCU+jdt2YfWHCYiIkdT/icju2hQNu85mMnbuK1SvVY/vvvtB2ZiwlWSRl5SYyvOKeni5Hb1Ji8XurHmUv1tMZswGI1LlINcl9msvlbSUQ3UZcjkvpUHysPH+M/ddZ7s/evvPfMZ/9xrXWU1eJ/fFs126dInWrVtT3bu1muD9b45Br4ukxBCAqXQSiaen07aNFxfOfY/FqMFuM2G1FxIUNJ7aNZ6jRlVPJoxtg023muK8YEodYWTlT2NCeCuqC5O8aiXWrx6CQTuDgsJASh0zif8lkpaNPOnXuyO9+3ak36BetGjZ1Al4bw9Cwxuh1USrvt5GXThljiVMmddOCcb6eNZgxwYB9DwMtiC0lmDuZIQzYlh9enavTUDgQIYM7cvwEQMYP3owYwa/yJi+I6j9jA8eHrXwrOSD/9imZOVEYXaEUVDgj0U/nRMnI+jZ04cOberRq2c3+g/oRPtODRg0qDc9Ovenc3c/evXrSb9BbenRszETQ4ffD2oJmGS38uiC9rg+lvOenLO9vKRxho8iJ4wcOZJDaZnsib+pav52nsjgw/Ma3o+/Rb2Og+g7NgyNRoOU7LiOKA9f/8N29/Dz/8z9xxJsEhgRcMkFyvZCEtviLeW8JtXHlTy9eP55T04cn4HZNEMVtmq1kXzw7gT6duugekjLfluKDzNyMunTvz+eVWsqgC5fMRJD0Tx0RSHY7OHcvBNJ9961lYSAJOqP/EU6oM5VKmLFmsl8fHAMfbo24NefviIj8wq3M27Sr19/lZPzqO7BjOgWFBfOwKANpqgghNu3IvAb5qt0Xp729OBD2QI6ZqE1BaHTRfLN5+Np2MCL5OQEtZWR81KxTuvkgTrKuXM5kxHDB1CvdiO8KlVjzsxO5BXOxGCZiLZYWD5LiIpuxYTgrpxOSiYr10hWYR6FuiyMFjPZ2SaKtVaVR8zIuoZOn0tBfhYFeflqHp1n5f8bYNu3b5+T/fPUUw8AN3z4cJbuPMDsTW8xf8dBFu0+zEs7DhG+aA3e9RsTOe8ltFqtOpL8LdgeDsj9M+D629c8lmCT1UUk+ORiZEIEbHJ/5cqVSuTF09uDXr19SE2dRk629BeYhFm3hFXLBtC3Sw+u3rzAmdSLXLiWznuHd9GghRcCDA9vD3btG4ZRIw0fgzHowzl5KoJadaooEnLLFtW4cXkF2pIwBbZSx3zefmME40f1RFucq7YYeflFtG3TGS9v6cTiwcbNvVVNn/QckEaSyanB1PP1UeeI5+tVJSlevN0UikoCKCl8iU0rB+HbyIek5JPczrzDtYyrXM1I5nZOMjczznMmOYFWLXxV/rD6U0+xM3YgBtNMLFbhmoZQpp/PomW9VEj/bOpp8jQ6srV3uVd4nvQbiVy8nHZfact5bs7KyntwRpfzhdry/B/wbOKZlixZ8qB9sfQKlyEeTvKlUsQqARMPn2dVHaN0opWt5soVLyPbR7Gp/xVgeziY8kfu/y3i/8hjAZysNDIpzkqAcoKCgtQKJkYeHt6YzMxojPowyu0RZN6eTPD4uooR87SXhzLWevV8aNjYE08vDzp3asDQIQ2IP7kQh3WSs6NpwWTef99f/QjC+B8x7Fn0RSuVUWsk2mdbwtzZ7Xnl5dkquCMMl+TkdGcRqDQX9PHg628mYrNGqvcTcP7wk78SRfWq5sFgv1rkZs1RQBGGTUnBbHZs9FN80Do1vZU+iJT3eHl74ONTxVno6eHUepRkfdPnPPnlp3CsjmmKRid9yU1Fk1iyqJ96D3mNx1PO/JIShhWtkae91RzMnhWEdOOUtrw6vUUtXortoCrU/294tp9/+pnDhw8jPcNdQ3Y/7+zZy9d/+YxDBz/moz8f4ZNPP+fwX/7M55//GW1xJkaj8UF0+2HbFHtzRcEffv6fvf+HPNsfAdjD//PPfrl/5nUyMbLHzs/Pp0mTJmr1Epb/mlVDVe8BuzVUNQYpt89QW7jk1DAlSnTtyizV0D7xbAAnEwK4dG4GyUkBGHURlNkmoisOUsa/ckV/df6SVXHJgvZYdaISHY7BEM6tO7Po0f1pfvj+WxWRlUP011/9pMRYK1f1olVbL9LT52IzT0ZXEoRev4DXdvbDU6Qaqnnw0rz2WE0vo9EGodEHoDdMJiF+BCcTgvj66+FcuhitxtmzUSSfWcaB/ZH06FSL6pVrUf+ZOgwZ2JDr116ixBhKTuE4dNL7QCdk78VcvzaZ9EtRXL68kPQLL3E+dQ7paQv49ZtQ3nxzDP38auE/fgBFxSWKxCAUtXLpde2Q6PLjDTZZfGUxLiws/LvXUmYpdeaFJVDzUMjeFW2VI4orCvrwXAjYZDz83P/k/h8Cm3NfL4nvPzr+9R/zby86KSnpwSFYJL3/9E4EZlO0CrsbNAFoi4IxmKaQpw1Tnsmqj6QgNwy9fhI2ywwcpnmUmaapygTVmkozkeK8xYSFtqVyZW+VFnj/wFAc+kgVVXQ4ZqotZps2NbhxI0OFxDXaAl5ZshLv6nVUhO/FofW5c3eOOq/ZTKI0toipM1srT1mzZhX2vz0Um3k+mhJnbaDVHobBMllFLPXaqVhMktCWBPdMDNotJMWtobZ3ZaWu7FHJkwH9nuNexgZsjjkUagMo0vhjt4VRUjABmykCvXYKOs10sjPCybsXSrl9Hnat9DDfypFPp+Ht7cGJ+DhKy+1ojJmUlRVTKrqSjznYXN/fFcyQBVm2hAK+oqKi+7nCcjRaIzqjTelP6k02TLYyFTGX/5MhXuxhO3siweYKiLgmVW4/+OADRbeSAMnT3h4c+zmKkpIQpe4lzTpMRdMxG+ZgtEVhtU5SWzujaQpWx2QM5lByc0RuLxi9zh9dYQCm4nAun4+mT085e3kpOlVyYhRlkjQuDKLUPpu39g1k2LDuZGZrVbVATu5NpkRMx7t6LQW2OfO6UizBlmIJ+U/lxo1FDBjqq3iNIkJ79GgQJtNU9PogjMZgikukumIyxbowcvInUFAYglYbTrlDFM6Ws2FzPzyreyhZPjlftGhZg2++nU9e0XL0xtkUF07BoJ1JSbHIvocr+XeTbZI6XxYUjVc9ye1WaXYyG7PhbXVu3PPWfqWGZS3T4HDonSv+Yw42F0jkXC+gEXt5ePtnVOmF35LmYj82u5A2StEbLApgLmD9vduH7e5/cv+x9Gzi4iX6KLeyasnt4sWLH0Se2rT2IjtnGX91RCidS0thGAU3ZpH4SyBnkwO5lDaDxOPTOZc2i8tXJnPuYrAq+SkqmKx6uxk10gkngmPfT6BF82p4Vq9Gq5be5Gcsx14UjFETQn5uBNHRjVm6bA42yanYjVy4eJIeXbspLp6cG3e+4U+5YwXaIn8clsmcSoqiRdunqVq5BqNGNlJNSQzGiVjMEyguCOTm1QBSzwSSdmE2ycmR3Lg+n4SEEJKToziZsJKAoF5MmzGb4ePH4OUj0nAejPdvyp63hnI6cSqpZ6eQejqCE8ciiY+bzLkLk0m9OIHL14LQSV5QettJuZN2BmcT5+Dt5cG33x1XYDNYdIqhXmb513cd/xMD/E++VuzC9f4uLyePHYoe6GQjWc0aHFaDUtBySoz/dv0CNAGpC7zy2PV+f+T2D4Ltty/0Rz70X/0fqdAWFoFEzuQsWKLNITTcX9FyqnnWYmpkKwry5lBSMB6LNoSrF+YwflQrhMfZuX1NKleuodpiNW/rRb16XnRu25Bg/7pcOBdIYYF0Mg3GpF3Anj3+yqC9a3gQ4F8fs3YRZWZhowSRnbWAPt192L55NeXlOrTGqxyP/5YmjVshlK/mrb1IOBGMoTgUfVEQDvMiPv5wqtq6iYbivIUvKM6k1RRJWelUMjPmMWTIs7RqJ/VznlT19MDX91l8akqXlkrqcY0a3rzzzgGSziQwY0a4IiFLEMTLU6oSPKnm7UHVp52f/XzzatR6xpuGDRvSf1AtrtwOpcwRTrG08CqdzJdfhvCsT2VOn0zA4dA6qXCOcsxKduL/7+/7r9rH/9b/fyzBZlW0HiebRLT8rt+4RMdOrZyerVI19h0YS0FelGopLNu3Yz8EM3ZkG7448h7xv3zMhQt3OZNylBHjuuLt5a0ik+NG1iE3NwqtcBh1EyjIjmbe3K5qOyjFoytX9MSonY1FF4TRNo2L5xZQ16cKX//luGK1GM0mNm7YjodHfRWN7N2nDpl3FlFum4ZVSUDMYe7c9qp9lXQ+2ba1H9rieVj0U5Fkd8LxcLp0rMmWrUu5cfMyqamJXL58jtu3r5GefoFL6eeIi/tVVdULZSq/8B5ZmVe4mp7GdSHEXkrn2q1LpF0+zs27cSxaNkkJo4race8+Ppy75I/BLF1fAygxRfDuO6No07w+mXfuqMCIyP85rKVOtshjvo10g+3f+AOKSrFMqGwlhdJz9Kfvqe4lldSVlDH//OskcnInIYGOMut09u72o2f3Rji5mnoFDr2xiBYtn8fTo55S4Jof3Za/OpZTXDyBkuIgrqZPZ2D/OlSr5qnOa598MhGdZgrSn8BgFU3NCTSqV5U7V/NwWMspKs4jLDyYKvfbQUVM6oTZuEKF/EuKAlQEdMCAWkqlS1onffdNKA7bAkVQlpbJhw+OplNLX7LuZikvI8bvlO5zssZdwSjZymh1ZViF6iZCTVYLZVahvLkia3buZWQxK3qOStSLutj82d0oKZmDzRKuttY5RZG8GtOd0KAROKySrzQoNo0Qz4Xf+r/VWB/37/VYejYnt7JUlduIwb3++i7l1ap7eyha0sXLU7FaZ2DQBGExRBOzvBNjx/gpUJRZjIq0euVGmgKnp4czQbwrdrAKmRtNIRQUTuREXDjNGnsqIU5fX09OJkRRXByi2gmb7LN450A/GtatSsySZby6fCUzIoNp2thHnYOeqVWF3bsH8lfHPHS6AEzmUK5fnUWTxtIvrA7N6ntyLX0mpaWRFOYFYDFEsjd2EOMGvaiAI4JFNrssKE6gifdOT0/nwIEDrF27ltjYj9i9+x22bFzL5vUr2bV9C9s3b1MM9zff2s3iRcvo2KEt3p7VFf9yx+ZhlBTOIjfDH21eGPcyFzBudD12x25UwBa5CaHeyba81CrVFe5t5H9iDh5LsDlZDmKIEm2yMTFkMqJ+VaWaB5On9yEnPwqzaTqaghAKsucwbGht1q9/VRWiWg1CILXz64kvnWCrLA3tPPjsSAAlWoncBVKim8XBg+PwqVFZnYX8/Bpw5foCFS0stU+goGAqf3q3LwGj6xI4tiP+YzsxdIgv48c0ZnJoGzZt7sa1m5MxWieq/JnVGsl3X4crxbGnPHwJGeNLQZ6oTEv3nkD02igWzm7LmldisJslGuZUDhNpdWG6y4LyySef8Nxzz9+vnK5Ej54N6devFiNH1GFCQEPGjK7P2DG+jB7TgLDwNgwb8QwhQQ2JnNyI5ETpODQNvS4Yh3kGly4tp11rL349+p3yanpjHlabE2xWq5zf3GD7T8zBYww2iSYZyMvLoUnj9nhUqq4CE2s2j8VgmE/m3WB0BZFcvjCHunWrcvizw6oK3KSVMH0+b7y1nmpeHgpMLZtX4+LFaAqKQiksDKTEEMPKlX3VWU46jS5a5EdRyTIlwW7UT8BqDaW4OJxbNydz994c7mXOIzt3riqDKcibT0HhLEodUWTljcVoCkWnWcq6VcPw9qqqND32bB9JiWYWWfn+aAwRpKdPUeVAn33yOaWl4lkkxyOyfMKOcRr/m2++jZecLz2r039ILY7+Mps7mYvIK5xNTt5MsrKjycqZy83bUWQXzONWhhSZRpJxNxyLeTIlen9yC8eh107n8Mez8Ov5PDeupKs5tNiLMRil+l22ov93iMj/CcD8K+/5GIPNjK20iNTUZNUaSOnw+3jw/mFpN7wCTc4Mykwr+fVoFC+08SblwgUnW8AmZyE7i16ejZe3pyqVHzO6Gbm5KzGapNB0DtfurGBi6AuKmCzh8Xffm4TNsZqSEuFYTlKhfJs1FI12AkZbmBo2KfrUhqArDkFbEolWE67yfDbzy5yJX8rwIa1VXkvC9T9/vRiD8SWyCyeiNy3ii69C6N+3JedSrlFWXqLk1eVc6iztKEej0TFzZrRTd6RSNYJDG3DrzkrMtiVYbNMxGidhNk3BZolCkuF2xyystghs5ghM2giVxBcvWuZ4iaL8LUSEdmTDqsXoNFJKo6e0XK/SF3YpD3GD7T/m2R9LsEl3UdlCGs1Z/PLLz85+1ZW8adaqGj8nrOCvjpXYdYvR563g9a2DGTaiA1dv30NnFG9o5vLlDHr37aO2ZE9712DlCullsAm9dh5l5qUcT5jPoCEN8fL05Dnfp/n+h3nYHasoKpxMuXUOpcXzKbcswqKdicUwg786ZmMzRGHTRFNmWoTFMBe9Zjp283zSEqcxP7Kn6lstHMdGL3iT+OtmbKVrKTFEU6LfwFv7Qxg/bhQZ98xYyvMfVKoL4CTHI+e1QYOGKG6kNC7ctGYcuuL9FOYvxKCdRpltBuWWWaow1aydgVE7U20XbbpIyi0v49AvRK+Zx9lTC4iY2AvfOlU4E/8z5WUO7OVFCmxSsKn0X8pFnMa9jfxPzMFjCTYhz7rY6StWvKJyUBKJrPVMdcInjeeVVSOIWTuOWfMG8kI7b+YsCEJnyFRAk8DDzz8l4uPzjGobLADoO7ARC5cOY8nKwcyY14n+Q1pQ69mqalsquatxQe1YtHwwK9b1Y/q8FiyNeeF3x6LlfYhe0IfR/m1p1ETK8T1UCkHYHyLs88rqYUyL7sHyVQFMiRxA63a1iFk5G60uG6PU2d2XenD94F9//bVix0jbWumoOWdeO+bNb89Lizvy8rIOLFneliXLW7P4lZa8tLQ5y1e2Z8Wr7Vn4ciuWrmjHKzFd1RmuVcvq9POrrVTTRH7C9f7CsHBVUbiec9/++xecxxJsAjSD3kJRUTF7977B5MlhTJ8eTmDQKGbNnkxgcA9CwvsSOXMMM2YG8ZdP/6QaqysDKisnLi6BoKBgpk2LIHjiGCZH+DNthj9TIkcyMbw/UVFRhIdNJix0Mv7jg4iICCd80mimRg5TwrERE0P5vREY2pFpM4cQszKabdvXsnr1ambOnKn6vIWFTyB8ih8jx7YnOMyPyVNGEz1nMt9//5WiFknlshi+eDSpqxJSbVxcnJJTnzRpEmFhYYSMnU7o+OlMCookIng6UyZOIWJiOBEhE5kUHMTEwOFMmjiK0KBhRISOZfb0qSyZ9zKH9h8m/66RgoKCB4AWloWAzcWwcNUJusHmBptzNXapbpWXK2JpXn6Wah8lPbQKCjOVgJC0mMrOvudkft9/vV5XhlbjDKffvHldceBEXEanM5GZkU9Bnp78XD0F+UY0xSLlV47ZUIbFXI6mRLQnShRbRVOSw++NYu1tRD9T0YVERsJcTlGhmeJig+pq6igTvQ0txcV5SqVK+oAbDDaljWky/EYJcgFADD8jI0PJPkh1g4jgFhUVoNUUq++k0xXhHPlotXnodXb0Oht6rQltiYG8HC33bpdQUlCm9GFcQBIPKsB+2JM+THFyvc59++8B3mPp2QwGq9IoEcqWk7smak+u5K9d/U20SgRED7acArj7WpTiMSToIB5SaZqIWIsYuQjH2ERjRSqjdQhTxWl8Ut0g72+krFy0V0T45h8PZZz3AS66l/Le6nNcoNcbH3n84Hvc/7sYv2tr9zAQJKEtnkd6h4tGyG9D1J1+U72yl0n/Z43qLy46Mb8NM3YhG98/kz3M9ZP7Dz92vcZ9++8BmszjYwm2v2cA4gWETSItf/9exbELNAbDfWm++4bt6sOmhGUUoCSIIuF3MUqp7TJjtUmfAddjZ1JcPuMfDadymDNv9QBIKgDhVAtzfX+ncYtimFl5ZgG3qInJ3x/2aq7Xu7aXD8u2qfv3VbAkwCGgllur1Xlb6pCKbJ1Sg1LKWHazYt7Ie7neV24FxA8D++G/ue//ewD3WIJNVLekDa8Y1d8agjznVGVyGrELRNLPzaU7qaKZ93uwSRdTUWJygktC4UWYTE6FLwGKDHn9w57pN4/ysHf57b6LWuW8FfqT5M3Mqte38zu4PLF4S7vyokrNqlwA4DyvCUvGBQi5L0O8nVyvhOvLyg33h8tzibdzDqNJZCOcYJP5ELk+JUunBFHlM52q0g+DS8DmZOb81zn92zl2P/5jc/RYgk2vl2JA2do5L1q2ijarnK3sTlDcL2p1gU6Swy4mxt8DgnOLKHqVYujSCMG55RRRIBfY5DnZDqotod0pxSayZX9vyNZWgCFe1gl2Zw8552cLWFxbXlkwrErMR5SeXQuD67pct+KVBRgPzlOyCIhnlT5y1jIlE694jQ80ROS9LDhKZdFwUKYaXjpJANIFyPW+D3tPuS/v//Bzrte5b/8YuP523h5LsMlFqP4ASjfSqgzO5YXkVoCo/n7fMynhzPv3JRAhnkH6sIlByhbOKmXyD53fXDqBUsojrzGai53G65DHdmXAYsT/ePyWmjCbxWOIjqLzOQm2uDRTBEDKiz60aMjrXH93eTIB7yM/3APNxjLK7KJ9aVFKxq5FQ95DyNGl4pHvLwgCzjKbnEud/cfd57N/D4Ae+V3+m/zkYwu2/8lFul9b8YblnvP/OudusP03q5HbaP6r0bjn5I/NiRtsbrA9ukV1z8d/bD7cYHMb13/MuNwe8FEP6AabG2xusFWQDbjBVkET7V7lH13ln8T5cIPNDTa3Z6sgG3CDrYIm+klcyd3X/Kg3d4PNDTa3Z6sgG3CDrYIm2r3KP7rKP4nz4QabG2xuz1ZBNuAGWwVN9JO4kruv+VFv7gabG2xuz1ZBNuAGWwVNtHuVf3SVfxLnww02N9jcnq2CbMANtgqa6CdxJXdf86Pe3A02N9jcnq2CbMANtgqaaPcq/+gq/yTOhxtsbrC5PVsF2YAbbBU00U/iSu6+5ke9uRtsbrC5PVsF2YAbbBU00e5V/tFV/kmcDzfY3GBze7YKsgE32Cpoop/Eldx9zY96czfY3GBze7YKsgE32Cpoot2r/KOr/JM4H26wucHm9mwVZANusFXQRD+JK7n7mh/15m6wucHm9mwVZANusFXQRLtX+UdX+SdxPtxgc4PN7dkqyAbcYKugiX4SV3L3NT/qzd1gc4PN7dkqyAbcYKugiXav8o+u8k/ifLjB5gab27NVkA24wVZBE/0kruTua37Um7vB5gab27NVkA24wVZBE+1e5R9d5Z/E+XCDzQ02t2erIBtwg62CJvpJXMnd1/yoN3eDzQ02t2erIBtwg62CJtq9yj+6yj+J8+EGmxtsbs9WQTbgBlsFTfSTuJK7r/lRb+4Gmxtsbs9WQTbgBlsFTbR7lX90lX8S58MNNjfY3J6tgmzADbYKmugncSV3X/Oj3vz/AbX8uOpIBWZVAAAAAElFTkSuQmCC;" parent="1" vertex="1">
          <mxGeometry x="97.19" y="560" width="109" height="86.11" as="geometry" />
        </mxCell>
        <mxCell id="wJXbaJ3XNHEv-SyZ_-ga-4" value="" style="shape=image;verticalLabelPosition=bottom;labelBackgroundColor=#ffffff;verticalAlign=top;aspect=fixed;imageAspect=0;image=data:image/png,iVBORw0KGgoAAAANSUhEUgAAAMMAAACxCAYAAAB5lQlgAAAUpElEQVR4Ae2dzcslRxWH338uq2EWwmwCYiQbGQIuQmAGAsaNBAJDNoI6IAyiIC6S4CwEM9FFdMagyfiREJAMUcFJomI+ZibOruW5M+e+9datrq7urupb1f1bNHW7+3Z31anznHPqo6tPHj582JXYPr3/afft3z3TPf3LJ7RVJoOX3/5WkTovoUdL3vOk1MMQuECo1xD85P3vCwjPERSB4eY/fy0QKvMGIcP01/+8JyAcIIrAcPk3XxcMDcDw4u+fEwwlYfjLv94RCA2AYJ6Ctl2pULm1+2b3DK9+8GPB0BAMhLStKW2p/GaH4YfvviwYGoLh53d+Khgeh0qCoSHFtdAmZyoYTocWBINgkGeQZ6h3DCCn5R+6lzyDPIPaNY89omAQDIJBMByEh2ozqM1woBSlui5rv69gEAyCQQ1oNaBpXKvNoDaD2gxqMxx4RIVJCpMOlKL22L5U/gSDYBAMajNsp83wzK++snvrkBeueKmHdgIT9JhhrFmrajOsss3AeySm8Cj7h/+90927d0+W/7HlHwqvFCY1GiY99+ZXd4qPlcfCS+lPLfyQ0vedFwyNwIDyf+9PL3Y3/na9+/jzu7L2ida+T/FDxwVDxTCwuggvSxHuhCpPx+Z7A1eG2WGggTY0U1Ln+xvvAEDoI+ufV9Fdpe/7nR0G3LiUvV/ZQ7KhtwcjIg+wPAAuGNlhwKKFKlzHDgGh9wcvcKzuTRrdd+7c6W7fvt3duHGju379evfKK690165d665evdpduXKle+GFF/bbpUuXOrZnn312t9m++x+u4Vruwb24J/fmGXfv3q26oZ8dBkjTAmKHiu8aAyBY6kV8lP3WrVs7xURJUdyLFy92Fy5c6M6dO3eUjWeTB/JCnoCGPJJX11Iv/bsIDHgHXL+rAPr9xE4mhJElKhkrj/VFsbDOx1b4qaABCp6HMlAWyrRUt3ERGKhstR3OegdWDckZDhFyEH5gWVGe8+fPH8XKT1X6MddRNspIWfEgpeAoBgNAaA2lJzrGBxgUy+ENsJLE4mtX/iFQDA5kgUxyyJZ7FIWBB9BA3GqIRNtprjegsrGITz311Got/5DyD51HNshoLhjFYQCIP3z02821Ieasck0IhNUTAOMb+MgM2SHDsR5jERjIFI1qFrrdgpcgPBxbEfwfy0YPy5rj/yErn+s8MqQRPqaHajEYTDnoUiSOXisUUzwCENBnn0sRdJ+zHgUDkwJFdhhS1/ynt2ltUIxd4p0KoqKkvGeVt5Q88BSx8Ck7DFjGMY1GoFjD564YVxlTbvrQjznwVUrhar8vMmdU3CIVN80OA/3pbO5DUn7jUZii3OpgXepgGpZJIdEyniAGJh7ZH68oAgPtgal962SQdkVLYDC9IgV4wiL1EB0fBIOEUXo3bCoGAxY+xyxMumXxNChcrY3uFK8ACE8++aTaB0eaD2UA+CnGyYAoBgOKSwM5BxBmdemeRfGAo6Z2xlBbAW8nj1CPR/CBwENQR0VhAAg8BNbdFDpnSgEIxxjlJqwCkKXbHDxzqEz0YvgVoP264GAEuzgMFtqM7WUaUrDYeTwIkOBFeC7TIgizSnTlAmEsL4RHUvy6FD9UHwzSLQaDhU2lvERMIf1zhDWEbwBDYx1o8C6Aw0YYhpLbBkz+xjn+N1QeeYX6QTA4FoXBvASDU6mDc74it7avtoJgSOr5AYqpXbCtQKF5RoIhCQbzFMTzhCpDvTKtAGD5pIFvLlhp/VAcJUwyCPyUniBi86E43JSt9lQw1A+Aa6SqgsGFw8CggduqxxAMgmFUiOQC0PebLlF6b/AYKFjtHsHyJxgEQzIMKDmDVoRGdGnSvYknoFFN12erHkEwtAWBhUqLhEk0kFF43gBD2XNO0TDFqzGVZ2gLiuwwoPCENFj5rYwl9IEoGDYOQ59ibPG4YBAMzTRwlwCUl0j0RlsbUGQPk5ZQsNaegYdg9TvA0Ih0vWA0A8O9B//rPv7sy+7Df3/ZvffJg+7PHz3o3vrHg+7m30+31z+437G5x/gP/+UaruUe3OtYQAEG7z8zh956MZTWAcjRYUAxUVKU9rX373c/+uO97rtvfdF9580vusuvf9594/pn3dde/aLIxr15Bs/imTybPJAX8lQaGlsnSTBsDAYUC+uM5UbpUMBv/qKMkueEhzySV/JM3ilDbkh454Gp3gqhjgtFMc+AZUV5fvD2vZ31zamgNdwLj0LZKCNlzRF2AYXWUToeENlgIBZHMQg3SoY2NYAQygNlpuzIAFnMgYNl1/UexPJQzIIBi/izd++v0vKHFH7MMTwHspnqNWho816u2hPLQTEaBqwejUwqe4xybPm/BsYUj4GX0BIzywCRDAPdky/drL/BWzt0yBBZjgmjWNdHXbHlgRiEgT7759+QF8gNGd4C2aZCQdikZSnLAtELA9ZLEJT3hEDBuEYKFAJiYRiIa+kVyW0Jdb+4TAmfUtoUAKGQKT8UjPOc8QxYqC12i9YCKrJPCZ0Yj9Dkv3xAHCwvSTdgLUqx9Xww2j0UNvGNAXW7zgeCnjqMC/LeeQZGUreugLWVn1B1CAg+gSsgpgPBwKaBsIMBK1SbIig/j9oXGKkYEEz0EwzTYKBnzpaiNxmfSPHiDdtjy4fpHVZZoVTeYRwMTIbk07ghWQqGQtPDc0HErNnYLFm1HdJhwBu4YZEPhGCoHAagYvqLX3G2j6tXqBQHAu/JtBaTWV8qGBqAgfcp+iqQ45rhGoYBT5ACgclWMDQAA+MPVmGhVO9AnMJAVymzfWPhUEiGDGYKhgZgIFQKVaAd2/oHURiARAZ4AZTa5DIm3Y1A52ro6T5le6ViFbvF9x4YNabccwAwmVonhDzDCjwDXYVrb0TTLsJ6o7j++IAp9ZSUJXzs3XPBsAIYUAIUhIrFWtKGaLlRTd4pA5BTppzK7wLjGxHBsBIY3Eq23ygRo9RYU4OEbsYa3pwjD+QFa49SkkfyOjXmtzKnpMgl1OkgGFYMQ0wxUDp6XFBArC8Lm6GUQIOCoixsdE+itMTosY3/8F+u4Xo27mWKTmzPs1DEJRS+r+yUtc8YCIaNwtCnLGs9DogAG2tbCQbBMKkrshVo8EihkCgEhWAQDKuDgTCMNghhXUjp+44JBsGwGhgIhWirTH0LUDAIhmZhwAMQBtFQz9GVLBgEQ1Mw0ANGzxftgKkeQGFSI0rfN60l1mC1rlHChGN2W8byOOWcWX66Z1H+vi7RPuUee1yeoRFIYspEmOBWvD+CizWtGRLyRh6B2hQ/R9jjyiTlt2BYIQx9FY+C2agvABFuoIB4FJQx94AYSs49uTfPMA/Gs7H05KW0te+TRei4YNgQDCEFCB0jFgccG3G20WVGmG2UGWW2fc6z8X+uQ8Fzx/OhfOY+JhgEw5kQK7eCtXQ/wdAADENvuvlthpYUsKa8CoYGYBh6B1ownL72OQcuwdAADENrJwkGwbCJlQCH1k2iy1UwCIZNwJDy7QbBkAkGFqjqG/XU8bIv+Q/Jl5XRY4Ntdk4wZIIBgWrx4eMqfQiKlGXpBUMeCKzRvf9YCR7i6df07baQYi59LLacpAHgpvIMeaDYw4Bw+Y4bDbalK1/PeyRzZD/2S6DUm2AoAAOCZcVnhU3LGwS+xRBbbdv1BP5vwVAIBhM0X7ZnsEdWu6wMkPF7n8S/9jkEiWCYDwPzqc6ESQaCm+K2BUV+IJBpakg09NFDwTAfBt6ZHoTBwMBT4Mr1NdDpYCA7ZDjkCUzmlgJOzDsIhnkw8N40sk6GwSqGSmF6ABWk3qc0MJAVMosptMnXT/EKhKqxawXDdBiYim4vPp1g8f0KSN3nI94C4xAIjIQBkPKh8z55c615YsEwXeFtHMFP8QgGAnVwQnfenAqziqSymDpAT9Tl17c3XkGZKTsyiCmuyWsopU5cOcbuKc8wDhRePKKN4NfBbtYqQMzxEP5N2Tc4mFKAlTQLt4beKcpCmShbLuV3ZeiDoDBpnLL7HsDd5+08XkN15W2/91O4qeCUSWF24ZSUSuYZKBEf/cby1QwJeSOP5NUUP4cXjcmOHqaQTOQZ5gHB66i8gx2T/R4Gs9hzBn9iD4qdo6LpYaGxyFQEwg0UEOuLMuK5QgpieR6bci/uyb15Bs/imTybPJCX0krvywMZkIe+sgiGaTAAAQsfuG0DX/a2fwADlYGiDL1QYjdYOkUpUFTCOpSWDWvKhtdhs307z3+5JqZQS5fDfR6yRuZ9IHA8lne1GQ5BYYECPEEKBFYXQRisUrCcpUMny8gWU2T7/BtpnQ2C4VDh3bYAvxlFxjD0tQliOgY0URhcKAghYhUSe5DOPdzHqsgQT4ChMfmmpDHZb9kzAABdpKzLNEfPkGESDFZZxNpTRlDnZHIt1xKyzRnBFwyPPAMfI6RHiJX35gJgukU4hWcZBYNBQYplo4cld5esZXANKbJBRmO9gCtn+x2DgcpEQVpcuMsPdfx9ysQoMcqf4zO3vl5xz6xf+6Txl3PAyc9wK/soLI13ZJEDAAOBNAaDKx/iZeBw1yy1yvYVrbZ9en5M8SnDlNjflcXQbwbeXNlM9gxuRbm/mYpAo9D65VMrcSjjNZ435aesdNGWnKs1R440Dg0SuhmJj1E6elxQwCU8Cs9g+Uk8GDE+eSAvWGbyNqbXZ64u8Czy4BuD7DC4YNhvrCR9+TTC6UFZug9/rvC4njxj9SkDZclt+U1WfekcGFLKj4K4iwSjpFhnrCdKy4a38Tc7R8p/uYZrSy1mnFKW2H/IGwbAB4H9RWAIVTCNcTwIioVlpYcFZTvmeIApPHkhT+SNPOYc8AvJIuVYaRhiCrSGc3gfvGEIAjt2NBiGFAAFxPoSfrx083SUGCXFOqOwtjFqzIbXYbN9O0/KNVxLPE+vDve0Ee4alH1IHoLhtHt6DJxAQEjktg1M+f20WhiGlGNr5wXDOBgIh2if+Aof2xcMDay1CviCYRgGvAAN8742QQwEzgkGwTBr5HZMyFLivwBAo37sN59DYAiGRmAooUgt3pMeL3qsaAdM9QAhEOQZGgGBMCmmuMTHdGtiJWP/a/EcZaJsKH8O698HgmBYCQzEyVbJDG4xmIbyoET092NNaweBPJJXxivIO2VYYjDQ5CYYVgiDW7nubxsBpq/dRn8JN2xwrOQIsDuYxzNRePJAXrD2Syu9Kxf3t9oMjQARs+yuZ3Ard8pvFJNYHCXFOtM9idKyYbH9zc5ZyjVcyz24V0r//pR8lrhGMDQAA3OeloKhhJK1ck/B0AAMzAoWDMNvus2FTjA0AANzpASDYBj1auRap2gwgVEwCIbNw8CEwhgInMvZgJ4barR8/W55ybVa1NbLxWzalHc/BEMer3HCi+otTGFuXbHH5p86oW6GvII8Qx4Q8Gi7JekFRHwBr7GKPPf/gDDUTnAhkWfIA8T++wys5LD0q4xzlWaN11MHY1ccEQyZYcDSMGc+tt7nGpWvpjJNXedWMBSAwVwvYVPqsoc1KVOrecEbjAmLrJ4sFQwFYTAh8+6wQqdy7YnUBZ6H3nITDPNhYB7Vvs1gAIRSXrCXp8gHBQYGQxOSdegYixyEjtsxwTAfBmbSJsFgQid8YmpAycWyWg11hvKNzJDdlHCIVTysDkKpYJgHAzNukesoGKwicNtYNkZHBUa/x0A2yAhZDYU6Jls/xSsAmn/c3RcM02Fgirq9y3GSMsLpCt7/bWBg9TR490gGyGIOACZj6sY+YmLHQqlgmAYDHsFAQK4ntAWmWq1QxdBHzoJdWESryKEQouXzGADCGBYoSx0xDsnNP0aduO00/7y7LxjGwcALR6yo4cqQ37sp3DTo5noI/8a2DxxYSfrQUZqWvYcpPmWhTGMHx0wmQyl14ffixQyWYEiHgbfweNU1VAf79xmw4jktW+hhdozKJhbGg9hSj1R+De0P8kBeAJe8kUfyWspYmEwspQ5CHlUwpCt8aOYsXaf0GLlhkcnc0j0MhCooAu4+Jni7sFSK0mFxUUCsL8po66MSi6OkhA8oLBuKYxuWm832Se1/XMO13AMl557cm2fwLJ65lML3yQ7Z9xmEWJ3IM/SDAgSERDEIrD7OwGCxOwo0pQvQbqp0eClEV0bIGpmb/EOpYOhX+JAnYEGCIU/g1gG/gzBYZWBJlwqd/IxtYR/ZImOTdywVDMMw0DCmh4hF1aboTxQGqxxCDEahpzxA1xx6CWSZCoHVgWAIw0AYBACsx5QSCsX0MQkGqxBicOLaY8fWsQLVeg6ZITtkaPIckwqGUxjoEaKdhAeYC4CrL6NgcCsPy0bjU2AcWn4TMLJBRmO9gCtn+x2DAauIgoRi59aPEfqY8lPOkktlTobBKomUMIqemVL97qZcLaTIAFkgE1dGc3/HYDC5YCWPvV7pHPj4wLl9AJHGL2XJaflNTn1pFhjciqZrk9FnFGILjW9T/tIj7ikw9FWyLerLQsR0M7JEJEpnS0DOUeAx1xLfY+VN4clLTYsjZ4fBBYPf9JtjJenXJ2QAkDkV21fhpY+TZxSfMlAWygT4fnlL7ZeUGdaXpd+xxMThhCMoKdYZhWUjRu/b7D+kXMO13IN7cU9gXNLCT9WF4jD0KQcNSaypDX7ZwFfJSh8Skik8ecGzkbfSFr9PPv7xY8plSG5rOX80GPzKdvexuAxC0fBEGW3EmN4YlBTrTPckSsvGoBUbXofN9u08/+UaruUeKLlNA+EZPGtJK++WNfW3YOjvqMgFY5UwpCrIlv6Xq8J1n36oBEMDCw8DvZS4X4lzyUYwCAaB9vARaIJBMAgGwTBtWsSx2im5QgHdpz/ckmeQZ5BnkGeQZ5CXOOsl5BnkGeQZ5BnkGeQZ5BkWm0+Uq7HN1BUp7lnFLSEPhUkNhEksYlCi8nXPs4AJhgZgYI6VFPes4paQh2CoHAYmEpaoeN3zEK6T2mdr5oq7W7wPdaO3Bw+VthTIJ0x37lu4qkUFWkueqROFR8uBAGC7JekBQh6inq5WgbAsBOZp9t9n4KWYqcuYrMUa11AO6oC6sApSuhwYexgQOm9T0Y1Xg1JsMQ+81aeld5ZTft/Q/B8HzsIPaqegbQAAAABJRU5ErkJggg==;" parent="1" vertex="1">
          <mxGeometry x="104.73" y="330" width="89.19" height="80.96" as="geometry" />
        </mxCell>
        <mxCell id="wJXbaJ3XNHEv-SyZ_-ga-5" value="" style="shape=image;verticalLabelPosition=bottom;labelBackgroundColor=#ffffff;verticalAlign=top;aspect=fixed;imageAspect=0;image=data:image/png,iVBORw0KGgoAAAANSUhEUgAAAM4AAACiCAYAAAAJKfLlAAAgAElEQVR4Ae3dZ8xuRREHcOyFqNFoLFFjCxpRY4s1NiCKghF7QSI2itgV7IpYEUWxg9jAgmBHVCwgNrBhb9hFrIgNlW/H/A6Z69x9zznv85zL5b73ZT6cnPJsmZ2d/87s7Ow+25x33nldXcWDkoHlZGCbYthyDCt+Fb/IQAGnNG5ZHDNkoIAzg2mldUrrFHAKOKVxZshAAWcG00rjlMYp4BRwSuPMkIECzgymlcYpjVPAKeCUxpkhAwWcGUwrjVMap4BTwCmNM0MGCjgzmFYapzROAaeAUxpnhgwUcGYwrTROaZwCTgGnNM4MGSjgzGBaaZzSOAWcAk5pnBkyUMCZwbTSOKVxCjgFnNI4M2SggDODaaVxSuMUcAo4pXFmyEABZwbTSuOUxingFHBK48yQgQLODKaVximNU8Ap4JTGmSEDBZwZTCuNUxqngFPAKY0zQwYKODOYVhqnNE4Bp4BTGmeGDBRwZjCtNE5pnAJOAac0zgwZKODMYFppnNI4BZwCTmmcGTJwgQDnv//9b5evGpFrRF7vMrBJwAmw/Oc//+nyFd/XO/OqfRfdAWJp4AAFkPz73//uzjrrrO7b3/52d9JJJ3Uf+tCHug9+8IPdCSec0J166qndT3/60+6cc87p08pTQnbRFbL12PdLAQcAAOYnP/lJd+yxx3YvfOELuwc96EHdzW52s+7iF794f13talfr7na3u3V7771396Y3vakH1Z/+9KfelFuPDKw2XTQHhIWAE1rm7LPP7j7xiU90++23X3eFK1yhB8rFLnaxbpttttlweXcB0qUvfenuDne4Q/fqV7+6O/3000v7zJiEFjDXJjAXAg7TjFl2+OFHdNtvv313iUtcogdHBszQcwBo22237R72sId1n/3sZ7tzzz23zLYC0FYvA5PAoWlcf/7zn7vXv/713XWve92FANOCCIBonx122KH71Kc+1WueGknX5kha/bJYv0wCJ5wA73jHO7ob3OAGo6AJ88y9BU28B3h222237hvf+EbNeUrrbNVaZxI4HAHf/OY3u3ve854rAAEI4RBgut3pTnfq7nGPe3TXv/71N3xvgeT9ile8YvesZz2rN/1osxrhFhvhik9ri0+TwPnb3/7WvfjFL+6udKUrbQScAM3lLne57ulPf3r39re/vTv55JO7L33pS91HP/rR7jWveU13l7vcpQdQaJy4A9stb3nL3n1dwFlbwlDgXLw/BoETc5vvfOc73X3ve98VJhrh53Y+/PDDu1/+8pe9i1qeMO143zgCHvrQh/bgyZrH82Uve9nuGc94RveXv/ylNE6ZbFulDIwCBwiOPvro7kY3utFGwCH4l7zkJbs3v/nNHYAMaQ3f/vnPf3annHJKd9vb3nZFfsC73/3u1y+eDuWvkW/xka94tWV4NQoc8xsLnLxhYWaFiXave92rjwwArrGO8xuN8pa3vGWFyaYc5tqHP/zhQeCNlVnft4yQFN9X8n0QOITe/OYpT3nKBtAATwDHguZqZhZNAnzCbyyWBvjiztSjtabAVx22ssOKJ2uDJ6PA+cMf/tDts/c+Gwl8AOcDH/hA9/e//31U2+hcwAGK733ve31ITgAm7hwLr3zlKws4NceZlKO1OlCMAuePf/xjt++++w4C5z3veU+vkaYaFcD57ne/22233XYblQM8oglortI4a2MEnerL+m1lHw0Ch9ALjeH5Cg3hHhrH3AewpBtjapTBRX2pS11qRTnXuMY1ure+9a2TZYyVXd9XdmTx5MLlyShwaIKDX3lwd4VtN56fAI9FzO9///uTQi8/cw/I5AkAenbd7na36wNGp8BXwnDhCkPxe3F+jwKHQH/yk5/sBbwVfO5k2wZ+//vf96aWtPkCGnMg+a3ZDOV/yEMe0v3oRz+aBF90pLKVydkQF40YV3yTJuiIvHVfXBiKV4vzahA4GEgAf/e733WPfOQjB93J1nIe9ahHdfbaEFxCG8LNI/f+979/I1d21jhCdJ75zGf26VfrrAwa4T8HH3xwHwLEueC6/OUv39361rfuw3g+//nP92AKAK1Wdv2+uKAUrzbm1ShwMAoghNMI8AzBj7kOLULzAMH+++/f7/782Mc+1r3xjW/sbnGLW6yIGIj88gjHEVkAFGMdEoChVQDCQqq5kvxxBQ3xjha0vutd7+oXYAtAG3f2GK/r+/J8mgQOwaM9Hve4x43uwSG8WYDjPYCS736zoCq+TdlTHQa0IhMOOOCAfh1I3lzW2HPQsuOOO3ZChpQzVU/9trzQFM/O6yaBE6O+tRgxa613LIQ3wBL3+J7vtALQ7L777t2vf/3rUW0TdZ555pnd/e9//z7PoqCJ+gI8d73rXfuwH1prSruVIBR4lpWBSeBEYUbtU796arfzzjv34FlGkANMl7nMZboHPOAB/RbqKSGmiUQlPOIRjxgFKoBEuVO0ACuav/a1r62q4aKt7R2tcbW/rZf3aJ87/rvyt7F2LpJmLO/W/n0h4ARDLWY++MEP7q561auOmm7tqE9LXf3qV+81zY9//OPJkV89TMNXvOIVfZ4oK98BBSCE8QjbufKVrzwK5kj7mMc8pqPBlL9Ih0lnsHBKz1//+tcNl3fewqly/JZ/j/d8zzTktO331YQ4l+k50ofg5/KGnuXRTssGZ5xxRh/lYZOh8yF4PH/7299uOKko8iv7H//4xwaeBH/020XJLF4IOJlp5h1Or3GSzXWuc52OJmlHfe++22ptu/QRRxzRd8CYkCg/hODLX/5yvyluqEyAueY1r9nd/va3717wghd0Rx55ZHfooYd2u+66a3fDG96wj9oeyoeOt73tbQufd4AWHsWjjjqqr0M9rne+852TTo0QQoIYbfXtV7/6VR8JThhp0xBsaRyj9a9//WtDet+Ylj/72c/6POZpTFvl8GCiSxqXeuI3Qi6t47pctrtLE33X3v2GFtr4ec97Xnfzm998g9MFnw1Iezxyjz4QN4dXGTy+8IUv9E4jjiN8cXfqUdDW1rUe35cCDmbr9BAQMWuOh+KaDq1AcM1l7Bp1zlpe65lioLKNZM95znN6F3MLAJ2pc23jJmhoCFp0LM+bqO0czR00yfvYxz62+8UvfjEpTEGfcrm+CY+8cXF/C3z1e6SNO/rP/O2Z/SAhJEka3wjwk5/85N7TaO3KIIInAYRdd9m1P27Lu7LceRwf//jH94OONj3/+c/vIzWU+5KXvKQvW/mAbDetKI4DDzywjzi3C9fcDj/UH/Tlu7wOX3nd617XWw7RPjzPl++2ugNn5AcO7eHBjHzuPKlf//rXR+uM/OvlvhRwcqN1ik52+Ia1lBBSjPd+yCGHDApYLiM/68wzfnpG7xCIsuKuTFuyP/e5zw1qjaDFeW/3vve9V2hAHXurW92q+8hHPrJQx6KFySJCImhwt5jLIxhCnukPgaeJn/3sZ/faIYCz11579eFFAHHnO9+5H7GlJ/i2V9CGTB3ptYEm9xuNQGg//vGP96amkR1Q5HUZRGIbujtQMbl+/vOfT2p4dR100EGrmtv4xilEY6LNxeR90pOe1INGv+CL+21uc5ueZ3gnXebNenzeZOAcf/zxg8B5+ctfvhRwCIIz26zXZGHVKTrQ6BjCNdQROsvmOcJpThWdGh1L6F/1qlcNCn1b3rLAUTezyUlANuhxoeOLcphXgGN967TTTus1NHNUelqZmbTTTjt1v/nNb3ranva0p/X58UO5cSmHtnr4wx/el618sYTqogXcnXfnOz4qT962bb598Ytf7PsMXzOv2+cCzri3cZOBo5OGNI4JPsFpO27snaDYn2O0zR2o85x58IMf/GBQEHJ56jPi7rnnniuAoxxmIBs95xl6XhY40gODkfi4447rDnzRgb3WMR8M4ACPhWImlfkLM9fczHzEQSc29TFBHeBI+PEjaCPsysEfp6busccevdfxjne840bAMehw9/v9q1/96gp+KQetj370owfng8wvDhfanVmKZwYCWk9eV2mc88G0poBDS7UHg+g8dnu2s0Og2ruONZILy5EvABhay/zE/KLN174vAxx1Mqne8IY3dAT5ta99bT8/sQZlZDf/ABoawbwDfeY95jtCloCBFgEioDYXA66scdADOEw15ZgLSksDZVMttLI5X+TPbUOr30SmtxrZ3JCZ66CVMAm1QUximWorNc/SwMF8l87k/TE6Dmkcm9Si86TPHTj0LO1LX/rSFfMKACBUvEZD+fI39RBUnrYh4NAIRsycZ+h5WeCYDwGB+Q/gED5gsN8I4Amf2D3lupwE5PeXvexlfXomnrmOLRjOaRA5zktlvmPxGY8BPgRaGfgVzgETfQASiW7JQB5gbtsmHwcJrdICxxLDV77ylQ00Mntp+U9/+tM92JWFv6VxZmicAIxO+da3vtULA7s6RxToEKOX9R7mh+0HRsjVwEMQCBB3c2gKdwAQf8a8aQWhfVcHQWX7DwFHYKmRu83XvhOwRZ0DzCsOEnMVoA2h1nbA4SI2IIgUR5/BxiQeMJhykd7ZDNLhA2fBXo/fqzvkVYf03zgbaCpl0iryuADwsMMO6zWYOdQTn/jEHojqHTJt5bGVnbcwAwevmHkRYYHO9goeFXCWAA4mYrrO8zcePDKAYX0E03MnEHbvXNQ3vvGN++hqnW1inNcroiPclU9g/FUIt2YGjrLUIYDUKChtzhvPUQaXqDIyTVEGEwgNkWfsrq2LAgdNFnaN9EGbO14BjUm6eUyYmoTTyE5LqAcNkZ7X0De8sAiJHzyBQKAe2oI2kd4V78r84Q9/2H3mM5/prxNPPLHX0NLkNiqbVmuBY+ATBa/enH7ouYCzIHAwH0MtlL3oRS/qRyYahTBm4czCHuAJgbVNmrllVP3FzzdeS1G+DuUZYuJc73rXWwEc5VjPYLoMdW4ug8nSgtn7ta997d592wrTkHCgZ1HgyK/MoXLje9yjrva9/R6/t/fz/rvS1s715/RRZr6PAUd/MmOHeJvzey7gLAAcjDbSGfUe+MAHLhWlnIEUALrWta7VzwNoH2W7uJjZ9QTePyHkxdQoI/Lvueeje4HWwZHf3bsR3amjrf2uDMBBv1GccLXC0L4rcxngtPnX6rt2DWkcwHnqU59awFni4JRR5wABMzcxAbVRjEAT4BDmZe/yusSYCeAEFhrERJ7XjFaaKt9vALDLLrv0cwST1tNOPa33VDm7gKlhgtuWEXWaiC/iiib0BZxhzYY3pXEmNA7QGMVNRnl7WmEEGt9chHnoit9bgPkOJFbYuTs5A3xr0w29R33AJ15tpx136lfip+ZaATYaZBFtU8AZB00B5/+8GdQ4QMP7Ik7JolgrxCHAfrvPfe7Tm1ncsJwARnYLkBYypRsCRXyP+1D5Q/kiXeTL9/gt34EG8I95/zG99tTxi1ylccb5VBrnfN6sAI5RmUdIYCHNkAWRoBJGgHGguiDO8BhZ1HNZb+BlEvpiXcGC5hQIovwAgfLlsfYh4tn7IvmjHPeg07nXIrm5oBfVNqVxxkFTGuf/vNkIOITLaGt9YMhEC9DQKtZnwr0sX3vRWjxlXKoW9FYTfmW7uLk5I6zb+OsQ8x/u0tXyB3ACNBwNgiABeRnQFHD+LxxD2rk0zoDGARqjM22TFzVjFKdpRARYm5B2iLHxLUDIa2btR/TskPCHoJuzWBnnMBAWonzABFALg7RQgEuefMV3d+mE5At3sVC7LGjWAnDaQSi/B3/n3PEUX1orYGvyqmVetM9zeDI3z0Yah5awXmNuEyN4gIZQ7veE/fogytVAk4nROOB573vf2wt+LtezcsVt2RzF6yV9m9+KPJPQ6rgwdx6+DBYdb+WbaXjySSf3i38WBXM5yzxr36a4o9sOze+r0SGt+l36I6741vJHebn8eB6qRxkWX9sF0AycyJ/vuaxN0Ti5zKHnXM/QszzBh+CLu29RXpsvvud7m2bO+wrgOFpJEGAWcELK+2VFGqHLVBSNFbXsEPdW6yjbGouNY9IOle27emkQ6zVWyYX8WA8CdDsrraIDWJiPQ+Us+k1HLAucaKeYOsIpWjpfvhntY/tApiXyaqMIBAGj5pAiIGzec2eycsAYQEJY0KndXPttXeapwU93m+zwi+s+xxbqZ9aFfwVv6bbmoz7LEujty5mxHyfa15aP5uCLiA9rhpkvUad24huzX6CuPU2ZN7ZisGoM0MEbd4NxrlN7yJny2nqWfd8IOEykNrIYY5loVpZ10rIVRHoCLeQeUFpQEg6BjJF2tXt0RDBptfTL/j4HOJGHANoPZCE2Lu8GHrFy5m7oD5qiLUxUmlc6TpmY14VJim++81Y6rsvgQdBEVxvocp3e8TMExN279Tib89o+UIet7kFv3JVpfYzQohety2qcaJ/I95ZO9agDEDK9mTcGAA4eFgVNaV8V+oMvQftVrnKVPupEOWSNLFtwz3zxjMfkJuqYe98IOIgUUNgyFnBMtCF6bkWIhf7WUaAuQuJvEeeWfUHnCxAssgOUYGibqATbyJk9uWM94x8zl7DnTou8IqeFGuW8eXCJZ0KiPOkc6siJIjDWt1yn+qzBaUcILoECOumivHzPghjP0m7KfpxoH2cSLZfpjGeeT7QSdOmjL9FO21nakFebgq5MdzwHb6zxiUJxiEiY9JFPnTYPbooZH/RtAA6i/Z8nzaKiIMgdAbbvakxkXPYurwBF4fS5/GiwOLZly9xc6dG6qKkWHezoK52b+RZts0efqZr5FwJt3ma01Kk572rP0hO6NqBVPr8xa9QX9QCOeL3M+0XqmLt1OuoN0LT1ejdYiAAhyNJHf3qOdcQ5ESvyWFxvearOzQIce9Wf8IQnrGAuQjA+Ny4auehdJ1rfsVErM9GzBm5twMEL2oPXLzppqF3sbwNSCHHwS16DUQhzzkuggy94A5DucfktXy0ApBsCzpTGiTpzucqZo3G0VfuYZ6FplJvr0O6TTjqpT5flyjM5YY5Ge3P7gr74bRneyLtZgFMa53wfvY5fTeNII9yfY0Mntp3L/ASa2D0ZgHEnHOaLtEWbN4SLwAlLYt9bV7PV+rnPfW63/U237021EMRcbzwrswUOs86CMjOvzeudAPrNXCcu8wnmZ2yJQPdqcxyAMfeydZ7Z1NaFNqDhGGgHE7yxR0n8Yqu9o234qh3MMTzBG/M80fPmgMpv64y8vl/gwEF0zXGmgUOggIFgZNDkjvJM4GymI3CtcBA+pgmTGDhyXh0cguXMAELYXjyHtLOJ9piQ+J6BEwLP/DGXVG8Ikzth5MUzB+V5ypd5hvlHAH4KODxjBB9oTOQzfdrpXVwh7552oUu5cXkXcWLxXdpMo/zo5ryysN7yxTuPpO3rQ4ODspSxWYBTXrXVgSP83lzNSDzWubxnBKwVDAICSIRxaEFYxxqNYydpCFS+K5OQMJ3tjJUnC5hndGXgRH51A8fmWsfh/rWW1pYfQgs0lhHawSToE7IVXt3cLs+0FwdV60SIvO54Y1BydgIe5DKChs0CHB2yJdZxTKyZRkOCFgxB25ZexzGSGZmFBbUdE53rMA1hPmPCoR027HGN5o5VnhV9a1JjeUNI8MliMRNlTGuNAWdzRA4QSgOB03O40zNvtNE7RwaNoP1D/ewbz6SgYXkyb2h6WoxFhDfBh/auDJfolyGNrMzNBpwtETmw227377f8GnEwNjMEI9ZK5EB0aO7UGMnCDYpWNOc25GdmXoyI8sZFuGxJb9uf8+Znddia3XoplaesMeAww1qNYEDYlI1s0YbgT7wHLY60Wm1AAAhatDUjlYlfTNfVBpTgj3TObTBPyn3lebMAR4VbKlbtJje5SX9gIDPGehFa1lqsWhaIeNYZ1ntomjCxpoBj3nP3u9+9F+4ow10n89BpdwjA1F0d+OSQxVZAthRwcns84w1NBDRjmibayAR797vfvcIpoC3OCTeoTvE1ynGXjtY317xQgKNCHbcloqM1EJOMCM5IxmznkK2l6OhWMEI4eL9OP/3bqwo9/jJH2kVg5dACMWBkIZh61leErdUgawk4okVo2dWE3oA95E2jDXkWF9XEARx1tl5LMrZZNE5UypYUIc38yMISwm2Em9qPQ+iduDJ3P06Ub4GMEORRI9Mz9hx0cltaYNSe1TouCyiBHHJHD9WnLguYTgnl7Zmqx29MjtYxoAzu1KmJb6YvnpXn2CnhKJlHawk4DoBnRaymcfDOKUT6PvOZDLzvfe9bGjisFXOuLD94tNmAo1M0MlZu24ZoFAIQ5LfNsQM0M27oWf3tNZQOjeLgaLAIVAyhm7ovA5zgB5AKoOSOHQOP79YvxIyhP2j2jI9zgCPw1paMXN5aAY72oUW8W7jmx/g+Bpztttuuj3FcVuPwrjlnTv3BG/fNChwdjNDNfeaAgDvnFGtQNC6EaeguDUbQhEudOXCfXZb6C4op4AStmd6gy8jPzDXaDQkIvlrDaDWEtvrGVBsD3Vh5JtRt2M2WAk7wJvdd8MaBjeLH8HaoLeYk9l21AzXvI0/vssDRBwB7oQJHw3Tg5j7lxqq6BTnxUMydLIyZ+Z6jA+aecsNjpeOGOq39NgYcncDdKmzImkSmN+hjcg0deB48FU7ikHVl5TbyJnG3jwlWS6N3aQlVuzFtSwDHXISbXtu4jzNvtBNNNHIblxbt0nYBqy1wLM7aTmHOEmlXu5Nd6e0CznxG02oaZ9GBa0OQ5xAxOgYBm/NcNSMDG9jOUvawU/KzQGXQbMq5auLJpvb85PaPASfWccyZ/P8Pr02mVccQGn+dOHQErTp4h/ytR+5QZRAYx10tOrLqYGahUVpZWVC9X9juaJaDxVWmI1NUezJNnjkxaEhtbAWUnJnLtMCRz4KyfU5tntxn+Vk6/3QHdC0NQ8CRnra3fcJgbo2MDEzVNwkcxMisodZ3jNo8QgQIQZmoLEAh7H7XiWKIpk7yVMfZfzm7O/roo/s5SS4r6lkLJ3kChYPVjZpsdv9C0Aotep3vxrkyFKeGlw4iaQcI5ShvSKiyUMSzjjUPtcbR9sOFDRz1MzUNTOi3wh8LkLkv0UV+0N22kww4ApgzILcnyuZsWk2YM2/C0dCW1QIHYFkIzg802DiAxr9ACEBloYyBZ1XgBHgQzWXIi7Po2dHWZpziv+jZ0Sd84oS+AzKzNRzD19rZ0Tqea9mAgL6W5nAWtOsP+Ghkjbld5NNO5pow+9UERGcK6TnoxQd1215+5UGOWwI4PIU8kfhi9CYj5qJZcLWVFjC3tXFPO0Iw3Zmx5AX9OZ/ofDGCovfxJgAydFcOzSd0qS1HmRk4aBVJAWRHHvn2PlodeDmTbIcAnrF550LACQIRhXD26KL/VmDzlrlSMCjKau8aYbWXQIUwuWv8Wvy3Au3BVAPJ0LoMuo3CHCy5/fhHWwlGzMLh2WU3pNEVP9TRXvIDje3VBib1ZH4Fzy5MUw3dARz0oZlpZS7YznekZeIKcjUQSx+ywESyfKBNuV3y2BJBmGnxqGOIN7yW5sHyy5d54z0DBxDNuzh0AMiaGNDQnLSiuDnTCPUEjXFfCjgyBbGIZ7K0YRKIM3LO+X8cedjBubEYsFb/HwcvDCIAz2mQO8oz2nfccccNIfTBP7yz2DfkEJEHeA59zaF9MCkXNRC5zK1EDzMX/RPEkHCsFeBoI6ETJTE036GNAKF1FpgSDIUk4Sczzt/KxH/2BF/wSNQF0AFGW1/IkzIycCywA4c+tFBrodX543bkKtvfseC35wBM3JcGTmQkNAq8IP/K0ITb/CAaGkIgesAoHXWP3dFEuCLCNsoJITbKGa3H8sd3nT60AGqkbP88V51GV4u9Q4JsPmjkDWeB9C4TUSaLETnodA9a7ce3icxRVzYX7rvvvr0ZA1QGJulyvvyMji2tcbQRH5k76EVTS2MsbkonPf7TOkcdddQGUza307O5ob979HeN++yzT88bc0MnMzljYKgPol75M3AM+vqNHOMX9zVnixhANAEicA0tL6wp4JhUiqKNhrpjBHdrCF4I99BdY6f+A9TmJ6PLUN78TTnLAEd6Jmm7Uo1+nYV+8VbZWSCP/SutyzTaLp+2t5fvcUXa9i7PlgZO8JNQmj8MbYH2jSfVwZMxqgOQwY1ADwEu2t7yxXv8lu+ZN75n4NAmBlmmNJPagimXuChu/aPPxk522mTgjJlqc/51WkPY/m1jMYWDYWyippMwnIdEGW3IPoYZ+dEUHRQdO3QfAo4yhjRO1G1UYifvusv5zgLptcMd/SarDlwEXLS60IJefyUf5kXkyzxon6NMcyiC4D3nUx9B0A71RBu9D0VH03pzo6Oj7naOE3Wq/5y/ntN7GdHlClrd8VT4VgyMwRvu5AP2P6C70hXPP4gy8rS8yO9BizqEQOW6pPOegaMO64j6AHhtZSfPeGQOb+oQ+4eiPXHfZOD4Gz8jQzQA8d6ZXToqKlrtLq2t2zaIRVlxVyanAY8Hm7gtK4SQp2bMPWtXIWHKgtSWE+9ooXFiYTE6RCc7eGMIfMoFbNt5hdFHp0Ve7+Ylx3/8+A3OAnm0R11c1DxO0kW7h+7BX8dQMYMMBvLk+jyvBpycHnCMtkPtCp7EnTZg8uY6PQO/dgz1uXYyZwEkDxDaIq/lCvUzsyM/Wpjn5h0RrCn9EE98i7I4EY5691H91nQaLbfTcwaOgRZIzGviFFkWC21tOYHjh+k4JDNLAUcBGqZRGklICDoCo0EaYHRHIJ/41Kau6Ax3ZRu1uQaF6bdM0mhxZ8w56dAQtJgcskWt9ag7aIm7vOYZ9vkPMSHT4Vm5RkA2r852EVR2tY6Mzm3zKZv7mXdG+sgb+e2d8a92BojIGzxFG++Ov1snXGhuLwMSj5H1LqOldstjrpTrs4JPINq2ejdhz+1Cm3f2/CLAsXXCBrpcp7odFMid3NYZ7cQzv+NhpjV4Yx5nxM/5PfO88ZSRC3FrY7zheeUC5w2z/sL8woe2LmgovPUAAAdWSURBVOZXtFP5Bjs8sUTgv1OZbuZYysnWQbQj7ksBR+OtVhMeofTQ3bobA/2+C0vZYYcdenU4htwgRCNcXIE8MS1wYkThvRKnhgFHHnlk753idbNuMmRHy4cOnq8hbRX15zs6MN6cJF9GQAOG33P6/Ow3PMr58rMylJ3zeJbPCOh35gGTAc1sbkJ9zDHH9At1XKjBS3l0LiDmOrwPmbXSA5s6cvpF2hX0xqDZ1snZgf5I197VTX7auoMO34c2AcoXdRrMDJBcxmQQb2gKppZ5ib6RNupqaVTXUAS7PAY8NMijHIOzctp2xPtCwAlCEAfFPF+hcmNUb+8h6MwPcw7/wmYCPUWM3wgVM8/Kc1tmgNJIzJ3J88R93YZWRL6gQQgME2Oq7mBIvks/dOU0Q89DefK3oTzxTToChg9GTsBwAUIIhTQ5fS47P0ea9p7T5Oc23dh7zpOfx9Ln7zn90HNOm58j7bn/OrfnRfAFjwg5nkkzlCfy5ntOF8/597asSBP3hYCjw6hLptCYkIawtnfC66KBuAy/8fXxswUQhQGYQqUPmV1RfpTrHt/aO4DtvPPOfbiQcqPRW8s9d+TWQvOFReeW5s0kcBBH4NiA9ovkuUwW0izEY4JMiAGBzcncGEN01ElDmD/JM1ZmpiE/S68+ax4nff6kFYtsF1bnVj3/P/ppvfFiEjhAw15n6hDEIQH2LQQ10gylI9i+A4K4I1psipl+p4atvQzFPGWg5OegxYo9wK9WzxQN9dv6FfxN7dtJ4BA6fm4rvK1whoCa6+y///69B00gponslPsQuBwYbkI3pnU0KjSPCT0z0T6PcNcqI0Aaz+5o4V2xR8VEFfCn6thU5lX+iy6wRoFD4Pjed3/E7r2QtsBhtolk5S4EMELq8mwiK95naI4SgGtDV8aEMACkXBrEqS5c3UIvXFy09n9YLDvxxM/0ZlkB5qIr0GNydEF/HwROCCsNMrQ/3uhuwS6v0cgTF8Hl9rSAZNEQWAJ4ARyHEPLSybNao4Ie4ImLJoorvgVgFilztTrr9wLflAyMAocwWlBqN1wRfAuUolGnBJQQ84eLOcrAASDvVprtLJ0qY4rw+q0Ee0vKwCBwCD1zy2pwaIoQeNoGGIYWq3JDAIJGsIJtbtKWYy3IIlYBpwCQ5WZreR4FDjNMuHYr8IBj5RawphoJEADIHBMqkcvxbCIPgNJMlVO/FbDWogxMAOcP3d577b2RwMf85Nhjjx0MG8kNDOA42V/QYwscWkhwXQGngJHlZmt5HgWO1Xu77bLAB3Ac1+P3qUYCjnmSYDnrMLkcz+ZJtgoUcAo4U3K0Vn8bBE4IvdDqPD8J4Ai9EZ07JfR+Ay5/gsS8y8BRzk1vetM+ulpda5U5RVeBekwGRoFD8IXwDy1+WsMRWi6qYEjwfbMAecopp/QHVgBKACfAJzze/o2h/GPE1vcS5LUiA6PAIdARo5YFHwBoEJHJogqEYTPJpAc2zwAlMsBeC2lzfs+XufT5Ow4tnq4VRhQdBcplZGAQOFEAz5mNV+YjoTHcQ2tY4xEBYE+EradczzZW+ccxYTWtiRagE5Jz3LHHlbZJ/38ZPK/71gHgSeDQHg6UEDCZgZPBAxxcy2LJnEZji7NvraaJPBwFYtvOOuusAk4BZ6u1OCaBE6YXjdKePJmBRAPFlb/nZ79zNNit6eysmttsHSNracDhfpoEDuF2CZ057LDD+i3IGQyLPgONgE9HAZ1wwgmT3rjqqOGOKr6sLb5MAic6i+ZhWh1++BGTJ0i2QAIYJptTTDgKnFElDCfKrfvaEobqj8X7YyHghMeMt8xJJE4kMVcZm8cEYGgZpy46PcQB5QBYJtrinVOCvHZ5tRBwogMJPYeB88uE3Yg1s705zhEDJG5qJ+DYdiCI09lf3M4FmLUrBNG/dV+8j5YGTmgfAGK+WesBDoe4OUfNHEaYjcgCxxiVllm8M0pwtx5eLQWctmOBKIAEIHHF9zZ9vW89glF9Nd1XmwScYG4AJe7xve7TzC/+bL38uUCAUwKw9QpA9d28vivg1Op9LQ/MkIECzgym1Sg9b5ReT3wr4BRwSuPMkIECzgymraeRs9oyT3sWcAo4pXFmyEABZwbTapSeN0qvJ74VcAo4pXFmyEABZwbT1tPIWW2Zpz0LOAWc0jgzZKCAM4NpNUrPG6XXE98KOAWc0jgzZKCAM4Np62nkrLbM054FnAJOaZwZMlDAmcG0GqXnjdLriW8FnAJOaZwZMlDAmcG09TRyVlvmac8CTgGnNM4MGSjgzGBajdLzRun1xLcCTgGnNM4MGSjgzGDaeho5qy3ztGcBp4BTGmeGDBRwZjCtRul5o/R64lsBp4BTGmeGDBRwZjBtPY2c1ZZ52rOAU8ApjTNDBgo4M5hWo/S8UXo98a2AU8ApjTNDBgo4M5i2nkbOass87VnAKeCUxpkhAwWcGUyrUXreKL2e+FbAKeCUxpkhAwWcGUxbTyNntWWe9izgFHBK48yQgf8BME7Bwtt4lLEAAAAASUVORK5CYII=;" parent="1" vertex="1">
          <mxGeometry x="97.19" y="220" width="104.27" height="82" as="geometry" />
        </mxCell>
        <mxCell id="wJXbaJ3XNHEv-SyZ_-ga-6" value="" style="rounded=0;whiteSpace=wrap;html=1;fillColor=#D4E1F5;" parent="1" vertex="1">
          <mxGeometry x="260" y="211" width="360" height="100" as="geometry" />
        </mxCell>
        <mxCell id="wJXbaJ3XNHEv-SyZ_-ga-8" value="业务需求" style="rounded=0;whiteSpace=wrap;html=1;fillColor=#D4E1F5;" parent="1" vertex="1">
          <mxGeometry x="260" y="211" width="140" height="39" as="geometry" />
        </mxCell>
        <mxCell id="wJXbaJ3XNHEv-SyZ_-ga-9" value="算法数据" style="rounded=0;whiteSpace=wrap;html=1;fillColor=#D4E1F5;" parent="1" vertex="1">
          <mxGeometry x="260" y="272" width="80" height="30" as="geometry" />
        </mxCell>
        <mxCell id="wJXbaJ3XNHEv-SyZ_-ga-10" value="" style="endArrow=classic;html=1;entryX=0;entryY=0.75;entryDx=0;entryDy=0;" parent="1" target="wJXbaJ3XNHEv-SyZ_-ga-6" edge="1">
          <mxGeometry width="50" height="50" relative="1" as="geometry">
            <mxPoint x="189.19" y="280" as="sourcePoint" />
            <mxPoint x="239.19" y="230" as="targetPoint" />
          </mxGeometry>
        </mxCell>
        <mxCell id="wJXbaJ3XNHEv-SyZ_-ga-11" value="" style="endArrow=classic;html=1;entryX=-0.002;entryY=0.84;entryDx=0;entryDy=0;entryPerimeter=0;" parent="1" target="wJXbaJ3XNHEv-SyZ_-ga-6" edge="1">
          <mxGeometry width="50" height="50" relative="1" as="geometry">
            <mxPoint x="190" y="360" as="sourcePoint" />
            <mxPoint x="440" y="350" as="targetPoint" />
          </mxGeometry>
        </mxCell>
        <mxCell id="wJXbaJ3XNHEv-SyZ_-ga-12" value="" style="endArrow=classic;html=1;entryX=0;entryY=0.88;entryDx=0;entryDy=0;entryPerimeter=0;" parent="1" target="wJXbaJ3XNHEv-SyZ_-ga-6" edge="1">
          <mxGeometry width="50" height="50" relative="1" as="geometry">
            <mxPoint x="210" y="600" as="sourcePoint" />
            <mxPoint x="260" y="550" as="targetPoint" />
          </mxGeometry>
        </mxCell>
        <mxCell id="wJXbaJ3XNHEv-SyZ_-ga-13" value="" style="endArrow=classic;html=1;" parent="1" edge="1">
          <mxGeometry width="50" height="50" relative="1" as="geometry">
            <mxPoint x="201.46" y="480" as="sourcePoint" />
            <mxPoint x="258.58" y="300" as="targetPoint" />
          </mxGeometry>
        </mxCell>
        <mxCell id="wJXbaJ3XNHEv-SyZ_-ga-14" value="训练特征数据" style="rounded=0;whiteSpace=wrap;html=1;fillColor=#D4E1F5;" parent="1" vertex="1">
          <mxGeometry x="450" y="270" width="100" height="30" as="geometry" />
        </mxCell>
        <mxCell id="wJXbaJ3XNHEv-SyZ_-ga-17" value="模型训练评估" style="rounded=0;whiteSpace=wrap;html=1;fillColor=#D4E1F5;" parent="1" vertex="1">
          <mxGeometry x="450" y="220" width="100" height="30" as="geometry" />
        </mxCell>
        <mxCell id="wJXbaJ3XNHEv-SyZ_-ga-18" value="" style="endArrow=classic;html=1;exitX=0.5;exitY=0;exitDx=0;exitDy=0;entryX=0.5;entryY=1;entryDx=0;entryDy=0;" parent="1" source="wJXbaJ3XNHEv-SyZ_-ga-14" target="wJXbaJ3XNHEv-SyZ_-ga-17" edge="1">
          <mxGeometry width="50" height="50" relative="1" as="geometry">
            <mxPoint x="390" y="400" as="sourcePoint" />
            <mxPoint x="440" y="350" as="targetPoint" />
          </mxGeometry>
        </mxCell>
        <mxCell id="wJXbaJ3XNHEv-SyZ_-ga-19" value="离线模型" style="rounded=1;whiteSpace=wrap;html=1;fillColor=#f5f5f5;strokeColor=#666666;fontColor=#333333;" parent="1" vertex="1">
          <mxGeometry x="566" y="220" width="50" height="30" as="geometry" />
        </mxCell>
        <mxCell id="wJXbaJ3XNHEv-SyZ_-ga-20" value="特征变换" style="rounded=0;whiteSpace=wrap;html=1;fillColor=#D4E1F5;" parent="1" vertex="1">
          <mxGeometry x="354" y="271" width="76" height="30" as="geometry" />
        </mxCell>
        <mxCell id="wJXbaJ3XNHEv-SyZ_-ga-21" value="" style="endArrow=classic;html=1;exitX=1;exitY=0.5;exitDx=0;exitDy=0;entryX=0;entryY=0.5;entryDx=0;entryDy=0;" parent="1" source="wJXbaJ3XNHEv-SyZ_-ga-9" target="wJXbaJ3XNHEv-SyZ_-ga-20" edge="1">
          <mxGeometry width="50" height="50" relative="1" as="geometry">
            <mxPoint x="390" y="390" as="sourcePoint" />
            <mxPoint x="440" y="340" as="targetPoint" />
          </mxGeometry>
        </mxCell>
        <mxCell id="wJXbaJ3XNHEv-SyZ_-ga-22" value="" style="endArrow=classic;html=1;exitX=1;exitY=0.5;exitDx=0;exitDy=0;entryX=0;entryY=0.5;entryDx=0;entryDy=0;" parent="1" source="wJXbaJ3XNHEv-SyZ_-ga-20" target="wJXbaJ3XNHEv-SyZ_-ga-14" edge="1">
          <mxGeometry width="50" height="50" relative="1" as="geometry">
            <mxPoint x="390" y="390" as="sourcePoint" />
            <mxPoint x="440" y="340" as="targetPoint" />
          </mxGeometry>
        </mxCell>
        <mxCell id="wJXbaJ3XNHEv-SyZ_-ga-24" value="" style="rounded=0;whiteSpace=wrap;html=1;fillColor=#FFF2CC;" parent="1" vertex="1">
          <mxGeometry x="260" y="317" width="360" height="30" as="geometry" />
        </mxCell>
        <mxCell id="wJXbaJ3XNHEv-SyZ_-ga-25" value="模型管理" style="rounded=0;whiteSpace=wrap;html=1;" parent="1" vertex="1">
          <mxGeometry x="566" y="264" width="50" height="38" as="geometry" />
        </mxCell>
        <mxCell id="wJXbaJ3XNHEv-SyZ_-ga-26" value="在线服务" style="rounded=0;whiteSpace=wrap;html=1;fillColor=#D4E1F5;" parent="1" vertex="1">
          <mxGeometry x="630" y="230" width="50" height="40" as="geometry" />
        </mxCell>
        <mxCell id="wJXbaJ3XNHEv-SyZ_-ga-27" value="推理特征数据" style="rounded=0;whiteSpace=wrap;html=1;fillColor=#D4E1F5;" parent="1" vertex="1">
          <mxGeometry x="442" y="322" width="118" height="20" as="geometry" />
        </mxCell>
        <mxCell id="wJXbaJ3XNHEv-SyZ_-ga-28" value="在线数据处理" style="rounded=0;whiteSpace=wrap;html=1;fillColor=#D4E1F5;" parent="1" vertex="1">
          <mxGeometry x="271" y="322" width="118" height="20" as="geometry" />
        </mxCell>
        <mxCell id="wJXbaJ3XNHEv-SyZ_-ga-29" value="业务系统&lt;br&gt;推荐/广告" style="rounded=1;whiteSpace=wrap;html=1;fillColor=#FFF2CC;" parent="1" vertex="1">
          <mxGeometry x="630" y="311" width="60" height="39" as="geometry" />
        </mxCell>
        <mxCell id="wJXbaJ3XNHEv-SyZ_-ga-30" value="" style="endArrow=classic;html=1;exitX=1;exitY=0.5;exitDx=0;exitDy=0;entryX=0;entryY=0.5;entryDx=0;entryDy=0;" parent="1" source="wJXbaJ3XNHEv-SyZ_-ga-17" target="wJXbaJ3XNHEv-SyZ_-ga-19" edge="1">
          <mxGeometry width="50" height="50" relative="1" as="geometry">
            <mxPoint x="460" y="380" as="sourcePoint" />
            <mxPoint x="510" y="330" as="targetPoint" />
          </mxGeometry>
        </mxCell>
        <mxCell id="wJXbaJ3XNHEv-SyZ_-ga-31" value="" style="endArrow=classic;html=1;entryX=0;entryY=0.5;entryDx=0;entryDy=0;exitX=1;exitY=0.5;exitDx=0;exitDy=0;" parent="1" source="wJXbaJ3XNHEv-SyZ_-ga-27" target="wJXbaJ3XNHEv-SyZ_-ga-29" edge="1">
          <mxGeometry width="50" height="50" relative="1" as="geometry">
            <mxPoint x="460" y="380" as="sourcePoint" />
            <mxPoint x="510" y="330" as="targetPoint" />
          </mxGeometry>
        </mxCell>
        <mxCell id="wJXbaJ3XNHEv-SyZ_-ga-34" value="特征" style="edgeLabel;html=1;align=center;verticalAlign=middle;resizable=0;points=[];" parent="wJXbaJ3XNHEv-SyZ_-ga-31" vertex="1" connectable="0">
          <mxGeometry x="-0.2904" y="1" relative="1" as="geometry">
            <mxPoint as="offset" />
          </mxGeometry>
        </mxCell>
        <mxCell id="wJXbaJ3XNHEv-SyZ_-ga-32" value="" style="endArrow=classic;html=1;exitX=0.5;exitY=1;exitDx=0;exitDy=0;entryX=0.421;entryY=0.028;entryDx=0;entryDy=0;entryPerimeter=0;" parent="1" source="wJXbaJ3XNHEv-SyZ_-ga-26" target="wJXbaJ3XNHEv-SyZ_-ga-29" edge="1">
          <mxGeometry width="50" height="50" relative="1" as="geometry">
            <mxPoint x="460" y="380" as="sourcePoint" />
            <mxPoint x="510" y="330" as="targetPoint" />
          </mxGeometry>
        </mxCell>
        <mxCell id="wJXbaJ3XNHEv-SyZ_-ga-33" value="模型" style="edgeLabel;html=1;align=center;verticalAlign=middle;resizable=0;points=[];" parent="wJXbaJ3XNHEv-SyZ_-ga-32" vertex="1" connectable="0">
          <mxGeometry x="-0.4705" relative="1" as="geometry">
            <mxPoint as="offset" />
          </mxGeometry>
        </mxCell>
        <mxCell id="wJXbaJ3XNHEv-SyZ_-ga-35" value="" style="shape=flexArrow;endArrow=classic;html=1;strokeColor=#0000FF;fillColor=#80FF00;width=19.310344827586206;endSize=7.324137931034483;" parent="1" edge="1">
          <mxGeometry width="50" height="50" relative="1" as="geometry">
            <mxPoint x="690" y="330" as="sourcePoint" />
            <mxPoint x="750" y="330" as="targetPoint" />
          </mxGeometry>
        </mxCell>
        <mxCell id="wJXbaJ3XNHEv-SyZ_-ga-36" value="业务结果" style="edgeLabel;html=1;align=center;verticalAlign=middle;resizable=0;points=[];" parent="wJXbaJ3XNHEv-SyZ_-ga-35" vertex="1" connectable="0">
          <mxGeometry x="-0.1029" relative="1" as="geometry">
            <mxPoint as="offset" />
          </mxGeometry>
        </mxCell>
      </root>
    </mxGraphModel>
  </diagram>
</mxfile>
